<?xml version="1.0" encoding="utf-8"?>
<!-- Generator: Adobe Illustrator 23.0.1, SVG Export Plug-In . SVG Version: 6.00 Build 0)  -->
<svg version="1.1" id="Layer_1" xmlns="http://www.w3.org/2000/svg" xmlns:xlink="http://www.w3.org/1999/xlink" x="0px" y="0px"
	 viewBox="0 0 546.8 187.5" style="enable-background:new 0 0 546.8 187.5;" xml:space="preserve">
<style type="text/css">
	.st0{fill:#FFFFFF;}
	.st1{opacity:0.5;fill:#FFFFFF;}
</style>
<path class="st0" d="M187.1,182.3L126.7,5.2H60.4L0,182.3h51.5l12.5-37h58.3l12.3,37H187.1 M108.9,104.2H77.5
	C84.3,84.9,89.6,69,92.9,51.3h1C97.1,69,102.8,85.3,108.9,104.2z"/>
<path class="st0" d="M286.9,187.5c-60.9,0-96.3-37.2-96.3-94.2C190.6,38.4,227,0,280.7,0c36.1,0,63.8,12.7,74.7,34.7l-31.6,27.9
	c-8-13.6-20.9-21.3-37.3-21.3c-25.1,0-41.9,18.9-41.9,52c0,33.1,18.1,54,42.4,54c13.8,0,22.6-4.1,26.5-9.1v-18.8h-36.6L358,78.5
	v79.9C345.2,176.2,321.2,187.5,286.9,187.5"/>
<path class="st0" d="M475.3,187.5c-55.2,0-92.9-36.7-92.9-94.2c0-56.8,37.8-93.3,92.9-93.3c34.2,0,61.7,15.4,70.8,35.6l-32.3,27.9
	c-4.6-10.4-20.2-20-33.7-20c-23.1,0-41.4,17-41.4,49.7c0,32.7,17.4,50.4,41.4,50.4c13.2,0,30.1-9.3,35.9-22l30.8,29.5
	C534.8,173.7,507.3,187.5,475.3,187.5"/>
<polyline class="st1" points="276.8,119.4 276.8,78.5 358,78.5 276.8,119.4 "/>
</svg>
