<?xml version="1.0" encoding="utf-8"?>
<!-- Generator: Adobe Illustrator 23.0.1, SVG Export Plug-In . SVG Version: 6.00 Build 0)  -->
<svg version="1.1" id="Ebene_1" xmlns="http://www.w3.org/2000/svg" xmlns:xlink="http://www.w3.org/1999/xlink" x="0px" y="0px"
	 viewBox="0 0 1215.9 147.9" style="enable-background:new 0 0 1215.9 147.9;" xml:space="preserve">
<style type="text/css">
	.st0{fill:#FFFFFF;}
</style>
<path class="st0" d="M81.9,47.4L64.8,92.8h33.7L81.9,47.4z M53.6,120.8l-10.8,24.7H0L59.9,3.6h44.2l58.8,141.9h-43.3l-10.1-24.7
	H53.6z"/>
<g>
	<path class="st0" d="M221.3,67.2c15.9,0,25-6.6,25-17.7c0-11.1-9.4-17.7-25-17.7h-7.5v35.3H221.3z M303,145.5h-50.6l-38.6-54.5
		v54.5h-40.5V3.6h63c17.8,0,29.3,3.8,38.4,12.6c8.4,8.1,13.3,19.6,13.3,31.3c0,21.3-11.9,35.3-34.2,40L303,145.5z"/>
</g>
<polygon class="st0" points="352.9,34.9 352.9,58.5 413.8,58.5 413.8,89.8 352.9,89.8 352.9,114.2 416.4,114.2 416.4,145.5 
	312.4,145.5 312.4,3.6 416.4,3.6 416.4,34.9 "/>
<polygon class="st0" points="436.9,3.6 477.4,3.6 552.1,90.4 552.1,3.6 592.6,3.6 592.6,145.5 552.1,145.5 477.4,58.7 477.4,145.5 
	436.9,145.5 "/>
<path class="st0" d="M685.3,47.4l-17.1,45.3h33.7L685.3,47.4z M657,120.8l-10.8,24.7h-42.8L663.3,3.6h44.2l58.8,141.9H723L713,120.8
	H657z"/>
<g>
	<path class="st0" d="M870,130.9v14.7h-91.5L830,85.7C849,63.8,854.7,54,854.7,43.4c0-15.3-12.3-27.4-28.5-27.4
		c-16.8,0-26.6,10-28.3,29.1h-16c1.3-12.6,3-18.5,7.7-25.3c7.9-11.3,21.5-18.3,36.2-18.3c24.9,0,44.5,18.3,44.5,41.7
		c0,16-5.5,25.7-30.6,54.5l-28.9,33.2H870z"/>
	<path class="st0" d="M906.1,74.3c0,33.8,14.9,58.9,34.9,58.9c20.2,0,35.5-25.5,35.5-58.7c0-33.2-15.3-58.5-35.3-58.5
		C921.4,16,906.1,41.5,906.1,74.3 M992,74.7c0,41.5-22.1,73.2-50.8,73.2c-28.5,0-50.6-31.9-50.6-73.2c0-41.3,22.1-73.2,50.8-73.2
		C970.3,1.5,992,32.8,992,74.7"/>
	<path class="st0" d="M1048,64.3c18.5-0.4,28.1-8.7,28.1-24.3c0-13.6-10.2-24-23.8-24c-14.7,0-21.5,6.2-24.5,22.8h-15.5
		c3.8-25.3,16.4-37.2,39.4-37.2c23.2,0,40,16.2,40,38.1c0,13.8-6.4,24.9-18.1,31.5c13,6.2,20.2,18.5,20.2,34.7
		c0,24-18.9,42.1-44,42.1c-16,0-30.4-7.9-37.2-20.6c-3-5.3-4-9.8-4.7-18.5h15.3c2.3,15.7,12.1,24.5,27.2,24.5
		c15.5,0,27.9-12.3,27.9-28.3c0-17.4-10-26.4-30.2-26.8V64.3z"/>
	<path class="st0" d="M1133.8,99.8c0,18.5,14.9,33.4,33.4,33.4c18.3,0,33.2-14.9,33.2-33.4c0-18.5-14.9-33.4-33.2-33.4
		C1148.7,66.4,1133.8,81.3,1133.8,99.8 M1190.2,8.9l-32.8,45.5c5.3-1.7,8.5-2.1,12.8-2.1c25.5,0,45.7,20.6,45.7,47
		c0,26.8-21.9,48.5-48.7,48.5c-27,0-48.9-21.7-48.9-48.5c0-10.2,4.3-21.9,11.7-32.1L1178.3,0L1190.2,8.9z"/>
</g>
</svg>
