<?xml version="1.0" encoding="utf-8"?>
<!-- Generator: Adobe Illustrator 23.0.1, SVG Export Plug-In . SVG Version: 6.00 Build 0)  -->
<svg version="1.1" id="Layer_1" xmlns="http://www.w3.org/2000/svg" xmlns:xlink="http://www.w3.org/1999/xlink" x="0px" y="0px"
	 viewBox="0 0 250 90.3" style="enable-background:new 0 0 250 90.3;" xml:space="preserve">
<style type="text/css">
	.st0{fill:#9D9FA2;}
	.st1{fill:#FFFFFF;}
</style>
<g>
	<path class="st0" d="M13.8,15.1H31v17.2H13.8V15.1z M0,46.1h44.8V1.3H0V46.1z"/>
	<rect x="58.6" y="15.1" class="st0" width="17.2" height="17.2"/>
	<g>
		<path class="st1" d="M89.6,1.3h25c9.2,0,13.3,6.1,13.3,11.7c0,4-1.5,6.6-5.7,9c5.2,1.9,8.1,5.4,8.1,10.8c0,6.4-4.7,13.3-15.7,13.3
			h-25L89.6,1.3z M103.2,36h9c3.2,0,4.7-2.3,4.7-4.3c0,0.9,0.4-3.7-4.2-3.7h-9.5V36z M103.2,19h7.3c3.3,0,4.6-1.5,4.6-3.8
			c0-0.5-0.2-3.4-3.7-3.4h-8.2V19z"/>
		<path class="st1" d="M144.4,1.3h14.4l16.4,44.7h-14.8l-2.2-6.7h-13.8l-1.8,6.7H128L144.4,1.3z M151.1,14.6l-3.8,14.9h8.1
			L151.1,14.6z"/>
		<path class="st1" d="M198.3,14.6h13.8C212.1,7,206.3,0,192.8,0c-14.9,0-19.5,8.2-19.5,14.2c0,9.7,11.9,12.3,12.2,12.4
			c1.8,0.6,9.1,2.5,11,3.2c1.6,0.6,3.1,1.8,3.1,3.5c0,2.6-3.1,3.9-5.7,3.9c-1.7,0-7.3-0.6-7.3-6.5h-14.2c0,7.9,5.4,16.7,20.6,16.7
			c16.8,0,20.3-10,20.3-15.3c0-4.3-2.5-9.2-8.1-11.5c-3.4-1.4-9.1-2.6-11.9-3.4c-1.4-0.4-6.2-1.4-6.2-4.3c0-3.7,6.2-3.3,5.3-3.3
			C195.1,9.7,198.3,11.2,198.3,14.6"/>
		<polygon class="st1" points="215.7,1.3 250,1.3 250,13.1 229.4,13.1 229.4,21 247.8,21 247.8,32.3 229.3,32.3 229.3,46.1 
			215.6,46.1 		"/>
		<polygon class="st1" points="17.9,81.6 17.9,81.5 13.6,65.4 10.9,65.4 6.5,81.6 6.3,81.6 6.3,81.5 2.5,65.4 0,65.4 5,84.7 
			7.6,84.7 12.1,68.3 12.2,68.3 12.2,68.4 16.7,84.7 19.3,84.7 24.4,65.4 22,65.4 18,81.6 		"/>
		<path class="st1" d="M35.9,73.1c-0.5-0.8-1.2-1.4-2-2c-0.8-0.5-1.8-0.8-3.1-0.8c-0.9,0-1.8,0.2-2.6,0.5c-0.8,0.4-1.5,0.9-2.1,1.5
			c-0.6,0.6-1,1.4-1.4,2.3c-0.3,0.9-0.5,1.9-0.5,2.9c0,1.1,0.2,2.1,0.5,2.9c0.3,0.9,0.7,1.7,1.3,2.3c0.6,0.6,1.2,1.2,2.1,1.5
			c0.8,0.4,1.8,0.5,2.9,0.5c1.6,0,2.9-0.4,3.9-1.2c1-0.8,1.7-1.9,2-3.4h-2.1c-0.2,0.9-0.6,1.6-1.3,2.1c-0.6,0.5-1.5,0.7-2.5,0.7
			c-0.8,0-1.5-0.1-2-0.4c-0.6-0.3-1-0.6-1.4-1c-0.4-0.4-0.6-0.9-0.8-1.5c-0.2-0.6-0.2-1.2-0.2-1.8l0-0.1h10.5c0-0.8,0-1.7-0.2-2.6
			C36.7,74.8,36.3,73.9,35.9,73.1 M26.6,76.4L26.6,76.4c0-0.6,0.2-1.2,0.4-1.6c0.2-0.5,0.5-0.9,0.8-1.3c0.3-0.4,0.8-0.7,1.3-0.9
			c0.5-0.2,1-0.3,1.7-0.3c0.6,0,1.1,0.1,1.6,0.3c0.5,0.2,0.9,0.5,1.3,0.9c0.4,0.4,0.6,0.8,0.9,1.3c0.2,0.5,0.3,1,0.4,1.6l0,0.1H26.6
			z"/>
		<path class="st1" d="M53.4,83.1c-0.7,0-1.4-0.1-1.9-0.4c-0.5-0.3-1-0.7-1.3-1.2c-0.3-0.5-0.6-1.1-0.7-1.7
			c-0.2-0.6-0.2-1.3-0.2-1.9c0-0.7,0.1-1.4,0.2-2.1c0.1-0.7,0.4-1.3,0.7-1.8c0.3-0.5,0.8-0.9,1.4-1.2c0.6-0.3,1.3-0.5,2.1-0.5
			c1,0,1.8,0.3,2.4,0.8c0.6,0.5,1,1.2,1.2,2.1h2.3c-0.1-0.8-0.3-1.5-0.6-2.1c-0.3-0.6-0.8-1.1-1.3-1.5c-0.5-0.4-1.1-0.7-1.8-0.9
			c-0.7-0.2-1.4-0.3-2.2-0.3c-1.1,0-2.1,0.2-2.9,0.6c-0.8,0.4-1.5,0.9-2.1,1.6c-0.5,0.7-1,1.5-1.2,2.4c-0.3,0.9-0.4,1.9-0.4,2.9
			c0,1,0.1,2,0.4,2.9c0.3,0.9,0.7,1.6,1.2,2.2c0.5,0.6,1.2,1.1,2,1.5c0.8,0.3,1.8,0.5,2.8,0.5c1.8,0,3.2-0.5,4.2-1.4
			c1-0.9,1.7-2.2,1.9-3.9h-2.2c-0.2,1.1-0.6,1.9-1.2,2.5C55.5,82.8,54.5,83.1,53.4,83.1"/>
		<path class="st1" d="M66.6,71.2c-0.8,0.5-1.6,1.4-2.1,2.5l0,0h-0.1v-3h-2v13.9h2.2v-6.2c0-0.9,0.1-1.7,0.3-2.4
			c0.2-0.7,0.5-1.3,0.9-1.8c0.4-0.5,0.9-0.9,1.6-1.1c0.6-0.2,1.4-0.4,2.3-0.4v-2.3l-0.2,0C68.3,70.4,67.4,70.7,66.6,71.2"/>
		<path class="st1" d="M81.5,73.1c-0.5-0.8-1.2-1.4-2-2c-0.8-0.5-1.8-0.8-3.1-0.8c-0.9,0-1.8,0.2-2.6,0.5c-0.8,0.4-1.5,0.9-2.1,1.5
			c-0.6,0.6-1,1.4-1.4,2.3c-0.3,0.9-0.5,1.9-0.5,2.9c0,1.1,0.2,2.1,0.5,2.9c0.3,0.9,0.7,1.7,1.3,2.3c0.6,0.6,1.2,1.2,2.1,1.5
			c0.8,0.4,1.8,0.5,2.9,0.5c1.6,0,2.9-0.4,3.9-1.2c1-0.8,1.7-1.9,2-3.4h-2.1c-0.2,0.9-0.6,1.6-1.3,2.1c-0.6,0.5-1.5,0.7-2.5,0.7
			c-0.8,0-1.5-0.1-2-0.4c-0.6-0.3-1-0.6-1.4-1c-0.4-0.4-0.6-0.9-0.8-1.5c-0.2-0.6-0.2-1.2-0.2-1.8l0-0.1h10.5c0-0.8,0-1.7-0.2-2.6
			C82.3,74.8,82,73.9,81.5,73.1 M72.2,76.4L72.2,76.4c0-0.6,0.2-1.2,0.4-1.6c0.2-0.5,0.5-0.9,0.8-1.3c0.3-0.4,0.8-0.7,1.3-0.9
			c0.5-0.2,1-0.3,1.6-0.3c0.6,0,1.1,0.1,1.6,0.3c0.5,0.2,0.9,0.5,1.3,0.9c0.4,0.4,0.6,0.8,0.9,1.3c0.2,0.5,0.3,1,0.4,1.6l0,0.1H72.2
			z"/>
		<path class="st1" d="M96.8,82.7c-0.1-0.3-0.1-0.7-0.1-1.2v-7.2c0-0.8-0.2-1.5-0.5-2c-0.3-0.5-0.7-0.9-1.2-1.2
			c-0.5-0.3-1.1-0.5-1.7-0.6c-1.4-0.2-2.8-0.2-4.1,0.1c-0.7,0.2-1.3,0.4-1.9,0.8c-0.5,0.4-1,0.8-1.3,1.4c-0.3,0.6-0.5,1.3-0.5,2.1
			h2.2c0.1-1,0.4-1.7,1.1-2.1c0.7-0.4,1.5-0.6,2.5-0.6c0.4,0,0.7,0,1.1,0.1c0.4,0.1,0.7,0.2,1,0.3c0.3,0.2,0.6,0.4,0.8,0.7
			c0.2,0.3,0.3,0.7,0.3,1.3c0,0.5-0.1,0.8-0.4,1c-0.3,0.2-0.6,0.4-1.1,0.5c-0.4,0.1-1,0.2-1.5,0.3c-0.6,0.1-1.2,0.2-1.8,0.3
			c-0.6,0.1-1.2,0.2-1.8,0.4c-0.6,0.2-1.1,0.4-1.5,0.7c-0.4,0.3-0.8,0.7-1.1,1.2c-0.3,0.5-0.4,1.1-0.4,1.9c0,0.7,0.1,1.3,0.4,1.8
			c0.2,0.5,0.6,0.9,1,1.2c0.4,0.3,0.9,0.5,1.5,0.7c0.6,0.1,1.2,0.2,1.8,0.2c1,0,1.9-0.2,2.7-0.5c0.8-0.3,1.6-0.9,2.2-1.6l0.1-0.2
			v0.2c0,0.7,0.2,1.3,0.5,1.6c0.3,0.3,0.8,0.5,1.4,0.5c0.7,0,1.2-0.1,1.6-0.3V83c-0.2,0.1-0.4,0.1-0.6,0.1
			C97.1,83.1,96.8,83,96.8,82.7 M94.5,79.8c0,0.3-0.1,0.7-0.2,1.1c-0.2,0.4-0.4,0.7-0.8,1.1c-0.4,0.3-0.8,0.6-1.4,0.8
			c-0.6,0.2-1.2,0.3-2,0.3c-0.3,0-0.7,0-1-0.1c-0.3-0.1-0.6-0.2-0.9-0.4c-0.3-0.2-0.5-0.4-0.6-0.7c-0.2-0.3-0.2-0.6-0.2-1
			c0-0.6,0.1-1.1,0.4-1.4c0.3-0.3,0.6-0.6,1.1-0.8c0.4-0.2,0.9-0.3,1.4-0.4c0.5-0.1,1-0.2,1.6-0.2c0.5-0.1,1-0.1,1.5-0.2
			c0.5-0.1,0.8-0.3,1.1-0.5l0.1-0.1V79.8z"/>
		<path class="st1" d="M119.5,73.1c-0.5-0.8-1.2-1.4-2-2c-0.8-0.5-1.8-0.8-3.1-0.8c-0.9,0-1.8,0.2-2.6,0.5c-0.8,0.4-1.5,0.9-2.1,1.5
			c-0.6,0.6-1,1.4-1.4,2.3c-0.3,0.9-0.5,1.9-0.5,2.9c0,1.1,0.2,2,0.5,2.9c0.3,0.9,0.7,1.7,1.3,2.3c0.6,0.6,1.2,1.2,2.1,1.5
			c0.8,0.4,1.8,0.5,2.9,0.5c1.6,0,2.9-0.4,3.9-1.2c1-0.8,1.7-1.9,2-3.4h-2.1c-0.2,0.9-0.6,1.6-1.3,2.1c-0.6,0.5-1.5,0.7-2.5,0.7
			c-0.8,0-1.5-0.1-2-0.4c-0.6-0.3-1-0.6-1.4-1c-0.4-0.4-0.6-0.9-0.8-1.5c-0.2-0.6-0.2-1.2-0.2-1.8l0-0.1h10.5c0-0.8-0.1-1.7-0.2-2.6
			C120.3,74.8,120,73.9,119.5,73.1 M110.3,76.4L110.3,76.4c0-0.6,0.2-1.2,0.4-1.6c0.2-0.5,0.5-0.9,0.8-1.3c0.3-0.4,0.8-0.7,1.3-0.9
			c0.5-0.2,1-0.3,1.7-0.3c0.6,0,1.1,0.1,1.6,0.3c0.5,0.2,0.9,0.5,1.3,0.9c0.4,0.4,0.6,0.8,0.9,1.3c0.2,0.5,0.3,1,0.4,1.6l0,0.1
			H110.3z"/>
		<path class="st1" d="M137.1,83.1c-0.7,0-1.4-0.1-1.9-0.4c-0.5-0.3-1-0.7-1.3-1.2c-0.3-0.5-0.6-1-0.7-1.7c-0.2-0.6-0.2-1.3-0.2-1.9
			c0-0.7,0.1-1.4,0.2-2.1c0.1-0.7,0.4-1.3,0.7-1.8c0.3-0.5,0.8-0.9,1.4-1.3c0.6-0.3,1.3-0.5,2.1-0.5c1,0,1.8,0.3,2.4,0.8
			c0.6,0.5,1,1.2,1.2,2.1h2.3c-0.1-0.8-0.3-1.5-0.6-2.1c-0.3-0.6-0.8-1.1-1.3-1.5c-0.5-0.4-1.1-0.7-1.8-0.9
			c-0.7-0.2-1.4-0.3-2.2-0.3c-1.1,0-2.1,0.2-2.9,0.6c-0.8,0.4-1.5,0.9-2.1,1.6c-0.5,0.7-1,1.5-1.2,2.4c-0.3,0.9-0.4,1.9-0.4,2.9
			c0,1,0.1,2,0.4,2.9c0.3,0.9,0.7,1.6,1.2,2.2c0.5,0.6,1.2,1.1,2,1.5c0.8,0.3,1.8,0.5,2.8,0.5c1.8,0,3.2-0.5,4.2-1.4
			c1-0.9,1.7-2.2,1.9-3.9H141c-0.2,1.1-0.6,1.9-1.2,2.5C139.1,82.8,138.2,83.1,137.1,83.1"/>
		<path class="st1" d="M156.6,71.8c-0.4-0.4-0.9-0.8-1.5-1c-0.6-0.2-1.4-0.4-2.3-0.4c-0.4,0-0.8,0-1.3,0.1c-0.4,0.1-0.9,0.2-1.3,0.4
			c-0.4,0.2-0.8,0.4-1.1,0.7c-0.3,0.3-0.6,0.7-0.8,1.1l0,0h-0.1v-7.4h-2.2v19.3h2.2v-7.9c0-0.6,0.1-1.2,0.3-1.8
			c0.2-0.5,0.4-1,0.8-1.4c0.4-0.4,0.8-0.7,1.3-0.9c0.5-0.2,1.2-0.3,1.9-0.3c0.9,0,1.6,0.3,2.2,0.8c0.5,0.5,0.8,1.2,0.8,2.1v9.5h2.2
			v-9.2c0-0.8-0.1-1.4-0.2-2.1C157.2,72.8,157,72.3,156.6,71.8"/>
		<path class="st1" d="M172.2,73.1c-0.5-0.8-1.2-1.4-2-2c-0.8-0.5-1.8-0.8-3.1-0.8c-0.9,0-1.8,0.2-2.6,0.5c-0.8,0.4-1.5,0.9-2.1,1.5
			c-0.6,0.6-1,1.4-1.4,2.3c-0.3,0.9-0.5,1.9-0.5,2.9c0,1.1,0.2,2.1,0.5,2.9c0.3,0.9,0.7,1.7,1.3,2.3c0.5,0.6,1.2,1.1,2.1,1.5
			c0.8,0.4,1.8,0.5,2.9,0.5c1.6,0,2.9-0.4,3.9-1.2c1-0.8,1.7-1.9,2-3.4H171c-0.2,0.9-0.6,1.6-1.3,2.1c-0.6,0.5-1.5,0.7-2.5,0.7
			c-0.8,0-1.5-0.1-2-0.4c-0.6-0.3-1-0.6-1.4-1c-0.4-0.4-0.6-0.9-0.8-1.5c-0.2-0.6-0.2-1.2-0.2-1.8l0-0.1h10.5c0-0.8-0.1-1.7-0.2-2.6
			C173,74.8,172.7,73.9,172.2,73.1 M162.9,76.4L162.9,76.4c0-0.6,0.2-1.2,0.4-1.6c0.2-0.5,0.5-0.9,0.8-1.3c0.4-0.4,0.8-0.7,1.3-0.9
			c0.5-0.2,1-0.3,1.7-0.3c0.6,0,1.1,0.1,1.6,0.3c0.5,0.2,0.9,0.5,1.3,0.9c0.4,0.4,0.7,0.8,0.9,1.3c0.2,0.5,0.3,1,0.4,1.6l0,0.1
			H162.9z"/>
		<path class="st1" d="M194.5,71.3c-0.4-0.3-0.9-0.6-1.4-0.7c-0.6-0.2-1.2-0.2-1.9-0.2c-0.9,0-1.8,0.2-2.5,0.6
			c-0.8,0.4-1.4,1-1.8,1.7l-0.1,0.1l-0.1-0.2c-0.3-0.8-0.8-1.5-1.5-1.8c-0.7-0.4-1.5-0.5-2.3-0.5c-1.9,0-3.5,0.8-4.6,2.4l0,0h-0.1
			v-2.1h-2v13.9h2.2V76c0-0.3,0.1-0.6,0.2-1c0.1-0.4,0.4-0.8,0.7-1.2c0.3-0.4,0.7-0.7,1.2-1c0.5-0.3,1.1-0.4,1.8-0.4
			c0.5,0,1,0.1,1.3,0.2c0.3,0.2,0.6,0.4,0.8,0.7c0.2,0.3,0.4,0.6,0.4,1c0.1,0.4,0.1,0.8,0.1,1.3v9.2h2.2V76c0-1.1,0.3-2,1-2.7
			c0.7-0.7,1.6-1,2.8-1c0.6,0,1,0.1,1.4,0.3c0.4,0.2,0.7,0.4,0.9,0.7c0.2,0.3,0.3,0.6,0.4,1c0.1,0.4,0.1,0.8,0.1,1.2v9.2h2.2V74.4
			c0-0.7-0.1-1.3-0.3-1.8C195.3,72.1,194.9,71.7,194.5,71.3"/>
		<path class="st1" d="M201.8,68h-2.2v-2.7h2.2V68z M201.8,70.7h-2.2v13.9h2.2V70.7z"/>
		<path class="st1" d="M214.7,84.1c0.6-0.3,1-0.8,1.4-1.3c0.3-0.5,0.5-1.2,0.5-2.1c0-0.7-0.1-1.2-0.4-1.6c-0.3-0.4-0.6-0.8-1-1.1
			c-0.4-0.3-0.9-0.5-1.5-0.7c-0.5-0.2-1.1-0.3-1.7-0.5c-0.5-0.1-1.1-0.2-1.6-0.4c-0.5-0.1-1-0.3-1.5-0.4c-0.4-0.2-0.8-0.4-1.1-0.7
			c-0.3-0.3-0.4-0.6-0.4-1.1c0-0.4,0.1-0.7,0.3-0.9c0.2-0.2,0.4-0.4,0.7-0.6c0.3-0.1,0.6-0.2,1-0.3c0.8-0.1,1.5-0.1,2.2,0
			c0.4,0.1,0.7,0.2,1,0.4c0.3,0.2,0.6,0.4,0.8,0.7c0.2,0.3,0.3,0.7,0.4,1.1h2.2c-0.1-0.8-0.2-1.5-0.5-2c-0.3-0.6-0.7-1-1.2-1.3
			c-0.5-0.3-1.1-0.6-1.8-0.7c-0.7-0.1-1.4-0.2-2.2-0.2c-0.6,0-1.2,0.1-1.8,0.2c-0.6,0.2-1.2,0.4-1.7,0.7c-0.5,0.3-0.9,0.7-1.2,1.2
			c-0.3,0.5-0.5,1.1-0.5,1.8c0,0.9,0.2,1.6,0.7,2.1c0.4,0.5,1,0.9,1.7,1.2c0.7,0.3,1.4,0.5,2.2,0.7c0.8,0.2,1.5,0.3,2.2,0.5
			c0.7,0.2,1.3,0.4,1.7,0.8c0.5,0.3,0.7,0.8,0.7,1.4c0,0.5-0.1,0.8-0.3,1.1c-0.2,0.3-0.5,0.5-0.9,0.7c-0.3,0.1-0.7,0.3-1.1,0.3
			c-0.9,0.1-1.8,0.1-2.5-0.1c-0.5-0.1-0.9-0.2-1.2-0.5c-0.4-0.2-0.7-0.5-0.9-0.9c-0.2-0.3-0.3-0.8-0.4-1.3h-2.2
			c0,0.8,0.2,1.5,0.5,2.1c0.3,0.6,0.8,1.1,1.3,1.4c0.5,0.4,1.2,0.6,1.9,0.8c1.3,0.3,2.9,0.3,4.3,0C213.5,84.6,214.2,84.4,214.7,84.1
			"/>
		<path class="st1" d="M222.5,66.5h-2.2v4.2H218v1.9h2.3v9c0,0.6,0.1,1.2,0.2,1.6c0.1,0.4,0.3,0.7,0.6,0.9c0.3,0.2,0.6,0.4,1,0.4
			c0.4,0.1,0.9,0.1,1.5,0.1h1.7v-1.9h-1c-0.4,0-0.7,0-0.9,0c-0.2,0-0.4-0.1-0.6-0.2c-0.1-0.1-0.2-0.2-0.3-0.4c0-0.2-0.1-0.4-0.1-0.7
			v-8.8h2.9v-1.9h-2.9V66.5z"/>
		<path class="st1" d="M103.5,66.5h-2.2v4.2H99v1.9h2.3v9c0,0.6,0.1,1.2,0.2,1.6c0.1,0.4,0.3,0.7,0.6,0.9c0.3,0.2,0.6,0.4,1,0.4
			c0.4,0.1,0.9,0.1,1.5,0.1h1.7v-1.9h-1c-0.4,0-0.7,0-0.9,0c-0.2,0-0.4-0.1-0.6-0.2c-0.1-0.1-0.2-0.2-0.3-0.4c0-0.2-0.1-0.4-0.1-0.7
			v-8.8h2.9v-1.9h-2.9V66.5z"/>
		<path class="st1" d="M230.8,73.8L230.8,73.8L230.8,73.8l-0.1-3.1h-2v13.9h2.2v-6c0-0.9,0.1-1.7,0.3-2.4c0.2-0.7,0.5-1.3,0.9-1.8
			c0.4-0.5,0.9-0.9,1.6-1.1c0.6-0.3,1.4-0.4,2.3-0.4v-2.3c-1.2,0-2.2,0.2-3,0.8C232.1,71.9,231.3,72.7,230.8,73.8"/>
		<path class="st1" d="M243.1,88.3c0.3-0.5,0.5-1.1,0.8-1.7l6.1-15.8h-2.3l-4,11.5h-0.2l0-0.1l-4.1-11.5H237l5.6,13.9l0,0l-1,2.4
			c-0.2,0.4-0.5,0.8-0.8,1c-0.3,0.2-0.7,0.3-1.2,0.3c-0.2,0-0.5,0-0.7-0.1c-0.2-0.1-0.4-0.1-0.6-0.2v2c0.2,0.1,0.5,0.1,0.7,0.2
			c0.3,0,0.5,0.1,0.8,0.1c0.5,0,1-0.1,1.3-0.2c0.4-0.1,0.7-0.3,1-0.6C242.5,89.2,242.8,88.8,243.1,88.3"/>
	</g>
</g>
</svg>
