<?xml version="1.0" encoding="utf-8"?>
<!-- Generator: Adobe Illustrator 23.0.1, SVG Export Plug-In . SVG Version: 6.00 Build 0)  -->
<svg version="1.1" id="Ebene_2" xmlns="http://www.w3.org/2000/svg" xmlns:xlink="http://www.w3.org/1999/xlink" x="0px" y="0px"
	 viewBox="0 0 119.3 31.9" style="enable-background:new 0 0 119.3 31.9;" xml:space="preserve">
<style type="text/css">
	.st0{fill:#FFFFFF;}
</style>
<g>
	<path class="st0" d="M9,8.8c1.6,0,3.1-1.5,3.1-3.3V3.3c0-1.8-1.5-3.3-3.2-3.3H0v18.1l9.4,0c1.6,0,3-1.5,3-3.3v-2.7
		C12.4,10.3,10.9,8.8,9,8.8 M8.1,7.5H4V3.3h4.1V7.5z M8.4,14.8H4v-4.5h4.4V14.8z"/>
	<path class="st0" d="M92.4,8.8c1.6,0,3.1-1.5,3.1-3.3V3.3C95.5,1.5,94,0,92.3,0h-8.9v18.1h4v-7.8h4.4v7.8h4v-6
		C95.8,10.3,94.3,8.8,92.4,8.8 M91.5,7.5h-4.1V3.3h4.1V7.5z"/>
	<path class="st0" d="M65.2,18.1c-1.8,0-3.3-1.5-3.3-3.3V0h4.3v14.8h4.3v3.3H65.2z"/>
</g>
<g>
	<g>
		<path class="st0" d="M25.1,3.3c0-1.8,1.5-3.3,3.3-3.3h5.9c1.8,0,3.3,1.5,3.3,3.3v14.8h-4V3h-4.4v15.1h-4V3.3z"/>
	</g>
	<g>
		<path class="st0" d="M17,18.1c-1.8,0-3.3-1.5-3.3-3.3V3.3C13.8,1.5,15.2,0,17,0H24v3.3h-6.2v4.2h5.5v2.8h-5.5v4.5H24v3.3L17,18.1z
			"/>
	</g>
	<g>
		<path class="st0" d="M54,18.1c-1.8,0-3.3-1.5-3.3-3.3V3.3C50.7,1.5,52.2,0,54,0h6.9v3.3h-6.2v4.2h5.5v2.8h-5.5v4.5h6.2v3.3
			L54,18.1z"/>
	</g>
	<g>
		<path class="st0" d="M75.1,18.1c-1.8,0-3.3-1.5-3.3-3.3V3.3c0-1.8,1.5-3.3,3.3-3.3H82v3.3h-6.2v4.2h5.5v2.8h-5.5v4.5H82v3.3
			L75.1,18.1z"/>
	</g>
</g>
<polygon class="st0" points="42,18.1 42,3 38.3,3 38.3,0 50,0 50,3 46.3,3 46.3,18.1 "/>
<path class="st0" d="M119.3,0H98.9l10.2,18.1L119.3,0z M109.9,12.5l0-6l5.1-2.9L109.9,12.5z M103.2,3.6l5.1,2.9l0,6L103.2,3.6z
	 M114.2,2.2l-5.2,3l-5-3H114.2z"/>
<path class="st0" d="M45.9,29.7v-4.5c0-0.4,0-0.6-0.1-0.9c-0.1-0.2-0.2-0.4-0.3-0.6c-0.1-0.1-0.3-0.2-0.5-0.3
	c-0.2-0.1-0.4-0.1-0.7-0.1c-0.2,0-0.4,0-0.7,0.1c-0.2,0.1-0.4,0.2-0.5,0.3c-0.2,0.1-0.3,0.2-0.4,0.3c-0.1,0.1-0.2,0.2-0.3,0.2
	c-0.1-0.3-0.3-0.5-0.5-0.7c-0.3-0.1-0.6-0.2-1-0.2c-0.2,0-0.5,0-0.7,0.1c-0.2,0.1-0.4,0.2-0.6,0.3c-0.2,0.1-0.3,0.2-0.5,0.4L39,23.5
	h-1.1v6.2h1.3V25c0.2-0.1,0.3-0.2,0.4-0.2c0.1-0.1,0.3-0.1,0.4-0.2c0.2,0,0.3-0.1,0.5-0.1c0.2,0,0.4,0,0.5,0.1
	c0.1,0.1,0.2,0.3,0.2,0.6v4.5h1.3V25c0.2-0.1,0.3-0.2,0.4-0.2c0.1-0.1,0.3-0.1,0.4-0.2c0.2,0,0.3-0.1,0.5-0.1c0.2,0,0.4,0,0.5,0.1
	c0.1,0.1,0.2,0.3,0.2,0.6v4.5H45.9z M50.4,28.3c-0.1,0.1-0.2,0.2-0.3,0.2c-0.1,0.1-0.2,0.1-0.4,0.2c-0.1,0-0.3,0.1-0.5,0.1
	c-0.1,0-0.2,0-0.3,0c-0.1,0-0.2-0.1-0.3-0.1c-0.1-0.1-0.1-0.2-0.2-0.3c0-0.1-0.1-0.3-0.1-0.5c0-0.2,0-0.4,0.1-0.6
	c0.1-0.1,0.2-0.3,0.3-0.3c0.1-0.1,0.3-0.1,0.4-0.2c0.2,0,0.4-0.1,0.6-0.1l0.6,0V28.3z M51.7,29.7v-4.3c0-0.4-0.1-0.8-0.2-1
	c-0.1-0.3-0.3-0.5-0.5-0.6c-0.2-0.1-0.4-0.2-0.7-0.3c-0.3-0.1-0.5-0.1-0.8-0.1c-0.3,0-0.5,0-0.8,0.1c-0.2,0-0.5,0.1-0.6,0.1
	c-0.2,0-0.4,0.1-0.6,0.2v1.1c0,0,0.1,0,0.2-0.1c0.1,0,0.3-0.1,0.4-0.1c0.2,0,0.4-0.1,0.6-0.1c0.2,0,0.4,0,0.6,0c0.2,0,0.3,0,0.4,0
	c0.1,0,0.2,0.1,0.3,0.1c0.1,0.1,0.2,0.1,0.2,0.2c0,0.1,0.1,0.3,0.1,0.4v0.6h-1c-0.2,0-0.5,0-0.8,0.1c-0.3,0-0.5,0.1-0.8,0.3
	c-0.2,0.1-0.4,0.3-0.6,0.6c-0.1,0.3-0.2,0.6-0.2,1s0.1,0.8,0.2,1c0.1,0.3,0.3,0.5,0.4,0.6c0.2,0.1,0.4,0.2,0.6,0.3
	c0.2,0,0.4,0.1,0.6,0.1c0.3,0,0.5,0,0.7-0.1c0.2-0.1,0.4-0.2,0.5-0.3c0.1-0.1,0.3-0.2,0.4-0.4l0.2,0.6H51.7z M54.8,21.2h-1.3v8.4
	h1.3V21.2z M58.4,29.7l-2.1-3.6l1.8-2.6h-1.6L55,26.1l1.9,3.7L58.4,29.7z M62.1,26.1h-2.2c0-0.7,0.1-1.1,0.3-1.4
	c0.2-0.3,0.5-0.4,0.9-0.4c0.3,0,0.6,0.1,0.8,0.4C62,25,62.1,25.5,62.1,26.1 M63.4,26.6c0-0.7,0-1.2-0.2-1.6c-0.1-0.4-0.3-0.7-0.5-1
	c-0.2-0.2-0.5-0.4-0.8-0.5c-0.3-0.1-0.6-0.1-0.8-0.1c-0.3,0-0.6,0-0.9,0.1c-0.3,0.1-0.6,0.3-0.8,0.5c-0.2,0.2-0.4,0.6-0.6,1
	c-0.1,0.4-0.2,0.9-0.2,1.6c0,0.7,0.1,1.3,0.2,1.7c0.2,0.4,0.4,0.8,0.6,1c0.3,0.2,0.6,0.4,0.9,0.4c0.3,0.1,0.6,0.1,1,0.1
	c0.2,0,0.4,0,0.6,0c0.2,0,0.4-0.1,0.6-0.1c0.2,0,0.3-0.1,0.5-0.2v-1.1c-0.2,0.1-0.4,0.1-0.6,0.2c-0.2,0-0.4,0.1-0.6,0.1
	c-0.2,0-0.4,0-0.6,0c-0.1,0-0.3,0-0.5,0c-0.2,0-0.3-0.1-0.5-0.2c-0.1-0.1-0.3-0.3-0.4-0.5c-0.1-0.2-0.1-0.5-0.1-0.9h3.5L63.4,26.6z
	 M68.2,27.2c-0.1-0.2-0.2-0.4-0.3-0.5c-0.1-0.1-0.2-0.3-0.4-0.3c-0.2-0.1-0.3-0.2-0.5-0.2l-0.6-0.2c-0.1,0-0.2-0.1-0.3-0.1
	c-0.1,0-0.2-0.1-0.3-0.1c-0.1-0.1-0.1-0.1-0.2-0.2c0-0.1-0.1-0.2-0.1-0.3c0-0.2,0.1-0.4,0.3-0.5c0.2-0.1,0.4-0.1,0.7-0.1
	c0.1,0,0.3,0,0.5,0c0.2,0,0.3,0.1,0.5,0.1c0.1,0,0.3,0.1,0.5,0.1v-1.1c-0.2-0.1-0.3-0.1-0.4-0.1c-0.1,0-0.3-0.1-0.5-0.1
	c-0.2,0-0.4,0-0.6,0c-0.3,0-0.6,0-0.8,0.1c-0.3,0.1-0.5,0.2-0.7,0.3c-0.2,0.1-0.4,0.3-0.5,0.6c-0.1,0.2-0.2,0.5-0.2,0.8
	c0,0.3,0,0.5,0.1,0.7c0.1,0.2,0.2,0.4,0.3,0.5c0.1,0.1,0.3,0.2,0.4,0.3c0.1,0.1,0.3,0.2,0.4,0.2l0.5,0.2c0.1,0,0.2,0.1,0.3,0.1
	c0.1,0,0.2,0.1,0.3,0.2c0.1,0.1,0.1,0.1,0.2,0.2c0,0.1,0.1,0.2,0.1,0.3c0,0.2,0,0.3-0.1,0.4c-0.1,0.1-0.1,0.2-0.2,0.2
	c-0.1,0.1-0.2,0.1-0.3,0.1c-0.1,0-0.3,0-0.4,0c-0.1,0-0.3,0-0.4,0c-0.2,0-0.3-0.1-0.5-0.1c-0.2,0-0.3-0.1-0.6-0.2v1.1
	c0.2,0.1,0.4,0.1,0.5,0.1c0.2,0,0.3,0.1,0.5,0.1c0.2,0,0.4,0,0.5,0c0.3,0,0.5,0,0.8-0.1c0.3,0,0.5-0.1,0.7-0.3
	c0.2-0.1,0.4-0.3,0.5-0.6c0.1-0.2,0.2-0.6,0.2-1C68.3,27.6,68.3,27.4,68.2,27.2 M73.7,23.5h-1.3v6.2h1.3V23.5z M73.6,21.1
	c-0.2-0.2-0.4-0.2-0.6-0.2c-0.2,0-0.4,0.1-0.6,0.2c-0.2,0.2-0.2,0.4-0.2,0.6c0,0.2,0.1,0.4,0.2,0.6c0.2,0.2,0.3,0.2,0.6,0.2
	c0.2,0,0.4-0.1,0.6-0.2c0.2-0.2,0.2-0.4,0.2-0.6C73.8,21.5,73.8,21.3,73.6,21.1 M78.7,29.6v-1.1c-0.2,0-0.3,0.1-0.4,0.1
	c-0.1,0-0.2,0-0.4,0.1c-0.1,0-0.2,0-0.3,0c-0.2,0-0.3,0-0.4-0.1c-0.1-0.1-0.1-0.2-0.1-0.4v-3.8h1.3l0.1-1h-1.4v-1.9l-1.2,0.5
	l-0.1,1.4h-1v1h1v3.8c0,0.3,0,0.6,0.1,0.8c0.1,0.2,0.2,0.4,0.3,0.5c0.1,0.1,0.3,0.2,0.5,0.2c0.2,0,0.4,0.1,0.6,0.1
	c0.2,0,0.4,0,0.7-0.1c0.2,0,0.4-0.1,0.5-0.1C78.6,29.6,78.7,29.6,78.7,29.6 M88.1,29.7v-4.5c0-0.4,0-0.6-0.1-0.9
	c-0.1-0.2-0.2-0.4-0.4-0.6c-0.2-0.1-0.3-0.2-0.5-0.3c-0.2-0.1-0.4-0.1-0.7-0.1c-0.3,0-0.5,0-0.8,0.1c-0.2,0.1-0.4,0.2-0.6,0.3
	c-0.2,0.1-0.4,0.2-0.6,0.4v-2.9h-1.3v8.4h1.3v-4.6c0.2-0.1,0.4-0.2,0.5-0.3c0.2-0.1,0.3-0.1,0.5-0.2c0.2-0.1,0.4-0.1,0.5-0.1
	c0.3,0,0.5,0,0.6,0.1c0.1,0.1,0.2,0.3,0.2,0.6v4.5H88.1z M92.6,28.3c-0.1,0.1-0.2,0.2-0.3,0.2c-0.1,0.1-0.2,0.1-0.4,0.2
	c-0.1,0-0.3,0.1-0.5,0.1c-0.1,0-0.2,0-0.3,0c-0.1,0-0.2-0.1-0.3-0.1c-0.1-0.1-0.1-0.2-0.2-0.3c0-0.1-0.1-0.3-0.1-0.5
	c0-0.2,0-0.4,0.1-0.6c0.1-0.1,0.2-0.3,0.3-0.3c0.1-0.1,0.3-0.1,0.4-0.2c0.2,0,0.4-0.1,0.6-0.1l0.6,0V28.3z M93.9,29.7v-4.3
	c0-0.4-0.1-0.8-0.2-1s-0.3-0.5-0.5-0.6c-0.2-0.1-0.4-0.2-0.7-0.3c-0.3-0.1-0.5-0.1-0.8-0.1c-0.3,0-0.5,0-0.8,0.1
	c-0.2,0-0.5,0.1-0.6,0.1c-0.2,0-0.4,0.1-0.6,0.2v1.1c0,0,0.1,0,0.2-0.1c0.1,0,0.3-0.1,0.4-0.1c0.2,0,0.4-0.1,0.6-0.1
	c0.2,0,0.4,0,0.6,0c0.2,0,0.3,0,0.4,0c0.1,0,0.2,0.1,0.3,0.1c0.1,0.1,0.2,0.1,0.2,0.2c0,0.1,0.1,0.3,0.1,0.4v0.6h-1
	c-0.2,0-0.5,0-0.8,0.1c-0.3,0-0.5,0.1-0.8,0.3c-0.2,0.1-0.4,0.3-0.6,0.6c-0.2,0.3-0.2,0.6-0.2,1s0.1,0.8,0.2,1
	c0.1,0.3,0.3,0.5,0.4,0.6c0.2,0.1,0.4,0.2,0.6,0.3s0.4,0.1,0.6,0.1c0.3,0,0.5,0,0.7-0.1c0.2-0.1,0.4-0.2,0.5-0.3
	c0.1-0.1,0.3-0.2,0.4-0.4l0.2,0.6H93.9z M99,27.7c-0.1,0.3-0.2,0.5-0.3,0.7c-0.1,0.2-0.3,0.3-0.4,0.3c-0.2,0-0.3,0.1-0.5,0.1
	c-0.1,0-0.2,0-0.3,0c-0.1,0-0.2,0-0.3-0.1c-0.1,0-0.2,0-0.3-0.1c-0.1,0-0.1,0-0.1,0v-3.8c0,0,0.1-0.1,0.2-0.1
	c0.1-0.1,0.2-0.1,0.3-0.2c0.1-0.1,0.2-0.1,0.4-0.1c0.1,0,0.3-0.1,0.4-0.1c0.2,0,0.3,0,0.5,0.1s0.3,0.1,0.4,0.3
	c0.1,0.1,0.2,0.4,0.2,0.6c0.1,0.3,0.1,0.7,0.1,1.2C99.1,27,99,27.4,99,27.7 M100.2,24.8c-0.2-0.4-0.3-0.7-0.6-1s-0.5-0.4-0.7-0.4
	c-0.3-0.1-0.5-0.1-0.8-0.1c-0.2,0-0.4,0-0.6,0.1c-0.2,0.1-0.3,0.1-0.4,0.2c-0.1,0.1-0.2,0.2-0.3,0.2c-0.1,0.1-0.1,0.1-0.2,0.2
	l-0.2-0.6h-1v8.4h1.3v-2.4c0,0,0.1,0,0.1,0.1c0.1,0,0.2,0.1,0.3,0.1c0.1,0,0.2,0.1,0.3,0.1c0.1,0,0.3,0,0.4,0c0.1,0,0.3,0,0.5,0
	c0.2,0,0.4-0.1,0.6-0.1c0.2-0.1,0.4-0.2,0.6-0.3c0.2-0.1,0.3-0.3,0.5-0.6c0.1-0.2,0.3-0.5,0.4-0.9c0.1-0.4,0.1-0.8,0.1-1.3
	C100.4,25.8,100.3,25.2,100.2,24.8 M104.8,27.7c-0.1,0.3-0.2,0.5-0.3,0.7c-0.1,0.2-0.3,0.3-0.4,0.3c-0.2,0-0.3,0.1-0.5,0.1
	c-0.1,0-0.2,0-0.3,0c-0.1,0-0.2,0-0.3-0.1c-0.1,0-0.2,0-0.3-0.1c-0.1,0-0.1,0-0.1,0v-3.8c0,0,0.1-0.1,0.2-0.1
	c0.1-0.1,0.2-0.1,0.3-0.2c0.1-0.1,0.2-0.1,0.4-0.1c0.1,0,0.3-0.1,0.4-0.1c0.2,0,0.3,0,0.5,0.1c0.1,0,0.3,0.1,0.4,0.3
	c0.1,0.1,0.2,0.4,0.2,0.6s0.1,0.7,0.1,1.2C104.9,27,104.8,27.4,104.8,27.7 M106,24.8c-0.1-0.4-0.3-0.7-0.6-1s-0.5-0.4-0.7-0.4
	c-0.3-0.1-0.5-0.1-0.8-0.1c-0.2,0-0.4,0-0.6,0.1c-0.2,0.1-0.3,0.1-0.4,0.2c-0.1,0.1-0.2,0.2-0.3,0.2c-0.1,0.1-0.1,0.1-0.2,0.2
	l-0.2-0.6h-1v8.4h1.3v-2.4c0,0,0.1,0,0.1,0.1c0.1,0,0.2,0.1,0.3,0.1c0.1,0,0.2,0.1,0.3,0.1c0.1,0,0.3,0,0.4,0c0.1,0,0.3,0,0.5,0
	c0.2,0,0.4-0.1,0.6-0.1c0.2-0.1,0.4-0.2,0.6-0.3c0.2-0.1,0.3-0.3,0.5-0.6c0.1-0.2,0.3-0.5,0.4-0.9c0.1-0.4,0.1-0.8,0.1-1.3
	C106.2,25.8,106.1,25.2,106,24.8 M110.9,26.1h-2.2c0-0.7,0.1-1.1,0.3-1.4c0.2-0.3,0.5-0.4,0.9-0.4c0.3,0,0.6,0.1,0.8,0.4
	C110.8,25,110.9,25.5,110.9,26.1 M112.2,26.6c0-0.7,0-1.2-0.2-1.6s-0.3-0.7-0.5-1c-0.2-0.2-0.5-0.4-0.8-0.5
	c-0.3-0.1-0.6-0.1-0.8-0.1c-0.3,0-0.6,0-0.9,0.1c-0.3,0.1-0.6,0.3-0.8,0.5c-0.2,0.2-0.4,0.6-0.6,1c-0.1,0.4-0.2,0.9-0.2,1.6
	c0,0.7,0.1,1.3,0.2,1.7c0.2,0.4,0.4,0.8,0.6,1c0.3,0.2,0.6,0.4,0.9,0.4c0.3,0.1,0.6,0.1,1,0.1c0.2,0,0.4,0,0.7,0
	c0.2,0,0.4-0.1,0.5-0.1c0.2,0,0.3-0.1,0.5-0.2v-1.1c-0.2,0.1-0.4,0.1-0.6,0.2c-0.2,0-0.4,0.1-0.6,0.1c-0.2,0-0.4,0-0.6,0
	c-0.1,0-0.3,0-0.5,0c-0.2,0-0.3-0.1-0.5-0.2c-0.1-0.1-0.3-0.3-0.4-0.5c-0.1-0.2-0.1-0.5-0.1-0.9h3.5L112.2,26.6z M118.2,29.7v-4.5
	c0-0.4,0-0.6-0.1-0.9c-0.1-0.2-0.2-0.4-0.4-0.6c-0.2-0.1-0.3-0.2-0.5-0.3c-0.2-0.1-0.4-0.1-0.7-0.1c-0.3,0-0.5,0-0.8,0.1
	c-0.2,0.1-0.5,0.2-0.6,0.3c-0.2,0.1-0.4,0.2-0.6,0.4l-0.2-0.7h-1.1v6.2h1.3V25c0.2-0.1,0.3-0.2,0.5-0.3c0.1-0.1,0.3-0.1,0.5-0.2
	c0.2-0.1,0.4-0.1,0.6-0.1c0.1,0,0.2,0,0.3,0c0.1,0,0.2,0,0.3,0.1c0.1,0,0.1,0.1,0.2,0.2c0,0.1,0.1,0.2,0.1,0.4v4.5H118.2z"/>
</svg>
