<?xml version="1.0" encoding="utf-8"?>
<!-- Generator: Adobe Illustrator 23.0.1, SVG Export Plug-In . SVG Version: 6.00 Build 0)  -->
<svg version="1.1" id="Layer_1" xmlns="http://www.w3.org/2000/svg" xmlns:xlink="http://www.w3.org/1999/xlink" x="0px" y="0px"
	 viewBox="0 0 516.1 328.8" style="enable-background:new 0 0 516.1 328.8;" xml:space="preserve">
<style type="text/css">
	.st0{opacity:0.66;fill:#FFFFFF;}
	.st1{fill:#FFFFFF;}
	.st2{opacity:0.66;}
</style>
<g>
	<g>
		<g>
			<g>
				<g>
					<g>
						<g>
							<path class="st0" d="M186.9,179.3c-25,6.8-48.8,10.2-71.5,10.2c-22.5,0-42.4-4.1-59.9-12.4c-17.5-8.3-31.1-19.5-40.9-33.6
								C4.9,129.3,0,113.2,0,95.2c0-27.1,11.1-49.6,33.2-67.6C55.4,9.7,82.1,0.7,113.4,0.7c23.2,0,47.7,3.5,73.5,10.6v28.8
								c-26-9.4-49.3-14.1-69.8-14.1c-13.6,0-26.5,2.7-38.5,8c-12,5.4-21.3,13.7-27.9,25C44.3,70.5,41,82.2,41,94.2
								c0,15.9,6.3,31.1,18.9,45.7c12.6,14.6,32.4,21.8,59.4,21.8c8.1,0,16.1-0.5,24-1.4c7.9-0.9,22.4-4.2,43.6-9.9V179.3"/>
							<path class="st0" d="M263.3,145c-11.7-12.2-17.5-29.2-17.5-50.8c0-21.3,5.8-38.1,17.5-50.4c11.6-12.3,27.3-18.5,47.1-18.5
								c19.7,0,35.4,6.2,47,18.5c11.6,12.3,17.4,29.1,17.4,50.4c0,21.6-5.8,38.6-17.4,50.8c-11.6,12.2-27.3,18.4-47,18.4
								C290.6,163.4,274.9,157.2,263.3,145 M387,161.9c19.2-17.8,28.8-40.4,28.8-67.6c0-27.2-9.6-49.7-28.8-67.6
								C367.9,8.9,342.3,0,310.4,0c-32,0-57.6,8.9-76.8,26.7c-19.2,17.8-28.8,40.3-28.8,67.6c0,27.2,9.6,49.8,28.8,67.6
								c19.2,17.9,44.7,26.9,76.8,26.9C342.3,188.7,367.9,179.8,387,161.9"/>
							<polyline class="st1" points="65.5,324.5 0.3,204.7 27.4,204.7 79.1,299.8 131.4,204.7 156.4,204.7 90.7,324.5 65.5,324.5 
															"/>
							<path class="st1" d="M186.1,228.2c7.4-5.8,16.2-8.7,26.3-8.7c10.1,0,18,2.8,24.1,8.6c6,5.6,9,13.3,9,22.8v2.9h-74.7
								C173.6,242.5,178.7,233.9,186.1,228.2 M270.4,299.1c-19.5,8.5-37.3,12.8-53.4,12.8c-9.1,0-17.1-1.7-24.2-5.1
								c-7.1-3.3-12.7-8.5-17.1-15.3c-4.3-6.9-6.5-14.5-6.5-22.7h103.3v-4.3c0-21.1-5.4-36.6-16.2-46.7
								c-10.8-10.1-25.1-15.2-42.9-15.2c-13.5,0-25.7,2.9-36.6,8.5c-10.9,5.6-19.4,13.4-25.5,23.5c-6.1,10-9.2,20.5-9.2,31.5
								c0,11.3,3.2,22,9.6,31.9c6.4,9.9,14.9,17.6,25.6,23c10.7,5.3,22.8,8,36.3,8c17.9,0,36.7-3.8,56.7-11.5V299.1z"/>
							<path class="st1" d="M294.5,121.9c0,0,20.2-9.6,38.4-24.3c18.9-15.2,27.2-26.2,27.2-26.2h-41.8c0,0-18.1,20.8-32.3,32.3
								c-12.5,10.1-24.7,18.2-24.7,18.2H294.5"/>
							<path class="st1" d="M360.9,299.3c-9.4,6.3-17.9,9.4-25.6,9.4c-7.1,0-13.4-3-18.9-8.9c-5.6-6-8.3-14.9-8.3-26.7
								c0-16.2,5-29.1,15.2-38.5c10.1-9.4,22.9-14.2,38.1-14.2c7.6,0,15.7,1,24.5,2.8v51C378.5,284.7,370.1,293.1,360.9,299.3
								 M389.9,324.6h25.9c-3.3-9-4.9-20.8-4.9-35.4v-84.4h-25c-2.8-0.2-4.9-0.3-6.3-0.5c-9.5-0.8-16.7-1.1-21.4-1.1
								c-16.4,0-30.1,3.2-41.2,9.5c-11.1,6.4-20,15-26.5,25.9c-6.6,10.9-10,23.2-10,37c0,17.6,5,30.7,14.9,39.3
								c10,8.6,21.2,12.9,33.6,12.9c8.9,0,18.7-2.5,29.3-7.5c10.6-5.1,19.8-12.7,27.3-22.7C386.7,309,388.2,318,389.9,324.6"/>
						</g>
					</g>
				</g>
			</g>
		</g>
	</g>
	<g class="st2">
		<path class="st1" d="M452.7,324.7v-8.3H515v8.3H452.7z"/>
		<path class="st1" d="M477.9,301.2v-0.5c-5.5-3.8-9.6-9.5-9.6-16.4c0-8.1,6.4-12.7,13.2-12.7H515v8.3h-32.5c-4.4,0-7,2.6-7,6.4
			c0,6.4,4.8,11.3,9.9,14.5H515v8.3h-45.7v-8.3L477.9,301.2z"/>
		<path class="st1" d="M505.8,266.1c2.1-4,4-9.4,4-14c0-4-2.1-8.4-6.7-8.4c-9.6,0-6.7,22.1-22,22.1c-8.6,0-12.8-6.4-12.8-15.8
			c0-3.7,0.6-6.6,1.4-11.2h6.9c-1.1,3.6-2.1,7.3-2.1,11.1c0,3.6,1.5,8.1,5.8,8.1c8.4,0,7.1-22.7,21.8-22.7c9.6,0,13.9,8.6,13.9,17.1
			c0,4.4-1.3,9.4-2.6,13.5H505.8z"/>
		<path class="st1" d="M515,201.4l-8.5-0.5v0.5c5.5,3.8,9.6,9.5,9.6,16.4c0,8.1-6.4,12.8-13.2,12.8h-33.5v-8.3h32.5
			c4.4,0,7-2.6,7-6.4c0-6.4-4.8-11.3-9.9-14.5h-29.5v-8.3H515V201.4z"/>
		<path class="st1" d="M477.9,177.4v-0.5c-5.6-2.9-9.6-8-9.6-14.5v-2.5h7.9c-0.4,1.2-0.7,2.4-0.7,3.7c0,6,4.3,10.6,9.4,13.3H515v8.3
			h-45.7v-8.3L477.9,177.4z"/>
		<path class="st1" d="M514.8,119.4c0.9,1.7,1.3,4.2,1.3,6.1c0,4.1-2.8,7-6.8,7.7c3.6,3.6,6.8,8.6,6.8,14c0,7.5-5,13.4-12.6,13.4
			c-8.3,0-15.5-7.1-15.5-23.1v-3.3h-3.1c-6.5,0-10.3,0.9-10.3,8.4c0,4.7,1.9,9.9,4,14h-6.8c-2.2-5.1-3.4-10.4-3.4-15.9
			c0-9.6,4.5-14.7,13.5-14.7h20.3c3.4,0,8.1,0.3,7.9-4.4V120L514.8,119.4z M492.9,133.6v4c0,4.9,2.1,14.1,9.4,14.1
			c4.1,0,7.1-3.4,7.1-7.5c0-3.9-2.2-7.7-4.7-10.6H492.9z"/>
		<path class="st1" d="M477.9,108.6v-0.5c-5.5-3.8-9.6-9.5-9.6-16.4c0-8.1,6.4-12.8,13.2-12.8H515v8.3h-32.5c-4.4,0-7,2.6-7,6.4
			c0,6.4,4.8,11.3,9.9,14.5H515v8.3h-45.7v-8.3L477.9,108.6z"/>
		<path class="st1" d="M476.8,39.7c-1.3,3.9-2.2,7.9-2.2,12.1c0,9.9,9,14,17.7,14c9.3,0,17.6-4.4,17.6-14.6c0-4.1-1-8.3-2.8-11.9
			h6.6c1.3,4.4,2.4,9,2.4,13.5c0,18.7-16.4,21.8-23.9,21.8c-10.2,0-23.9-4.7-23.9-21.8c0-4.4,0.6-8.8,1.5-13H476.8z"/>
		<path class="st1" d="M493.5,28.6c9.6-0.3,16.4-5.3,16.4-15.3c0-4.6-1-8.8-3-13h6.6c1.5,4.6,2.6,9.5,2.6,15.3
			c0,18.7-16.4,21.8-23.9,21.8c-11.9,0-23.9-6.5-23.9-19.6c0-14.4,13.4-17.9,25.2-17.5V28.6z M487.8,9c-6.2-0.2-13.3,1.7-13.3,9.2
			c0,7.1,7.1,9.7,13.3,10.1V9z"/>
	</g>
</g>
</svg>
