<?xml version="1.0" encoding="utf-8"?>
<!-- Generator: Adobe Illustrator 23.0.1, SVG Export Plug-In . SVG Version: 6.00 Build 0)  -->
<svg version="1.1" id="Layer_1" xmlns="http://www.w3.org/2000/svg" xmlns:xlink="http://www.w3.org/1999/xlink" x="0px" y="0px"
	 viewBox="0 0 250 62.8" style="enable-background:new 0 0 250 62.8;" xml:space="preserve">
<style type="text/css">
	.st0{fill:#FFFFFF;}
</style>
<g>
	<path class="st0" d="M0.7,23.9V1.7h5.7c2.9,0,4.9,0.6,6.5,1.6c2.6,1.6,4.5,4.5,4.5,9.4c0,7-4,11.3-11.7,11.3H0.7z M6,21.2
		c5,0,7.5-3.3,7.5-8.6c0-4.8-2.1-8.2-7.5-8.2H4.4v16.7H6z"/>
	<path class="st0" d="M32.2,23.2c-1.1,0.5-2.9,1-5,1c-5.1,0-7.5-3.5-7.5-8.3c0-5,2.6-8.5,6.9-8.5c3.8,0,6.5,2.5,6.5,8.2v1.1h-9.9
		c0,3.3,1.4,5,4.6,5c2,0,3.4-0.7,4.3-1.3L32.2,23.2z M29.6,14.4c0-3.1-1-4.7-3.1-4.7c-2,0-3.3,1.7-3.3,4.7H29.6z"/>
	<path class="st0" d="M45.8,23.9c0-0.4-0.1-2-0.1-2.5h-0.1c-0.8,1.5-2.1,2.7-4.5,2.7c-3.5,0-5.1-2.2-5.1-5.7V7.6h3.5v10.2
		c0,2.6,0.9,3.6,2.7,3.6c2.2,0,3.2-1.7,3.2-4.2V7.6H49v13.2c0,1.1,0.1,2.2,0.1,3.1H45.8z"/>
	<path class="st0" d="M61.3,23.7c-0.6,0.3-1.6,0.5-2.6,0.5c-2.8,0-4.4-1.1-4.4-4.3v-9.7h-2.8V7.6h2.8V4.2l3.5-1v4.3h3.5v2.6h-3.5
		v9.1c0,1.8,0.6,2.4,1.8,2.4c0.7,0,1.3-0.2,1.7-0.4V23.7z"/>
	<path class="st0" d="M64,20.4c1,0.5,2.5,1.1,4.2,1.1c1.8,0,3-0.7,3-1.9c0-0.9-0.5-1.6-2-2.3l-1.8-0.9c-2.1-1-3.5-2.1-3.5-4.4
		c0-2.5,2.3-4.7,5.8-4.7c1.8,0,3.3,0.4,4,0.6l-0.2,2.7c-0.9-0.4-2.1-0.7-3.6-0.7c-1.8,0-2.6,0.8-2.6,1.9c0,1.1,0.9,1.6,2.4,2.4
		l1.5,0.8c2.1,1.1,3.4,2.2,3.4,4.2c0,2.9-2.1,4.9-6,4.9c-2,0-3.7-0.4-4.8-0.9L64,20.4z"/>
	<path class="st0" d="M88.8,23.5c-0.9,0.4-2.4,0.7-3.9,0.7c-5.4,0-7.9-3.7-7.9-8.3c0-5,2.7-8.5,8.1-8.5c1.3,0,2.7,0.3,3.5,0.6
		l-0.2,2.8c-0.8-0.4-1.9-0.8-3.1-0.8c-3,0-4.7,1.9-4.7,5.9c0,3.4,1.7,5.6,4.7,5.6c1.2,0,2.4-0.4,3.2-0.8L88.8,23.5z"/>
	<path class="st0" d="M100.9,23.9V13.8c0-2.6-0.8-3.6-2.6-3.6c-2.2,0-3.3,1.6-3.3,4.1v9.7h-3.5V0H95v9.7h0.1c0.7-1.2,2-2.4,4.3-2.4
		c3.5,0,5.1,2.2,5.1,5.7v10.9H100.9z"/>
	<path class="st0" d="M120.3,23.2c-1.1,0.5-2.9,1-5,1c-5.1,0-7.5-3.5-7.5-8.3c0-5,2.6-8.5,6.9-8.5c3.8,0,6.5,2.5,6.5,8.2v1.1h-9.9
		c0,3.3,1.4,5,4.6,5c2,0,3.4-0.7,4.3-1.3L120.3,23.2z M117.8,14.4c0-3.1-1-4.7-3.1-4.7c-2,0-3.3,1.7-3.3,4.7H117.8z"/>
	<path class="st0" d="M131.6,23.9V1.7h6.2c2.4,0,4.1,0.6,5.3,1.8c1.2,1.1,1.9,2.7,1.9,4.8c0,4.3-2.6,6.7-7.5,6.7h-2.2v9H131.6z
		 M136.8,12.2c3.1,0,4.4-1.4,4.4-3.9c0-2.7-1.5-4-4.4-4h-1.7v7.8H136.8z"/>
	<path class="st0" d="M146,15.7c0-5.9,3.2-8.4,7.3-8.4c4.1,0,7.3,2.5,7.3,8.4c0,6-3.2,8.4-7.3,8.4C149.2,24.2,146,21.7,146,15.7z
		 M156.9,15.7c0-3.4-0.9-5.9-3.7-5.9c-2.7,0-3.7,2.5-3.7,5.9c0,3.4,0.9,5.9,3.7,5.9C156,21.7,156.9,19.2,156.9,15.7z"/>
	<path class="st0" d="M163.4,20.4c1,0.5,2.5,1.1,4.2,1.1c1.8,0,3-0.7,3-1.9c0-0.9-0.5-1.6-2-2.3l-1.8-0.9c-2.1-1-3.5-2.1-3.5-4.4
		c0-2.5,2.3-4.7,5.8-4.7c1.8,0,3.3,0.4,4,0.6l-0.2,2.7c-0.9-0.4-2.1-0.7-3.6-0.7c-1.8,0-2.6,0.8-2.6,1.9c0,1.1,0.9,1.6,2.4,2.4
		l1.5,0.8c2.1,1.1,3.4,2.2,3.4,4.2c0,2.9-2.1,4.9-6,4.9c-2,0-3.7-0.4-4.8-0.9L163.4,20.4z"/>
	<path class="st0" d="M185.5,23.7c-0.6,0.3-1.6,0.5-2.6,0.5c-2.8,0-4.4-1.1-4.4-4.3v-9.7h-2.8V7.6h2.8V4.2l3.5-1v4.3h3.5v2.6h-3.5
		v9.1c0,1.8,0.6,2.4,1.8,2.4c0.7,0,1.3-0.2,1.7-0.4V23.7z"/>
	<path class="st0" d="M198.8,23.9V1.7h5.7c2.9,0,4.9,0.6,6.5,1.6c2.6,1.6,4.5,4.5,4.5,9.4c0,7-4,11.3-11.7,11.3H198.8z M204.1,21.2
		c5,0,7.5-3.3,7.5-8.6c0-4.8-2.1-8.2-7.5-8.2h-1.6v16.7H204.1z"/>
	<path class="st0" d="M230.6,23.9V13.9H223v10.1h-3.7V1.7h3.7v9.3h7.6V1.7h3.7v22.3H230.6z"/>
	<path class="st0" d="M238.6,23.9V1.7h3.7v19.4h7.8v2.8H238.6z"/>
	<path class="st0" d="M13.8,46.3H10v-2.8h7.2V55c-1.3,0.5-3.5,1.1-6.1,1.1C3.6,56.1,0,51,0,44.7c0-6.8,4.2-11.4,11-11.4
		c2.4,0,4.4,0.4,5.7,1l-0.1,3.2c-1.6-0.8-3.5-1.4-5.5-1.4c-4.2,0-7.2,3.2-7.2,8.3c0,5.4,2.4,8.9,7.2,8.9c1,0,2.1-0.2,2.7-0.5V46.3z"
		/>
	<path class="st0" d="M21.5,55.9V42.6c0-1.1-0.1-2.2-0.1-3.1h3.2c0,0.5,0.1,2.3,0.1,2.8h0.1c0.7-1.6,2.1-3,4.7-3c0.1,0,0.3,0,0.3,0
		v3.2c-0.3-0.1-0.7-0.1-1.1-0.1c-2,0-3.7,1.4-3.7,4.7v8.8H21.5z"/>
	<path class="st0" d="M31.5,47.7c0-5.9,3.2-8.4,7.3-8.4c4.1,0,7.3,2.5,7.3,8.4c0,6-3.2,8.4-7.3,8.4C34.8,56.1,31.5,53.7,31.5,47.7z
		 M42.5,47.7c0-3.4-0.9-5.9-3.7-5.9c-2.7,0-3.7,2.5-3.7,5.9c0,3.4,0.9,5.9,3.7,5.9C41.5,53.6,42.5,51.1,42.5,47.7z"/>
	<path class="st0" d="M59.3,55.9c0-0.4-0.1-2-0.1-2.5h-0.1c-0.8,1.5-2.1,2.7-4.5,2.7c-3.5,0-5.1-2.2-5.1-5.7V39.5H53v10.2
		c0,2.6,0.9,3.6,2.7,3.6c2.2,0,3.2-1.7,3.2-4.2v-9.6h3.5v13.2c0,1.1,0.1,2.2,0.1,3.1H59.3z"/>
	<path class="st0" d="M66.4,62.8V42.4c0-1.1-0.1-2.1-0.1-2.9h3.3c0,0.2,0.1,1.9,0.1,2.5h0.1c0.7-1.3,2-2.7,4.6-2.7
		c3.9,0,6,3.3,6,8.4c0,5.5-2.3,8.4-6,8.4c-2.2,0-3.6-1-4.4-2.5h-0.1v9.2H66.4z M76.9,47.8c0-3.9-0.9-6-3.4-6s-3.6,2.3-3.6,5.9
		c0,3.6,1,5.9,3.5,5.9C75.9,53.6,76.9,51.5,76.9,47.8z"/>
</g>
</svg>
