<?xml version="1.0" encoding="utf-8"?>
<!-- Generator: Adobe Illustrator 23.0.1, SVG Export Plug-In . SVG Version: 6.00 Build 0)  -->
<svg version="1.1" id="Layer_1" xmlns="http://www.w3.org/2000/svg" xmlns:xlink="http://www.w3.org/1999/xlink" x="0px" y="0px"
	 viewBox="0 0 250 42.7" style="enable-background:new 0 0 250 42.7;" xml:space="preserve">
<style type="text/css">
	.st0{fill:#FFFFFF;}
</style>
<path class="st0" d="M19.8,21.3c0-7.7-6.1-13.8-13.8-13.8H0v27.6h6C13.6,35.1,19.8,29,19.8,21.3 M30.6,25.8l-9.8,16.9h19.5
	L30.6,25.8z M30.6,16.9L40.3,0H20.8L30.6,16.9z M41.3,21.3c0,7.7,6.1,13.8,13.8,13.8h6V7.5h-6C47.4,7.5,41.3,13.6,41.3,21.3
	 M244.8,30.9c-0.9,2.4-2.1,3.5-4.8,3.5c-0.6,0-1.1,0-1.6-0.1v-3c0.4,0.1,0.9,0.1,1.2,0.1c0.9,0,1.5-0.4,1.9-1.5l0.3-0.7L237,17.9
	h3.9l2.8,7l2.6-7h3.7L244.8,30.9 M229.5,26.4c-1.6,0-2.7-1.3-2.7-2.9c0-1.6,1.1-2.9,2.7-2.9c1.6,0,2.7,1.3,2.7,2.9
	C232.2,25.1,231.1,26.4,229.5,26.4 M235.8,29.4V17.9h-3.5v1.7c-0.7-1.2-2.1-2-3.6-2c-3.3,0-5.5,2.6-5.5,6c0,3.4,2.3,5.8,5.5,5.8
	c1.5,0,2.9-0.7,3.5-1.8v2c0,1.6-0.9,2.5-2.6,2.5c-1.5,0-2.3-0.7-2.5-1.7h-3.5c0.2,2.5,2.2,4.3,6,4.3
	C233.8,34.6,235.8,32.7,235.8,29.4 M215.8,26.4c-1.6,0-2.7-1.3-2.7-2.9c0-1.6,1.1-2.9,2.7-2.9c1.6,0,2.7,1.3,2.7,2.9
	C218.5,25.1,217.4,26.4,215.8,26.4 M215.8,29.5c3.9,0,6.3-2.7,6.3-6c0-3.2-2.3-6-6.3-6c-3.9,0-6.3,2.7-6.3,6
	C209.5,26.8,211.9,29.5,215.8,29.5 M204.2,29.2h3.6V12.8h-3.6V29.2z M196.2,26.4c-1.6,0-2.7-1.3-2.7-2.9c0-1.6,1.1-2.9,2.7-2.9
	s2.7,1.3,2.7,2.9C198.9,25.1,197.8,26.4,196.2,26.4 M196.2,29.5c3.9,0,6.3-2.7,6.3-6c0-3.2-2.3-6-6.3-6c-3.9,0-6.3,2.7-6.3,6
	C189.9,26.8,192.3,29.5,196.2,29.5 M176.9,29.2h3.6v-5.9c0-1.6,0.7-2.6,2.2-2.6c1.5,0,2,0.9,2,2.3v6.2h3.6v-6.5
	c0-3.2-1.4-5.1-4.3-5.1c-1.7,0-2.9,0.7-3.5,1.9v-1.6h-3.5V29.2z M163.3,29.2h3.6v-5.9c0-1.6,0.7-2.6,2.2-2.6c1.5,0,2,0.9,2,2.3v6.2
	h3.6v-6.5c0-3.2-1.4-5.1-4.3-5.1c-1.7,0-2.9,0.7-3.5,1.9v-6.7h-3.6V29.2z M161.7,22.3c-0.4-2.6-2.4-4.7-5.8-4.7
	c-3.8,0-6.2,2.7-6.2,6c0,3.2,2.3,6,6.2,6c3.4,0,5.4-2,5.8-4.7h-3.6c-0.3,1-1.1,1.6-2.2,1.6c-1.6,0-2.6-1.3-2.6-2.9c0-1.6,1-3,2.6-3
	c1.1,0,1.9,0.7,2.2,1.6H161.7z M142.7,20.1c1.4,0,2.2,0.9,2.4,2.2h-4.8C140.4,20.9,141.4,20.1,142.7,20.1 M148.3,25.8h-3.4
	c-0.4,0.7-1,1.2-2.1,1.2c-1.6,0-2.4-1-2.5-2.5h8.2c0.1-0.5,0.1-0.9,0.1-1.3c0-3-2.1-5.6-5.8-5.6c-3.9,0-6,2.7-6,6c0,3.3,2.1,6,6,6
	C145.9,29.5,147.8,27.9,148.3,25.8 M127.6,17.9v2.8h1.8v4.6c0,3.1,1.5,4.1,4.2,4.1c1,0,1.7-0.1,2.2-0.2v-2.9
	c-0.4,0.1-1.1,0.1-1.4,0.1c-0.9,0-1.4-0.3-1.4-1.4v-4.3h2.6v-2.8h-2.6v-3.4h-3.6v3.4H127.6z M122.7,27.1c0,1.2,1,2.3,2.3,2.3
	c1.3,0,2.3-1,2.3-2.3c0-1.2-1-2.3-2.3-2.3C123.7,24.9,122.7,25.9,122.7,27.1 M114,29.5c4.5,0,7-2.7,7.5-6.2h-3.7
	c-0.4,1.6-1.7,2.9-3.7,2.9c-2.8,0-4.3-2.3-4.3-4.9s1.5-4.9,4.3-4.9c2,0,3.3,1.2,3.7,2.9h3.7c-0.5-3.5-3-6.2-7.5-6.2
	c-5.1,0-8,3.9-8,8.2C106,25.6,108.9,29.5,114,29.5 M101.7,29.2h4.3l-5.1-7.9l5.1-7.8h-4.3l-3.1,5.2l-3.2-5.2h-4.3l5.1,7.8l-5.1,7.9
	h4.2l3.2-5.3L101.7,29.2z M82.9,16.6c2.9,0,4.6,2.3,4.6,4.7c0,2.4-1.7,4.7-4.6,4.7H81v-9.4H82.9z M77.3,29.2H83
	c5.3,0,8.2-3.9,8.2-7.9c0-4-3-7.9-8.2-7.9h-5.8V29.2z"/>
</svg>
