<?xml version="1.0" encoding="utf-8"?>
<!-- Generator: Adobe Illustrator 23.0.1, SVG Export Plug-In . SVG Version: 6.00 Build 0)  -->
<svg version="1.1" id="Layer_1" xmlns="http://www.w3.org/2000/svg" xmlns:xlink="http://www.w3.org/1999/xlink" x="0px" y="0px"
	 viewBox="0 0 250 176.5" style="enable-background:new 0 0 250 176.5;" xml:space="preserve">
<style type="text/css">
	.st0{fill:#FFFFFF;}
</style>
<g>
	<g>
		<path class="st0" d="M237.4,127c-2.8,0-5.8-0.1-8.9-0.1c-0.5,0-1,0.2-1.3,0.6c-8.6,9.8-20.6,18.4-34.6,24.9
			c-19.4,8.9-42.1,13.7-65.8,13.7h-0.1c-31.4,0-60.9-8.3-82.9-23.4C33.2,135.4,25,127,19.3,117.8c-5.8-9.4-8.8-19.3-8.8-29.6
			c0-10.2,2.9-20.1,8.8-29.5c8.6-13.9,23-25.9,41.8-34.5c19.4-8.9,42.1-13.7,65.8-13.7l0.1,0c31.5,0,60.9,8.4,82.9,23.4
			c6.1,4.2,11.5,8.8,16,13.7c0.3,0.4,0.8,0.6,1.3,0.6l3.9-0.1l5.2-0.1c0.7,0,1.3-0.4,1.6-1c0.3-0.6,0.2-1.3-0.2-1.9
			c-9.9-12.3-23.8-22.7-40.6-30.5C176.2,5.1,151.9,0,126.8,0c-33.5,0-65,8.9-88.9,25.2c-11.7,8-21,17.4-27.6,28
			C3.5,64.2,0,76,0,88.2c0,0,0,0,0,0c0,0,0,0,0,0c0,12.2,3.5,24,10.3,35c9.8,15.8,25.8,29.1,46.3,38.5c20.8,9.6,45.1,14.7,70.2,14.7
			h0c33.5,0,65-8.9,88.9-25.2c9.2-6.3,17-13.5,23.1-21.4c0.4-0.5,0.5-1.2,0.2-1.8C238.7,127.4,238.1,127,237.4,127z M49.8,132.1
			c20.3,13.9,47.6,21.4,77,21.4c29.3,0,56.7-7.6,77-21.4c1.2-0.8,2.3-1.6,3.4-2.4c0.6-0.5,0.8-1.2,0.6-1.9c-0.2-0.7-0.9-1.2-1.6-1.2
			c-30.5-0.6-62.9-0.5-78.1-1c-36.3-1.3-61.1-3.5-87.9-5.3c-0.7-0.1-1.4,0.4-1.7,1c-0.3,0.7-0.1,1.5,0.4,2
			C42.1,126.3,45.8,129.3,49.8,132.1z M205.7,47.3c0.2-0.7,0-1.5-0.7-2c-0.4-0.3-0.8-0.6-1.3-0.9c-20.3-13.9-47.6-21.4-77-21.4
			c-29.3,0-56.7,7.6-77,21.4c-2.7,1.9-5.3,3.8-7.7,5.9c-0.6,0.5-0.8,1.3-0.5,2c0.3,0.7,0.9,1.1,1.6,1.1c0,0,0.1,0,0.1,0
			c20-1.1,56.8-3.2,93.8-3.9c16.6-0.3,41.3-0.6,66.9-1C204.8,48.5,205.5,48,205.7,47.3z M40.1,90.7l3.5,0l0.1,0l1.9,0l1.8,0l3.7,0
			h0.3l0,0.3c0,1.6,0.1,3.2,0.2,4.8c0.1,1.6,0.2,3.2,0.3,4.8c0.1,1.7,0.3,3.3,0.5,4.8c0.1,1.3,0.3,2.7,0.5,4c0,0.3,0.3,0.6,0.7,0.6
			l1.9,0.1c0.9,0,1.8,0.1,2.8,0.1l2.8,0.1l1.7,0.1h0c0.2,0,0.4-0.1,0.5-0.2c0.1-0.2,0.2-0.4,0.2-0.6c-0.4-3.5-0.7-7.1-0.9-10.7
			c-0.2-3.9-0.4-7.9-0.4-11.8c0-3.9,0.1-7.9,0.4-11.8c0.2-3.5,0.5-7.1,0.9-10.7c0-0.2,0-0.4-0.2-0.6C63,64.1,62.8,64,62.6,64l-0.3,0
			l-1.4,0l-1.3,0l-1.5,0.1l-1.4,0.1l-1.4,0l-0.2,0l-1.7,0.1c-0.3,0-0.6,0.3-0.7,0.6c-0.2,1.2-0.3,2.4-0.5,3.6
			c-0.2,1.5-0.3,3-0.4,4.4c-0.1,1.4-0.2,2.9-0.3,4.4c-0.1,1.4-0.2,2.9-0.2,4.4l0,0.3l-0.3,0l-3.7,0l-2.4,0l-1.2,0l-3.6,0l-3.6,0
			l-0.3,0l0-0.3c0.1-1.4,0.1-2.9,0.2-4.3c0.1-1.5,0.2-2.9,0.4-4.3c0.2-1.4,0.3-2.9,0.5-4.4c0.1-1,0.3-2.1,0.5-3.2
			c0-0.2,0-0.4-0.2-0.6c-0.1-0.2-0.3-0.2-0.6-0.2L35.8,65l-2.6,0.1l-2.6,0.1l-1.4,0.1l-0.5,0c-0.3,0-0.6,0.3-0.7,0.6
			c-0.6,3.4-1.1,6.9-1.5,10.3c-0.4,3.7-0.5,7.4-0.5,11.1c0,3.7,0.2,7.4,0.5,11.1c0.3,3.4,0.8,6.9,1.5,10.3c0.1,0.3,0.3,0.6,0.7,0.6
			l1.8,0.1l2.6,0.1l2.6,0.1l0.2,0l1.2,0c0.2,0,0.4-0.1,0.6-0.2c0.1-0.2,0.2-0.4,0.2-0.6c-0.2-1.2-0.4-2.4-0.5-3.6
			c-0.2-1.5-0.4-3.1-0.6-4.8c-0.2-1.6-0.3-3.2-0.4-4.7c-0.1-1.6-0.2-3.2-0.2-4.7l0-0.3l0.3,0L40.1,90.7z M125.7,91.5
			c0-1.7,0-3.3,0-5c0-1.6,0-3.3,0-5c0-3.3,0-6.6,0-9.9c0-3,0-5.9,0-8.9c0-0.2-0.1-0.4-0.2-0.5c-0.1-0.1-0.3-0.2-0.5-0.2l-2.2,0.1
			l-3.2,0.1l-3.2,0.1l-1.6,0l-0.6,0c-0.4,0-0.7,0.3-0.7,0.7c-0.1,3.8-0.1,7.7-0.2,11.6c0,4.1-0.1,8.3-0.1,12.6c0,4.2,0,8.5,0.1,12.6
			c0,4,0.1,7.9,0.2,11.6c0,0.4,0.3,0.7,0.7,0.7l1.7,0.1l2.7,0.1l2.7,0.1l2.7,0.1l2.4,0.1l3.1,0.1l5.6,0.2l5.7,0.2
			c1.6,0,3.2,0.1,4.8,0.1h0c0.4,0,0.7-0.3,0.7-0.7c0-0.7,0.1-1.3,0.1-1.9l0.1-2.9c0-1,0.1-2,0.1-2.9c0-0.6,0-1.3,0.1-1.9
			c0-0.2-0.1-0.4-0.2-0.5c-0.1-0.1-0.3-0.2-0.5-0.2l-1.5,0l-2.8,0l-5.3-0.1l-2.5,0l-2.7,0l-2.5,0l-2.7,0l-0.3,0v-0.3
			C125.7,98.1,125.7,94.8,125.7,91.5z M249.1,73.2c-0.5-4.4-1.4-8.9-2.4-13.3c-0.1-0.3-0.4-0.5-0.7-0.5c-4.3,0.1-8.6,0.2-12.9,0.2
			c-4.5,0.1-8.9,0.2-13.3,0.2c-4.4,0.1-8.7,0.2-13,0.3c-3.9,0.1-7.7,0.2-11.5,0.2c-0.2,0-0.4,0.1-0.5,0.2c-0.1,0.2-0.2,0.3-0.2,0.5
			c0.6,4.1,1,8.3,1.3,12.5c0.3,4.5,0.5,9.1,0.5,13.6c0,4.5-0.2,9.1-0.5,13.7c-0.3,4.2-0.7,8.4-1.3,12.5c0,0.2,0,0.4,0.2,0.6
			c0.1,0.2,0.3,0.2,0.5,0.2l0.8,0l1.8,0l3.8,0.1l2.6,0.1l1.3,0l3,0.1c0.3,0,0.7-0.2,0.7-0.6c0.2-1.1,0.4-2.3,0.5-3.5
			c0.2-1.4,0.4-2.9,0.6-4.4c0.2-1.5,0.3-3,0.4-4.4c0.1-1.4,0.2-2.9,0.3-4.4l0-0.3l0.3,0l2.6,0l2.7,0h0.1l5.2,0l5.4,0l2.7,0l2.8,0
			h0.3l0,0.3c-0.1,1.5-0.3,3-0.4,4.5c-0.2,1.4-0.4,2.9-0.6,4.4c-0.2,1.4-0.5,2.9-0.7,4.4c-0.2,1.1-0.4,2.2-0.6,3.3
			c0,0.2,0,0.4,0.1,0.6c0.1,0.2,0.3,0.3,0.5,0.3l2.9,0.1l2,0l2.1,0l4.1,0.1l3.4,0.1h0c0.3,0,0.6-0.2,0.7-0.5
			c1.1-4.4,1.9-8.9,2.4-13.3c0.6-4.7,0.9-9.4,0.9-14.1C250,82.6,249.7,77.8,249.1,73.2z M233.6,86.7l-0.3,0l-5.4,0l-2.7,0h-2.7
			l-5.3,0l-2.7,0h-2.9v-0.3c0-1.3,0-2.5-0.1-3.8c0-1.3-0.1-2.5-0.2-3.8c-0.1-1.3-0.1-2.5-0.2-3.8c-0.1-1.3-0.2-2.5-0.3-3.8l0-0.3
			l0.3,0l2.7,0l2.5,0l5.2-0.1l0.1,0l2.8,0l2.6,0l5.4-0.1l0.3,0l0,0.3c0.2,1.3,0.3,2.6,0.4,3.9c0.1,1.3,0.2,2.6,0.3,3.9
			c0.1,1.3,0.1,2.6,0.2,3.9c0,1.3,0.1,2.6,0.1,3.9L233.6,86.7z M80,79.5c0-0.7,0-1.4,0.1-2.1l0.1-2.1c0-0.7,0.1-1.4,0.1-2.1l0-0.3
			l0.3,0c2,0,4.1-0.1,6.2-0.1l2.8-0.1l3.4-0.1c2.1,0,4.2-0.1,6.4-0.1c1.8,0,3.7-0.1,5.5-0.1c0.4,0,0.7-0.3,0.7-0.7l0-1.6
			c0-0.9,0-1.7,0.1-2.6l0-0.9l0.1-1.7c0-0.5,0-1,0.1-1.5c0-0.2-0.1-0.4-0.2-0.5c-0.1-0.1-0.3-0.2-0.5-0.2c-2.8,0.1-5.6,0.2-8.3,0.3
			c-3.1,0.1-6.2,0.2-9.2,0.3c-3,0.1-6,0.2-9,0.3c-2.7,0.1-5.3,0.2-8,0.3c-0.4,0-0.6,0.3-0.7,0.6c-0.4,3.7-0.7,7.4-0.9,11
			c-0.2,4-0.3,7.9-0.3,11.9c0,3.9,0.1,7.9,0.3,11.9c0.2,3.6,0.5,7.3,0.9,11c0,0.3,0.3,0.6,0.7,0.6c2.7,0.1,5.4,0.2,8.1,0.3
			c2.4,0.1,4.7,0.2,7.1,0.2l2,0.1l9.4,0.3c2.8,0.1,5.7,0.2,8.5,0.3c0,0,0,0,0,0c0.2,0,0.4-0.1,0.5-0.2c0.1-0.1,0.2-0.3,0.2-0.5
			c0-0.6,0-1.2-0.1-1.7c0-0.9-0.1-1.9-0.1-2.8l-0.1-2.8l0-1.8c0-0.4-0.3-0.7-0.7-0.7c-1.9,0-3.8-0.1-5.7-0.1c-2.2,0-4.4-0.1-6.5-0.1
			l-2.9-0.1l-3.5-0.1l-1.9,0l-4.4-0.1l-0.3,0l0-0.3c0-0.8-0.1-1.5-0.1-2.3c0-0.8-0.1-1.5-0.1-2.3c0-0.8,0-1.5-0.1-2.3
			c0-0.8,0-1.5,0-2.3l0-0.3l0.3,0l5.7,0l5.8,0l5.8,0l4.9,0c0.2,0,0.4-0.1,0.5-0.2c0.1-0.1,0.2-0.3,0.2-0.5l0-1.5l0-2.5l0-2.5
			c0-0.5,0-1,0-1.5c0-0.2-0.1-0.4-0.2-0.5c-0.1-0.1-0.3-0.2-0.5-0.2l-4.9,0l-5.8,0l-5.8,0l-2.7,0l-2.9,0L80,82l0-0.3
			C80,81,80,80.2,80,79.5z M189.5,102.5l-4.8-0.1l-5.8-0.1l-2.7,0l-3,0l-5.6-0.1l-0.3,0l0-0.3c0.2-3.5,0.3-7,0.3-10.3
			c0-1.5,0-2.9,0-4.4c0-2,0-4-0.1-5.9c-0.1-3.4-0.2-6.9-0.4-10.3c-0.2-3.1-0.4-6.3-0.6-9.4c0-0.4-0.3-0.7-0.7-0.6l-2.6,0.1l-0.2,0
			l-3.3,0.1l-3.5,0.1l-2.4,0.1c-0.2,0-0.4,0.1-0.5,0.2c-0.1,0.1-0.2,0.3-0.2,0.5c0.2,4,0.4,8.1,0.5,12.1c0.1,4.4,0.2,8.8,0.2,13.1
			c0,4.4-0.1,8.8-0.2,13.1c-0.1,4-0.3,8.1-0.5,12.1c0,0.2,0.1,0.4,0.2,0.5c0.1,0.1,0.3,0.2,0.5,0.2l4.4,0.1l3.4,0.1l9,0.2l9.2,0.2
			c2.8,0.1,5.6,0.1,8.5,0.2h0c0.4,0,0.7-0.3,0.7-0.6c0.1-0.7,0.2-1.4,0.3-2.1c0.1-1,0.2-2,0.3-3c0.1-1,0.2-2,0.3-3
			c0.1-0.7,0.1-1.3,0.2-2c0-0.2-0.1-0.4-0.2-0.5C189.9,102.6,189.7,102.5,189.5,102.5z"/>
	</g>
</g>
</svg>
