<?xml version="1.0" encoding="utf-8"?>
<!-- Generator: Adobe Illustrator 23.0.1, SVG Export Plug-In . SVG Version: 6.00 Build 0)  -->
<svg version="1.1" id="Layer_1" xmlns="http://www.w3.org/2000/svg" xmlns:xlink="http://www.w3.org/1999/xlink" x="0px" y="0px"
	 viewBox="0 0 250 104.4" style="enable-background:new 0 0 250 104.4;" xml:space="preserve">
<style type="text/css">
	.st0{fill:#FFFFFF;}
</style>
<g>
	<path class="st0" d="M0,0v24.6h0h85.5V0H0z M80.2,19.2H5.3V5.3h74.9V19.2z M5.3,65.2H0V40.6h5.3v9.7h9.6v-9.7h5.3v24.6h-5.3V55H5.3
		V65.2z M32.4,65.6c-5.4,0-9.1-3.4-9.1-9c0-5.5,3.6-9.2,8.4-9.2c5.2,0,7.8,3.5,7.8,8.7v2H28.3c0.6,2.7,2.8,3.4,4.9,3.4
		c1.8,0,3.2-0.4,4.8-1.4h0.2v4C36.8,65.1,34.8,65.6,32.4,65.6 M28.3,54.4h6.4c-0.1-1.8-0.9-3.1-2.9-3.1C30.2,51.3,28.8,52,28.3,54.4
		 M53.5,54.9l-2.8,10.3H46l-5.3-17.3v-0.2h5.1L48.7,58l2.8-10.3h4.2L58.4,58l2.9-10.3h4.9v0.2l-5.3,17.3h-4.7L53.5,54.9z M75,65.6
		c-4.2,0-6-1.7-6-5.7V40.6h5.2v19c0,1.2,0.5,1.7,1.5,1.7c0.4,0,0.9-0.1,1.2-0.2h0.1v4.3C76.5,65.4,75.8,65.6,75,65.6 M87.5,65.6
		c-5.4,0-9.1-3.4-9.1-9c0-5.5,3.6-9.2,8.4-9.2c5.2,0,7.8,3.5,7.8,8.7v2H83.5c0.6,2.7,2.8,3.4,4.9,3.4c1.8,0,3.2-0.4,4.8-1.4h0.2v4
		C92,65.1,90,65.6,87.5,65.6 M83.5,54.4h6.4c-0.1-1.8-0.9-3.1-2.9-3.1C85.3,51.3,83.9,52,83.5,54.4 M115.9,47.7h3.9v4.2h-3.9V59
		c0,1.5,0.6,2.2,2.2,2.2c0.4,0,1,0,1.6-0.2h0.1v4.1c-0.7,0.2-1.7,0.5-3.2,0.5c-4.2,0-5.9-1.9-5.9-6.4v-7.4h-6.6V59
		c0,1.5,0.6,2.2,2.2,2.2c0.4,0,1,0,1.6-0.2h0.1v4.1c-0.7,0.2-1.7,0.5-3.2,0.5c-4.2,0-5.9-1.9-5.9-6.4v-7.4h-2.7v-4.2h2.7v-4.8h5.2
		v4.8h6.6v-4.8h5.2V47.7z M146.7,48.9c0,5.3-3.6,8.3-9,8.3h-3.8v8h-5.3V40.6h9.2C143.1,40.6,146.7,43.5,146.7,48.9 M137.3,52.7
		c2.7,0,4-1.5,4-3.7c0-2.3-1.3-3.8-4-3.8h-3.4v7.5H137.3z M158.3,63.5c-1.1,1.4-2.8,2-4.6,2c-3.4,0-6.2-2.1-6.2-5.8
		c0-3.4,2.8-5.7,6.8-5.7c1.3,0,2.6,0.2,3.9,0.6v-0.3c0-1.9-1.1-2.7-3.9-2.7c-1.8,0-3.5,0.5-4.9,1.3h-0.2v-4.2c1.3-0.8,3.7-1.5,6-1.5
		c5.3,0,8.1,2.5,8.1,6.9v11h-5V63.5z M158.1,59.7v-1.5c-0.8-0.4-1.8-0.6-2.9-0.6c-1.7,0-2.7,0.6-2.7,2c0,1.5,1,2.1,2.6,2.1
		C156.5,61.7,157.6,61,158.1,59.7 M165.9,56.5c0-5.6,4-9.2,9.2-9.2c1.8,0,3.6,0.4,4.9,1.3v4.4h-0.2c-1.1-0.9-2.5-1.4-4-1.4
		c-2.6,0-4.6,1.8-4.6,4.8c0,3,2,4.7,4.6,4.7c1.5,0,2.9-0.5,4-1.4h0.2v4.4c-1.3,0.9-3,1.3-4.9,1.3C169.9,65.6,165.9,62.1,165.9,56.5
		 M188.4,57.2v7.9h-5.2V40.6h5.2v14l5.2-6.9h5.9v0.2l-6.3,7.9l6.3,9.2v0.2h-5.9L188.4,57.2z M211.4,63.5c-1.1,1.4-2.8,2-4.6,2
		c-3.4,0-6.2-2.1-6.2-5.8c0-3.4,2.8-5.7,6.8-5.7c1.3,0,2.6,0.2,3.9,0.6v-0.3c0-1.9-1.1-2.7-3.9-2.7c-1.8,0-3.5,0.5-4.9,1.3h-0.2
		v-4.2c1.3-0.8,3.7-1.5,6-1.5c5.3,0,8.1,2.5,8.1,6.9v11h-5V63.5z M211.2,59.7v-1.5c-0.8-0.4-1.8-0.6-2.9-0.6c-1.7,0-2.7,0.6-2.7,2
		c0,1.5,1,2.1,2.6,2.1C209.6,61.7,210.7,61,211.2,59.7 M225.1,50.5c0.9-1.9,2.3-3,4.2-3c0.7,0,1.4,0.2,1.7,0.3v5h-0.2
		c-0.6-0.2-1.3-0.4-2.3-0.4c-1.6,0-2.9,0.9-3.3,2.8v10.1h-5.2V47.7h5V50.5z M245,63.4c-1.1,1.4-2.8,2.2-5.2,2.2
		c-4.5,0-7.4-4.1-7.4-9.1c0-5,2.9-9.2,7.4-9.2c2.3,0,3.9,0.7,5,2v-8.7h5.2v24.6h-5V63.4z M244.8,59.2v-5.6c-0.9-1.3-2-1.8-3.3-1.8
		c-2.3,0-3.8,1.7-3.8,4.6c0,3,1.5,4.6,3.8,4.6C242.8,61.1,243.9,60.5,244.8,59.2 M0,73.2h15.2v3H3.4v7.5h10.7v2.9H3.4v8.2h11.8v3H0
		V73.2z M27.7,80.1c3.9,0,6.1,2.6,6.1,6.8v10.9h-3.3V87c0-2.2-1.1-3.9-3.6-3.9c-2,0-3.8,1.3-4.4,3.1v11.5h-3.3V80.5h3.3V83
		C23.6,81.4,25.3,80.1,27.7,80.1 M42.5,80.5H47v2.8h-4.4v9.3c0,2,1,2.6,2.9,2.6c0.5,0,1.1-0.1,1.5-0.2H47v2.8
		c-0.5,0.2-1.1,0.4-2,0.4c-4,0-5.7-1.8-5.7-5.2v-9.6h-3v-2.8h3v-4.6h3.3V80.5z M57.6,98.1c-5.1,0-8.5-3.4-8.5-8.8
		c0-5.4,3.2-9.2,7.9-9.2c4.8,0,7.2,3.4,7.2,8.5v1.5H52.3c0.4,3.5,2.6,5.2,5.7,5.2c1.9,0,3.3-0.4,4.8-1.6H63v2.9
		C61.6,97.7,59.7,98.1,57.6,98.1 M52.4,87.4h8.6c-0.1-2.6-1.4-4.5-4-4.5C54.5,82.9,52.9,84.8,52.4,87.4 M71.3,83.2
		c0.7-1.8,2.4-2.9,4.3-2.9c0.7,0,1.4,0.1,1.7,0.3v3.2h-0.1c-0.5-0.2-1.3-0.4-2-0.4c-1.8,0-3.3,1.2-3.8,3.1v11.3h-3.3V80.5h3.3V83.2z
		 M88.4,80.1c5.2,0,7.9,4.2,7.9,9c0,4.8-2.8,9-7.9,9c-2.1,0-3.9-1.1-4.8-2.3v8.6h-3.3V80.5h3.3v2C84.5,81.2,86.3,80.1,88.4,80.1
		 M87.8,95.2c3.2,0,5.1-2.6,5.1-6.1c0-3.5-1.9-6.1-5.1-6.1c-1.8,0-3.4,1.1-4.3,2.8v6.6C84.4,94.2,86.1,95.2,87.8,95.2 M103.4,83.2
		c0.7-1.8,2.4-2.9,4.3-2.9c0.7,0,1.4,0.1,1.7,0.3v3.2h-0.1c-0.5-0.2-1.3-0.4-2-0.4c-1.8,0-3.3,1.2-3.8,3.1v11.3h-3.3V80.5h3.3V83.2z
		 M114.1,73.5c1.1,0,2.1,0.9,2.1,2c0,1.1-0.9,2-2.1,2c-1.1,0-2.1-0.9-2.1-2C112,74.4,113,73.5,114.1,73.5 M112.5,80.5h3.3v17.3h-3.3
		V80.5z M127.4,87.7c2.5,0.8,5.2,1.8,5.2,5.1c0,3.5-2.9,5.3-6.6,5.3c-2.3,0-4.6-0.6-5.9-1.6v-3.1h0.2c1.5,1.3,3.6,1.9,5.7,1.9
		c1.8,0,3.5-0.7,3.5-2.2c0-1.5-1.4-1.9-4.1-2.8c-2.4-0.8-5.1-1.7-5.1-5c0-3.3,2.8-5.3,6.3-5.3c2,0,3.9,0.4,5.3,1.4v3.1h-0.1
		c-1.4-1.1-3.1-1.8-5.1-1.8c-2,0-3.2,0.9-3.2,2.1C123.3,86.4,124.6,86.8,127.4,87.7 M144,98.1c-5.1,0-8.5-3.4-8.5-8.8
		c0-5.4,3.2-9.2,7.9-9.2c4.8,0,7.2,3.4,7.2,8.5v1.5h-11.9c0.4,3.5,2.6,5.2,5.7,5.2c1.9,0,3.3-0.4,4.8-1.6h0.1v2.9
		C147.9,97.7,146.1,98.1,144,98.1 M138.8,87.4h8.6c-0.1-2.6-1.4-4.5-4-4.5C140.9,82.9,139.3,84.8,138.8,87.4"/>
</g>
</svg>
