<?xml version="1.0" encoding="utf-8"?>
<!-- Generator: Adobe Illustrator 23.0.1, SVG Export Plug-In . SVG Version: 6.00 Build 0)  -->
<svg version="1.1" xmlns="http://www.w3.org/2000/svg" xmlns:xlink="http://www.w3.org/1999/xlink" x="0px" y="0px"
	 viewBox="0 0 464 250.9" style="enable-background:new 0 0 464 250.9;" xml:space="preserve">
<style type="text/css">
	.st0{fill:#FFFFFF;}
	.st1{fill-rule:evenodd;clip-rule:evenodd;fill:#FFFFFF;}
</style>
<g id="_x2260_I_xA5__x222B_">
</g>
<g id="_x221E__x2014__xB6__x201C_Ωu">
</g>
<g id="_xB4_e_xA5__x222B_">
	<g>
		<g>
			<path class="st0" d="M134.5,66.8l-6.3,1.6l23.2-68c12-0.7,23.9-0.4,35.3,0.9L134.5,66.8z"/>
			<path class="st0" d="M113.8,71.9l-5.7,1.4l2.8-66.8c10.6-2.6,21.3-4.4,31.9-5.5L113.8,71.9z"/>
			<path class="st0" d="M94.1,76.8l-5.3,1.3l-13-59.8c4.4-1.9,9-3.7,13.6-5.4c4.4-1.6,8.8-3,13.3-4.3L94.1,76.8z"/>
			<path class="st0" d="M75.6,81.4l-5.3,1.3l-24.7-48c7.1-4.7,14.8-9.1,22.9-13L75.6,81.4z"/>
			<path class="st0" d="M57.1,85.9l-5.1,1.3L21.4,53.8c5.5-5.2,11.5-10.2,18-14.9L57.1,85.9z"/>
		</g>
		<g>
			<polygon class="st0" points="52.7,96.3 79.7,89.6 63.3,115.4 			"/>
			<polygon class="st0" points="79.7,89.6 106.6,83 90.2,108.7 			"/>
			<polygon class="st0" points="46.9,141.1 73.8,134.4 57.4,160.1 			"/>
			<polygon class="st0" points="73.8,134.4 100.8,127.7 84.4,153.5 			"/>
			<polygon class="st0" points="36.3,122 63.3,115.4 46.9,141.1 			"/>
			<polygon class="st0" points="63.3,115.4 90.2,108.7 73.8,134.4 			"/>
			<polygon class="st0" points="90.2,108.7 117.2,102 100.8,127.7 			"/>
			<polygon class="st0" points="57.4,160.1 84.4,153.5 68,179.2 			"/>
			<polygon class="st0" points="106.6,83 133.6,76.3 117.2,102 			"/>
			<polygon class="st0" points="117.2,102 144.2,95.3 127.8,121.1 			"/>
			<polygon class="st0" points="100.8,127.7 127.8,121.1 111.4,146.8 			"/>
			<polygon class="st0" points="84.4,153.5 111.4,146.8 95,172.5 			"/>
			<path class="st0" d="M190.2,84c0.1-0.1,0.2-0.1,0.3-0.1c0.2,0,0.4,0.2,0.4,0.5c-0.1,3.3-0.4,5.8-0.4,5.8
				c-4.3,42.3-23.4,64.6-64.1,89c-22,13.2-28.1,23.2-31.7,28.5c-6.9,9.8-12.1,29-13.6,35.4l-8.6,7.9c3.4-55.3,20.7-68.3,45.3-93.8
				c22.3-23.2,31.2-41.2,32-63.6c0.4-9.5-2-20.2-2.4-21.8c0-0.1-0.1-0.3-0.1-0.4c-0.1-0.3-0.1-0.5,0.2-0.6c0.2-0.1,0.5,0,0.9,0.4
				c16.8,16.7,21.6,33.5,21.6,33.5L190.2,84z"/>
			<path class="st0" d="M0,131.4c0,0,0-0.1,0-0.1c0-0.2,0.2-0.4,0.4-0.4c0.1,0,0.1,0,0.2,0.1l13.4,8c2.8-21.6,13.5-34.9,25.1-44.2
				c0.2-0.1,0.4-0.3,0.6-0.4c0.2-0.1,0.4,0,0.5,0.3c0,0.2-0.1,0.4-0.2,0.5c-26.2,52.4,20.8,85.2,25.4,88.2l-1.7,2.7
				C15.3,174.7,2.4,142.5,0,131.4z"/>
		</g>
		<path class="st1" d="M323,146.7v18.1c-0.9,1-2.8,2.2-4.7,2.2c-5.1,0-6.8-2.6-6.8-10.6c0-8.3,1.9-12,6.3-12
			C319.6,144.4,321.3,145.2,323,146.7z M332.7,120.3l-9.7,2.6l0,15.6c-1.8-1.3-3.6-1.9-6.3-1.9c-9.5,0-16,8-16,19.7
			c0,11.6,6,19,15.5,19c3.4,0,5.8-1,7.7-2.4c0.3,0.6,0.8,1.1,1.1,1.4h7.8L332.7,120.3z M463.1,140c-3.9-2-8.3-3.8-13.3-3.9
			c-9.5-0.2-14.7,4.9-15,11.3c-0.2,4.9,2.7,9.4,12.3,12.1c6.4,1.8,7,4.3,6.7,5.8c-0.5,2.1-3.1,2.9-5.4,2.8c-3.1-0.1-6.2-1.1-11-3.4
			l-3.1,6.1c4.3,2.7,10.1,4.7,15.6,4.6c7.1-0.1,12.9-3.5,14-9.4c1-5.4-2-10.9-10.4-13.3c-8.2-2.4-8.6-4.4-8.4-6.3
			c0.3-1.4,1.5-3.4,5.9-3.1c2.4,0.2,5.9,1.3,9,2.7L463.1,140z M408,151.5v-0.1c0-5.2,2.1-8.1,5.8-8.1c2,0,3.4,0.7,4.3,2.2
			c0.9,1.4,1.2,2.8,1.2,5.6v0.4H408z M425.2,164.3c-3,2.5-6.1,3.7-9.5,3.7c-5,0-7.9-3.3-7.9-9v-0.3h21.6v-2.3c0-7.8-1.5-12.8-5-16.3
			c-2.4-2.5-6.5-3.9-10.8-3.9c-5,0-8.7,1.6-11.7,5c-3.3,3.6-4.7,8.1-4.7,14.8c0,11.7,6.9,19.3,17.6,19.3c5.2,0,9.8-1.7,14.1-5.2
			L425.2,164.3z M346.8,121.6c-3,0-5.4,2.4-5.4,5.3c0,3,2.4,5.3,5.3,5.3c3,0,5.3-2.4,5.3-5.3C352,124,349.7,121.6,346.8,121.6z
			 M341.8,138.4v35.9h9.8v-38.5L341.8,138.4z M361.1,138.4l0,35.9h9.8v-24.3c0-3.7,3.6-5.2,5.6-5.2c2.6,0,4.4,1,4.4,5.2v24.3h9.6
			V147c0-2.3-0.2-3.9-0.7-5.3c-1.2-3.2-4.8-5.4-9-5.4c-2.2,0-4.7,0.6-6.7,1.6c-1.6,0.9-1.8,1.1-3.3,2.1v-4.2L361.1,138.4z
			 M277.8,138.4v35.9h9.8v-24.2c0-1.4,0.5-2.8,1.5-3.7c1.6-1.4,3.2-1.7,4.5-1.7c1.1,0,1.9,0.1,3,0.3l2.6-8.2
			c-1.5-0.7-2.2-0.8-3.6-0.8c-1.1,0-2.7,0.5-3.5,0.8c-1.7,0.8-2.8,1.5-4.3,2.8v-3.9L277.8,138.4z M259.5,157.9v7.7
			c-1.5,1.5-3.6,2.8-5.4,2.8c-2.5,0-4.3-2-4.3-4.9c0-4.4,2.3-5.7,9.1-5.7H259.5z M242.4,141c1.4-1,2.8-1.8,4.4-2.6
			c3.8-1.6,6.2-2.2,9.6-2.2c6.3,0,10.6,2.3,12,6.5c0.5,1.5,0.7,2.7,0.7,6.7l0,24.9h-7.7c-0.4-0.3-1.1-1.2-1.3-1.8
			c-2.1,2-5.6,3.1-8.7,3.1c-7.4,0-12.1-4.1-12.1-11.6c0-8.8,6.1-12.8,17.9-12.8c0.7,0,1.4,0,2.2,0.1v-1.5c0-4.2-0.8-5.5-4.4-5.5
			c-2.7,0-5.9,1.1-9.1,2.9L242.4,141z M222,125.6v39.9c0,5.5-0.2,7.5-1,9.3c-0.9,2-3.3,4.5-5.9,6.1l4.7,5.2
			c4.6-1.8,10.4-5.7,11.8-11.9c0.5-2,0.7-3.4,0.7-9.9v-41.6L222,125.6z"/>
	</g>
</g>
</svg>
