<?xml version="1.0" encoding="utf-8"?>
<!-- Generator: Adobe Illustrator 23.0.1, SVG Export Plug-In . SVG Version: 6.00 Build 0)  -->
<svg version="1.1" id="Ebene_1" xmlns="http://www.w3.org/2000/svg" xmlns:xlink="http://www.w3.org/1999/xlink" x="0px" y="0px"
	 viewBox="0 0 283.5 80.9" style="enable-background:new 0 0 283.5 80.9;" xml:space="preserve">
<style type="text/css">
	.st0{fill-rule:evenodd;clip-rule:evenodd;fill:#FFFFFF;}
</style>
<g>
	<g>
		<path class="st0" d="M121.3,34.5c-0.6,4.2,2.6,7.6,7.2,7.6c4.6,0,8.9-3.4,9.5-7.6c0.6-4.2-2.6-7.6-7.2-7.6
			C126.2,27,121.9,30.3,121.3,34.5z M283.4,70.3c-5.4,2.6-10.2,4.6-15.7,4.6c-5.5,0-8.6-3.9-7.6-8.7c5-0.8,20.7-3.3,22.9-11.2
			c1.8-6.5-4.3-9.6-10.5-9.6c-12.4,0-24.9,7.7-28.1,20.3c-0.2,0.7-0.3,1.3-0.3,2c-3.8,3.3-7.6,5.1-9.7,5.1c-2.3,0-2.6-1.6-1.5-3.6
			L252.6,31h-16l-10.5,20.4c-0.8-2.8-4-6.2-11.1-6.2c-13.5,0-21.3,11.2-24.1,18.8c-0.5,1.3-0.8,2.6-0.9,3.8c-3.8,3.2-7.5,5-9.5,5
			c-2.3,0-2.6-1.6-1.5-3.6l5.7-11.1c2.9-5.7,0.3-12-7.6-12c-6.8,0-13.1,3.7-20.8,9.3l4.3-8.3h-16.6l-4.9,9.5
			c-5.3,10.3-14.7,16.2-18.5,16.2c-2.3,0-2.6-1.6-1.5-3.6l12-22.1h-16.5l-6.7,12.3c-2.5,4.6-8.6,11.4-18.7,11.4
			c-6.8,0-13.8-1.8-21-4c11.5-7,23.1-16.6,33.8-29C123.1,13.3,137.2,4,160.4,4c30.1,0,41.3,11.4,41.3,20.7c0,7.2-3.4,9.5-6.2,10.8
			l0.4,2.4c13.3-0.5,20.8-7.1,20.8-14.7C216.7,10.1,194,0,158.2,0c-30.8,0-57.6,12.7-75.6,31.8c-9.8,10.4-19.4,21.8-29,30.3
			c-8.1-2.5-16.6-4.5-25.4-4.5C10.9,57.7,0,62,0,69.5c0,6.6,12.2,10.8,26.6,10.8c8.1,0,17.4-2,27-6c7.6,3.3,15.5,6,23.5,6
			c10.5,0,19.3-5.4,25-10.3c-2.8,5.7,0.8,10.3,7.1,10.3c6,0,15.3-3.5,23.2-10.8l-5.1,9.9h16.6l1.5-2.8c3.4-6.7,11.9-21.9,20.3-21.9
			c2.5,0,3,2.3,1.8,4.6l-5.3,10.3c-3.1,5.9,0.4,10.8,6.9,10.8c5.4,0,13.5-2.9,20.9-9c0.7,5.3,4.7,9,10.3,9c6.5,0,14.3-5.4,17-7.9
			c-0.4,3.8,1.5,7.9,7.1,7.9c4.6,0,12.5-3,19.9-9.2c0.9,5.1,5.3,9.8,14.8,9.8c7.9,0,17.9-3.4,24.3-7.6L283.4,70.3z M273.5,48.9
			c1.1,0,1.9,0.5,2.2,1.3c0.4,0.8,0.3,2-0.1,3c-2.1,5.1-8.2,8.9-14.8,10C262.4,58.6,267.4,48.9,273.5,48.9z M26.6,75.5
			c-8.7,0-13.6-3.3-13.6-7.6c0-3,2.8-5.7,7.9-5.7c6.8,0,14.5,3.5,22.8,7.5C38.1,73.3,32.4,75.5,26.6,75.5z M209.3,72.5
			c-3.3,0-3.5-3.3-2.8-6.2c1.1-4.7,7.5-16.1,13.5-16.1c2.4,0,3.4,2.2,3.2,4.5C223,59,216.9,72.5,209.3,72.5z"/>
	</g>
</g>
</svg>
