<?xml version="1.0" encoding="utf-8"?>
<!-- Generator: Adobe Illustrator 23.0.1, SVG Export Plug-In . SVG Version: 6.00 Build 0)  -->
<svg version="1.1" id="Layer_1" xmlns="http://www.w3.org/2000/svg" xmlns:xlink="http://www.w3.org/1999/xlink" x="0px" y="0px"
	 viewBox="0 0 250 86.1" style="enable-background:new 0 0 250 86.1;" xml:space="preserve">
<style type="text/css">
	.st0{fill:#FFFFFF;}
</style>
<g>
	<g>
		<path class="st0" d="M236.8,33.7c0,0.1-1.2,4.1-1.2,4.1l-3.6,12.5c-0.4,1.4-1.7,2.4-3.3,2.4l-1.5,0c-1.3,0-2.2-1-2.2-2.3
			c0-0.2,0-0.4,0.1-0.5l3.9-13.7c0.6-2.1,2.5-3.6,4.7-3.6l1.9,0C236.3,32.5,236.8,33,236.8,33.7 M174.2,33.6
			c-0.1,0.4-1.5,5.4-1.5,5.4l-3.2,11.2c-0.4,1.5-1.7,2.5-3.3,2.5l-1.5,0c-1.3,0-2.2-1-2.2-2.3c0-0.2,0-0.3,0-0.5l3.9-13.8
			c0.6-2.1,2.5-3.6,4.7-3.6h2C173.7,32.5,174.4,33,174.2,33.6 M141.9,11.6l0,2.1c0,4.5-2.1,8.5-5.3,11.2c-2.4,1.9-5.5,3-8.8,3v0
			l-1.1,0l-2.5,0c-0.6,0-1.1-0.5-1.1-1.1l6-21.1c0.1-0.5,0.6-0.9,1.1-0.9l4.6,0v0h0C138.8,4.7,141.9,7.7,141.9,11.6 M249.8,30.3
			c0.1-0.1,0.1-0.3,0.1-0.5c0-0.6-0.5-1.1-1.2-1.1l-1,0l-18.3,0c-8.6,0-15.5,6.9-15.5,15.5c0,2.8,0.7,5.5,2,7.7
			c0.1,0.2,0.2,0.4,0.2,0.6c0,0.6-0.5,1.1-1.2,1.1l-6.4,0v0c-2.5-0.2-4.4-2.3-4.4-4.9c0-0.3,0-0.6,0.1-0.8
			c1.6-5.7,4.8-16.8,4.8-16.8l0.5-1.6c0.1-0.5,0.4-0.8,1-0.8l5.6,0c0.5,0,0.9-0.3,1.1-0.7c0,0,0.5-1.8,0.5-2c0-0.6-0.5-1.1-1.1-1.1
			l-4.2,0c-0.6,0-1.2-0.5-1.2-1.1c0-0.2,2.6-9.1,2.6-9.1s0.3-1.1,0.3-1.2c0-0.6-0.5-1.1-1.1-1.1l-9.6,0c-0.5,0-0.9,0.3-1.1,0.8h0
			L199,24c-0.1,0.5-0.6,0.9-1.1,0.9l-5.4,0c-0.5,0-1,0.3-1.1,0.8c0,0-0.5,1.8-0.5,1.8c0,0.6,0.5,1.1,1.2,1.1l4.1,0
			c0.6,0,1.1,0.5,1.1,1.1c0,0.1-3.1,11-4.9,17.2c-0.1,0.4-0.2,1-0.3,1.8c-0.2,1.6,0.9,3,0.9,3c0.1,0.2,0.2,0.4,0.2,0.7
			c0,0.6-0.4,1.1-1,1.1h-8.4v0l-0.3,0c-1.3,0-2.4-1-2.4-2.3c0-0.2,0.1-0.4,0.1-0.6l3.1-10.8l2.6-9c0,0,0.3-1,0.3-1.2
			c0-0.6-0.5-1.1-1.1-1.1l-1.6,0l-17.7,0c-8.6,0-15.5,6.9-15.5,15.5c0,2.8,0.8,5.5,2.1,7.7c0,0,0.1,0.4,0.1,0.5
			c0,0.6-0.4,1.1-1.1,1.1l-7.6,0c-1.3,0-2.3-1-2.3-2.3c0-0.2,0-0.4,0.1-0.6l0.1-0.4h0L146,39c0.2-0.6,0.3-1.3,0.3-1.9
			c0-4.3-2.9-3.9-3.7-5.1c0,0-0.6-0.5,0.7-1c4.7-1.7,8.4-5.1,10.2-9.6c0.9-2,1.4-4.2,1.4-6.5c0-7.8-6-14.2-13.6-14.8
			C140.7,0,140.2,0,139.7,0l-4.7,0v0l-21.2,0c0,0,0,0,0,0l-3.6,0c-0.6,0-1,0.4-1.1,0.9l-0.7,2.5c0,0.6,0.5,1.1,1.2,1.1l5.3,0
			c0.5,0,0.9,0.3,1.1,0.7c0.1,0.1,0.1,0.3,0.1,0.4c0,0.1-3.3,11.5-6.5,22.9h0c-3.2,11.3-6.4,22.5-6.4,22.5c-0.4,1.5-1.7,2.5-3.3,2.5
			l-2.8,0c-1.3,0-2.4-1-2.3-2.3c0.1-1,6-21.4,6-21.5c0-0.6-0.5-1.1-1.2-1.1h-9.6c-0.6,0-1,0.4-1.1,0.9l-6.1,21.2
			c-0.5,1.1-1.4,1.9-2.6,1.9l-1.3,0c-1.1,0-1.9-1-1.9-2.3c0-0.2,0-0.4,0.1-0.6l0.1-0.5l1.3-4.4l3-10.3c0,0,0.1-0.5,0.1-1
			c0-2.7-2.2-4.9-4.9-4.9c-0.8,0-1.5,0.2-2.1,0.5L64,34c-0.4,0.2-0.7,0.4-0.6,1c0.1,0.4,0.4,1.3,0.4,1.3c0.2,0.3,0.6,0.6,0.9,0.5
			c0.6-0.2,2.4-1.1,2.9-1.1c0.6-0.1,1.2,0.5,1.2,1.2c0,0.1-0.4,1.8-0.4,1.8l-2.6,9c-0.1,0.4-0.1,0.8-0.2,1.2c-0.2,1.6,0.9,3,0.9,3
			c0.1,0.2,0.2,0.4,0.2,0.7c0,0.6-0.5,1.1-1.1,1.1l-8.1,0c-1.3,0-2.3-1-2.3-2.3c0-0.2,0-0.4,0.1-0.6l4.5-15.6c0.1-0.5,0.2-1,0.2-1.5
			c0-2.7-2.2-4.9-4.9-4.9c-0.8,0-1.5,0.2-2.1,0.5l-7.8,3.7l-1.5,0.7c-0.2,0.1-0.4,0.1-0.6,0.1c-0.6,0-1-0.4-1.1-0.9
			c-0.5-2.3-2.4-4-4.8-4c-0.8,0-1.5,0.2-2.1,0.5l-8.4,3.9l-0.9,0.4c-0.2,0.1-0.4,0.1-0.6,0.1c-0.6,0-1-0.4-1.1-0.9
			c-0.5-2.3-2.4-4.1-4.8-4.1c-0.8,0-1.5,0.2-2.1,0.5l-0.1,0l-12,5.6c-0.4,0.2-0.7,0.6-0.7,1c0,0.4,0.4,1,0.4,1
			c0.2,0.4,0.6,0.7,1,0.7c0.2,0,0.3,0,0.5-0.1l3.4-1.6c0.2-0.1,0.3-0.1,0.5-0.1c0.6,0,1.1,0.5,1.1,1.2c0,0.4-4.1,14.3-4.1,14.3
			c-0.4,1.5-1.7,2.5-3.3,2.5l-2.5,0c-0.5,0-1,0.3-1.1,0.8c0,0-0.4,1.4-0.5,1.8c-0.1,0.7,0.5,1.1,1.1,1.1h13.4l0,0l2,0
			c0.5,0,0.9-0.3,1.1-0.8h0l5.2-18c0.1-0.3,0.3-0.7,0.6-0.8l2.7-1.3l1.5-0.7c0.1-0.1,0.3-0.1,0.5-0.1c0.6,0,1.2,0.5,1.2,1.1
			c0,0.1,0,0.2,0,0.3c-1.5,5.6-5.5,19.1-5.5,19.1c0,0.6,0.5,1.1,1.2,1.1h9.6c0.6,0,1-0.4,1.1-0.9l5.2-18.2c0.1-0.2,0.3-0.4,0.5-0.5
			l3-1.4l1.2-0.6c0.1-0.1,0.3-0.1,0.5-0.1c0.6,0,1.3,0.5,1.1,1.1C47.1,37.5,42.2,55,42.2,55s-0.3,1.1-0.3,1.2c0,0.6,0.5,1.1,1.1,1.1
			l5.8,0h60.4c3.1,0,5.7-1.9,6.5-4.7l5-17.4c0.1-0.5,0.6-0.8,1.1-0.8h4.3h4.9c1.3,0,2.3,1,2.3,2.3c0,0.2,0,0.3,0,0.4L130,48.5
			c-0.2,0.6-0.3,1.3-0.3,1.9c0,3.8,3.1,6.9,6.9,6.9h5.6l-1.8,0l106.2,0c2.4,0,2.9-0.4,3-0.9c0,0,0.5-1.7,0.5-1.7
			c0-0.6-0.5-1.2-1.1-1.2l-2.6,0c-1.3,0-2.4-1-2.4-2.3c0-0.2,0.1-0.4,0.1-0.6l3.7-13l1.9-6.5L249.8,30.3z"/>
		<path class="st0" d="M243.4,83.2c0-3.2-4.4-3.1-4.4-4.9c0-0.7,0.6-1,1.5-1c0.8,0,1.6,0.3,2.4,0.7l0-1.7c-0.6-0.3-1.4-0.6-2.5-0.6
			c-2.1,0-3.3,1.3-3.3,2.8c0,0.8,0.3,1.4,0.7,1.8c1.2,1.4,3.7,1.7,3.7,3.1c0,0.8-0.9,1.2-1.7,1.2c-1,0-1.7-0.4-2.3-0.8l-0.8,1.4
			c0.7,0.5,1.7,0.9,3.1,0.9C241.8,86.1,243.4,85,243.4,83.2 M234,85.2l-0.5-1.3c-0.8,0.4-1.6,0.7-2.5,0.7c-2.1,0-3.4-1.6-3.4-3.6
			c0-1.9,1.2-3.6,3.5-3.6c0.9,0,1.7,0.2,2.6,0.7l0-1.7c-0.6-0.3-1.6-0.6-2.6-0.6c-3.4,0-5.5,2.4-5.5,5.3c0,2.9,1.9,5.1,5.1,5.1
			C231.8,86.1,232.8,85.8,234,85.2 M222.2,75.8h-1.9V86h1.9V75.8z M216.5,86V75.8h-1.9v5.7c0,0.4,0,1,0,1.5h0
			c-0.2-0.4-0.5-0.8-1-1.4l-4.4-5.7h-1.9V86h1.9v-6c0-0.5,0-1,0-1.4h0c0.3,0.4,0.6,0.8,1,1.4l4.6,6H216.5z M201.9,80.9
			c0,2.3-1.3,3.7-3.2,3.7c-1.9,0-3.2-1.4-3.2-3.7c0-2.3,1.3-3.7,3.2-3.7C200.6,77.2,201.9,78.7,201.9,80.9 M203.9,80.9
			c0-1.4-0.4-2.7-1.3-3.6c-0.9-1-2.3-1.6-3.9-1.6c-1.5,0-2.8,0.6-3.7,1.5c-0.9,1-1.5,2.3-1.5,3.8c0,1.6,0.6,3,1.6,3.9
			c0.9,0.8,2.1,1.3,3.6,1.3c1.5,0,2.8-0.5,3.7-1.5C203.4,83.7,203.9,82.4,203.9,80.9 M188.5,78.9c0,0.9-0.7,1.7-1.7,1.7h-0.9v-3.2
			h0.9C187.9,77.4,188.5,78,188.5,78.9 M191.5,86c-1.6-2.6-2.6-4.4-3-4.6v0c1-0.4,1.9-1.3,1.9-2.7c0-1.6-1-2.9-3.6-2.9H184V86h1.9
			v-4h0.9c0.4,0.1,1.1,1.4,2.7,4H191.5z M181.1,75.8h-8.1v1.6h3V86h1.9v-8.6h2.8L181.1,75.8z M170.6,85.2l-0.5-1.3
			c-0.8,0.4-1.6,0.7-2.5,0.7c-2.1,0-3.4-1.6-3.4-3.6c0-1.9,1.2-3.6,3.5-3.6c0.9,0,1.7,0.2,2.6,0.7l0-1.7c-0.6-0.3-1.6-0.6-2.6-0.6
			c-3.4,0-5.5,2.4-5.5,5.3c0,2.9,1.9,5.1,5.1,5.1C168.4,86.1,169.5,85.8,170.6,85.2 M159.2,86v-1.6h-3.8v-2.9h3.3V80h-3.3v-2.6h3.3
			l0.5-1.6h-5.7V86H159.2z M150.6,86v-1.6H147v-8.6h-1.9V86H150.6z M141.7,86v-1.6h-3.8v-2.9h3.3V80h-3.3v-2.6h3.3l0.5-1.6H136V86
			H141.7z M126.1,86V75.8h-1.9v5.7c0,0.4,0,1,0,1.5h0c-0.2-0.4-0.5-0.8-1-1.4l-4.4-5.7h-1.9V86h1.9v-6c0-0.5,0-1,0-1.4h0
			c0.3,0.4,0.6,0.8,1,1.4l4.6,6H126.1z M113,75.8h-1.9V86h1.9V75.8z M99.1,78.9c0,0.9-0.7,1.7-1.7,1.7h-0.9v-3.2h0.9
			C98.6,77.4,99.1,78,99.1,78.9 M102.2,86c-1.6-2.6-2.6-4.4-3-4.6v0c1-0.4,1.9-1.3,1.9-2.7c0-1.6-1-2.9-3.6-2.9h-2.8V86h1.9v-4h0.9
			c0.4,0.1,1.1,1.4,2.7,4H102.2z M89.3,80.9c0,2.3-1.3,3.7-3.2,3.7c-1.9,0-3.2-1.4-3.2-3.7c0-2.3,1.3-3.7,3.2-3.7
			C88,77.2,89.3,78.7,89.3,80.9 M91.3,80.9c0-1.4-0.4-2.7-1.3-3.6c-0.9-1-2.3-1.6-3.9-1.6c-1.5,0-2.8,0.6-3.7,1.5
			c-0.9,1-1.5,2.3-1.5,3.8c0,1.6,0.6,3,1.6,3.9c0.9,0.8,2.1,1.3,3.6,1.3c1.5,0,2.8-0.5,3.7-1.5C90.8,83.7,91.3,82.4,91.3,80.9
			 M79.2,75.8h-8.1v1.6h3V86H76v-8.6h2.8L79.2,75.8z M66.6,81.9h-2.5l0.9-2.4c0.2-0.5,0.3-0.9,0.4-1.2h0c0.1,0.3,0.2,0.8,0.4,1.3
			L66.6,81.9z M70.2,86l-4.1-10.2h-1.4l-4,10.2h1.8l0.9-2.5h3.6l1,2.5H70.2z M60.3,75.8h-1.9l-2.4,5.8c-0.3,0.6-0.5,1.2-0.7,1.8h0
			c-0.2-0.6-0.4-1.2-0.6-1.8l-2.2-5.7h-2L54.5,86h1.3L60.3,75.8z M46.4,80.9c0,2.3-1.3,3.7-3.2,3.7c-1.9,0-3.2-1.4-3.2-3.7
			c0-2.3,1.3-3.7,3.2-3.7C45.1,77.2,46.4,78.7,46.4,80.9 M48.3,80.9c0-1.4-0.4-2.7-1.3-3.6c-0.9-1-2.3-1.6-3.9-1.6
			c-1.5,0-2.8,0.6-3.7,1.5c-0.9,1-1.5,2.3-1.5,3.8c0,1.6,0.6,3,1.6,3.9c0.9,0.8,2.1,1.3,3.6,1.3c1.5,0,2.8-0.5,3.7-1.5
			C47.8,83.7,48.3,82.4,48.3,80.9 M34.6,86V75.8h-1.9v5.7c0,0.4,0,1,0,1.5h0c-0.2-0.4-0.5-0.8-1-1.4l-4.4-5.7h-1.9V86h1.9v-6
			c0-0.5,0-1,0-1.4h0c0.3,0.4,0.6,0.8,1,1.4l4.6,6H34.6z M21.5,86V75.8h-1.9v5.7c0,0.4,0,1,0,1.5h0c-0.2-0.4-0.5-0.8-1-1.4l-4.4-5.7
			h-1.9V86h1.9v-6c0-0.5,0-1,0-1.4h0c0.3,0.4,0.6,0.8,1,1.4l4.6,6H21.5z M8.5,75.8H6.6V86h1.9V75.8z"/>
	</g>
</g>
</svg>
