<?xml version="1.0" encoding="utf-8"?>
<!-- Generator: Adobe Illustrator 23.0.1, SVG Export Plug-In . SVG Version: 6.00 Build 0)  -->
<svg version="1.1" id="Layer_1" xmlns="http://www.w3.org/2000/svg" xmlns:xlink="http://www.w3.org/1999/xlink" x="0px" y="0px"
	 viewBox="0 0 250 47.3" style="enable-background:new 0 0 250 47.3;" xml:space="preserve">
<style type="text/css">
	.st0{fill:#FFFFFF;}
</style>
<g>
	<path class="st0" d="M81.7,27.6v-6.6h10.2v14.6c0,7.4-3.7,11.6-10.9,11.6c-7.2,0-10.9-4.2-10.9-11.6v-24C70.2,4.2,73.9,0,81.1,0
		c7.2,0,10.9,4.2,10.9,11.6v4.5H85v-4.9c0-3.3-1.4-4.5-3.8-4.5c-2.3,0-3.8,1.2-3.8,4.5v25c0,3.3,1.4,4.5,3.8,4.5
		c2.3,0,3.8-1.2,3.8-4.5v-8.5H81.7z M55.9,47.3c-7.2,0-10.9-4.2-10.9-11.6V0.5h7.3v35.6c0,3.3,1.4,4.5,3.8,4.5
		c2.3,0,3.7-1.2,3.7-4.5V0.5h6.9v35.2C66.8,43.1,63.1,47.3,55.9,47.3 M23.9,46.7V0.5h7.3v39.6h12v6.6L23.9,46.7L23.9,46.7z
		 M14.3,11.5c0-3.3-1.3-4.3-3.6-4.3H7.3v15.6h3.4c2.3,0,3.6-1.1,3.6-4.3V11.5z M10.7,29.4H7.3v17.3H0V0.5h10.7
		c7.3,0,10.9,4,10.9,11.4v6C21.6,25.3,18,29.4,10.7,29.4"/>
	<path class="st0" d="M240.8,31.4v15.3h-7.3V31.4l-9.2-30.9h7.6l5.6,21.1l5.6-21.1h6.9L240.8,31.4z M214.5,8.7L211,32.1h7L214.5,8.7
		z M220.2,46.8l-1.3-8.4H210l-1.3,8.4H202l7.4-46.2h10.7l7.4,46.2H220.2z M182.6,46.8V0.5h7.3v39.6h12v6.6H182.6z M172.9,11.5
		c0-3.3-1.3-4.3-3.6-4.3h-3.4v15.6h3.4c2.3,0,3.6-1.1,3.6-4.3V11.5z M169.3,29.4h-3.4v17.3h-7.3V0.5h10.7c7.3,0,10.9,4,10.9,11.4v6
		C180.2,25.3,176.6,29.4,169.3,29.4"/>
	<path class="st0" d="M149.2,14.3c0-2.6-1.1-3.4-2.8-3.4h-3.2v25.3h3.2c1.8,0,2.8-0.9,2.8-3.4V14.3z M146.4,41.2h-8.8V5.8h8.8
		c5.6,0,8.3,3.1,8.3,8.7v17.9C154.7,38.1,152,41.2,146.4,41.2 M128.6,41.2l-7-25.6v25.6h-5V5.8h7l5.7,21.2V5.8h5v35.4H128.6z
		 M104.9,12l-2.7,17.9h5.4L104.9,12z M109.3,41.2l-1-6.4h-6.8l-1,6.4h-5.1l5.7-35.4h8.2l5.7,35.4H109.3z"/>
</g>
</svg>
