<svg enable-background="new 0 0 60.6 59.9" viewBox="0 0 60.6 59.9" xmlns="http://www.w3.org/2000/svg"><g fill="#fff"><path d="m39 49.5c-11.9 6.5-24.6 10.3-29.3 7.8-5.1-2.9-7.7-16.4-7.7-27.2 0-10.7 2.7-24.4 7.7-27.2 4.4-2.4 17.6 1.4 29.3 7.8 10.1 5.6 19.6 14.3 19.6 19.4 0 5.3-9.3 13.7-19.6 19.4m1-40.6c-7.8-4.3-19.5-8.9-26.8-8.9-1.9 0-3.4.3-4.6.9-2.7 1.5-5 5.5-6.6 11.7-1.2 5.2-2 11.5-2 17.3 0 11.7 2.7 25.7 8.7 29 1.2.7 2.8 1 4.8 1 7.5 0 19-4.8 26.5-9 8.3-4.6 20.6-13.9 20.6-21 0-6.6-12-16.3-20.6-21"/><path d="m16.4 22c0 .1.1.1.2.1h1c.1 0 .1 0 .2-.1 0 0 0-.1 0-.2-.2-.7-1-3-1.1-3-.1-.1 0-.3.2-.4l.4-.1h.1c.1 0 .1 0 .1.1.2.4.3.6.4 1.1 0 .1.1.1.2.1h.8.1v-.1c-.2-.7-.4-1.3-.7-2-.1-.1-.2-.3-.4-.3 0 0-.1 0-.2 0-.3.1-.6.1-.9.2s-.5.2-.8.3c-.8.3-.8.9-.6 1.5.1.4.6 1.7.9 2.5 0 0 0 .2.1.3m8.4-4.4c-.3-.1-.5-.2-.8-.3s-.6-.2-.9-.2c-.1 0-.1 0-.2 0-.3 0-.4.2-.4.3-.3.6-.5 1.2-.7 2v.1h.1.8c.1 0 .2 0 .2-.1.1-.4.2-.7.4-1.1 0 0 .1-.1.1-.1h.1l.4.1c.2.1.2.3.2.4 0 0-.8 2.3-1.1 3v.2s.1.1.2.1h1c.1 0 .2 0 .2-.1s.1-.2.1-.4c.3-.8.8-2.1.9-2.5.2-.5.2-1.1-.6-1.4m-4.9 4.5h1c.2 0 .2-.2.2-.2s.1-4.2.1-4.8c0 0 0-.1-.1-.2h-.1c-.2 0-.4 0-.6 0-.3 0-.5 0-.6 0h-.1c-.1.1-.1.2-.1.2 0 .6.1 4.8.1 4.8s0 .2.2.2m-3.5 1.3v.9c0 .2.1.3.3.3h7.4c.2 0 .3-.1.3-.3v-.9c0-.2-.2-.4-.4-.4h-7.2c-.2 0-.4.2-.4.4m3.9-7.5s.1.1.1.1c.1 0 .1 0 .1-.1.3-.3.6-.6.9-.9 0-.1.1-.1 0-.2-.3-.4-.6-.7-1-1h-.1s0 0-.1 0c-.4.3-.7.6-1 1-.1.1 0 .2 0 .2.4.3.7.6 1.1.9m11.2 14.7c-.5-.3-1.1-.5-1.7-.6-.1 0-.5-.1-.6-.1-.7-.2-1.3-.3-1.3-.7s.4-.7 1-.7c.8 0 1.8.2 2.9.6.1 0 .1 0 .1-.1v-1.6c0-.1-.1-.2-.2-.3-.4-.1-1.6-.5-2.6-.5-1.1 0-2 .2-2.7.7-.6.5-1 1.2-1 2 0 1.9 1.5 2.2 3 2.5.2.1.2 0 .3.1.7.1 1.3.3 1.3.8 0 .2-.1.3-.2.4-.2.2-.5.3-1 .3-.9 0-2.6-.4-3.2-.6-.1 0-.1 0-.1.1v1.7c0 .1.1.2.2.3 0 0 1.5.5 2.9.5 2.5 0 3.8-1 3.8-2.7.1-1-.2-1.6-.9-2.1m-21.1 2.4h-1s-.1 0-.1-.1v-3.9s0-.1.1-.1h.9c1.8 0 2.4 1 2.4 2 .1.6-.2 2.1-2.3 2.1m0-6.2h-3.2c-.1 0-.3.1-.3.3v9.8c0 .5.2.9.5 1.2.4.4 1.7 1.2 1.8 1.2s.1 0 .1-.1v-3.9s0-.1.1-.1h.9c3 0 4.8-1.7 4.8-4.1s-1.6-4.3-4.7-4.3m27.9 6.4c-.1 0-.6.2-1 .2-.7 0-1.2-.4-1.2-1.5v-3.1s0-.1.1-.1h2s.1 0 .1-.1v-1.6c0-.1-.1-.3-.3-.3h-1.8s-.1 0-.1-.1v-2.2c0-.1 0-.1-.1-.1-.2 0-1.4.8-1.8 1.2-.3.3-.5.8-.5 1.2v5.4c0 2.3 1.3 3.1 2.8 3.1.8 0 1.4-.1 1.7-.3.1 0 .1-.1.1-.2zm-17.9.1c-1.1 0-1.9-.8-1.9-2.3 0-1.6.8-2.3 1.9-2.3s1.9.7 1.9 2.3c0 1.5-.8 2.3-1.9 2.3m0-6.7c-2.4 0-4.4 1.4-4.4 4.4s1.9 4.4 4.4 4.4c2.4 0 4.4-1.4 4.4-4.4s-2-4.4-4.4-4.4m30.9-2.7c-.4-.4-1.6-1.2-1.8-1.2-.1 0-.1 0-.1.1v12.4h2.2.1v-10c.1-.5-.1-.9-.4-1.3m-6.4 2.8c-.5 0-1.1.1-1.7.3-.3.1-.6.3-.9.5l-.1.1s-.1 0-.1-.1v-.6s0-.1-.1-.1h-2c-.1 0-.2.1-.2.2v8.1h.1 2.2.1v-5.7s0-.1.1-.1c.1-.1.4-.2.8-.5.4-.2.8-.3 1.1-.3.9 0 1.3.5 1.3 1.6v5h.1 2.2.1v-5.4c-.2-2-1.2-3-3-3"/></g></svg>