<?xml version="1.0" encoding="utf-8"?>
<!-- Generator: Adobe Illustrator 23.0.1, SVG Export Plug-In . SVG Version: 6.00 Build 0)  -->
<svg version="1.1" id="Layer_1" xmlns="http://www.w3.org/2000/svg" xmlns:xlink="http://www.w3.org/1999/xlink" x="0px" y="0px"
	 viewBox="0 0 209.3 105.1" style="enable-background:new 0 0 209.3 105.1;" xml:space="preserve">
<style type="text/css">
	.st0{fill:#FFFFFF;}
</style>
<g>
	<rect x="112.3" y="33.9" class="st0" width="7.4" height="2.8"/>
	<polygon class="st0" points="86.6,45.8 90.2,45.8 90.2,23.2 86.4,23.2 86.4,45.8 	"/>
	<polygon class="st0" points="94.1,45.8 97.7,45.8 97.7,23.2 93.9,23.2 93.9,45.8 	"/>
	<path class="st0" d="M76.1,43.1c-2.4,0-4.1-2.1-4.1-5.2c0-3.1,1.8-5.2,4.1-5.2c2.4,0,4.1,2,4.1,5.2C80.2,41,78.5,43.1,76.1,43.1
		 M76.1,29.8c-4.8,0-7.9,3.3-7.9,8.2c0,4.9,3.1,8.2,7.9,8.2c4.8,0,7.8-3.3,7.8-8.2C84,33.1,80.9,29.8,76.1,29.8"/>
	<path class="st0" d="M58.4,27.1h-1.3c-0.5,0-0.9,0-1.2,0v6.8h2.2c2.6,0,4.4-1.3,4.4-3.5C62.5,28.3,61.1,27.1,58.4,27.1 M65.7,39.3
		c0.8,2.5,1.2,5,1.5,6.4l-4,0c-0.2-1.3-0.5-3.1-1.2-5.2c-0.8-2.6-1.8-3.7-4.2-3.7H56v8.9h-3.8V24c0.8,0,1.8-0.1,2.8-0.1H58
		c3.1,0,5.1,0.6,6.5,1.9c1.2,1,1.8,2.5,1.8,4.3c0,2.9-1.7,4.5-3.5,5.2C64.1,36,65,37.1,65.7,39.3"/>
	<path class="st0" d="M101.1,42.2c0.9,0.5,2.5,1.1,3.8,1.1c1.9,0,2.6-0.6,2.6-1.7c0-1.2-0.6-1.7-2.6-2.4c-2.9-1-4.2-2.7-4.2-4.6
		c0-2.6,2.2-4.8,5.7-4.8c1.6,0,3.1,0.5,4,1l-0.7,2.5c-0.8-0.4-1.8-0.7-3.2-0.7c-1.4,0-2,0.7-2,1.6c0,1.1,1.1,1.7,2.5,2.2
		c2.8,0.9,4.3,2.5,4.3,4.8c0,2.8-2.4,4.8-6.3,4.8c-1.8,0-3.5-0.4-4.5-1.2L101.1,42.2"/>
	<path class="st0" d="M154.2,52.7c2.3,0.4,4.4-0.6,5.8-1.9c1.9-1.8,3.2-4.2,5.2-9.8l4-10.6l0.1-0.2h-3.8l0,0.1l-3.6,10.5l-3.8-10.5
		l0-0.1h-4.1l0.1,0.2l5.9,14.8c-0.5,1.3-1.2,2.4-2,3.2c-0.9,0.9-2.3,1.3-3.7,1.1V52.7"/>
	<path class="st0" d="M146.2,43.2c-2.4,0-4.1-2-4.1-5.2c0-3.1,1.8-5.2,4.1-5.2c2.4,0,4.1,2,4.1,5.2
		C150.3,41.1,148.5,43.2,146.2,43.2 M146.2,29.8c-4.7,0-7.9,3.4-7.9,8.2c0,4.9,3.2,8.2,7.9,8.2c4.7,0,7.8-3.3,7.8-8.2
		C154,33.2,150.8,29.8,146.2,29.8"/>
	<path class="st0" d="M128.6,27.1h-1.3c-0.5,0-0.9,0-1.2,0v6.8h2.2c2.6,0,4.4-1.3,4.4-3.5C132.8,28.3,131.3,27.1,128.6,27.1
		 M135.9,39.3c0.8,2.5,1.2,5,1.5,6.4l-4,0c-0.2-1.3-0.5-3.1-1.2-5.2c-0.8-2.6-1.8-3.7-4.2-3.7h-1.8v8.9h-3.8V24
		c0.8,0,1.8-0.1,2.8-0.1h3.1c3.1,0,5.1,0.6,6.5,1.9c1.2,1,1.8,2.5,1.8,4.3c0,2.9-1.7,4.5-3.5,5.2C134.4,36,135.2,37.1,135.9,39.3"/>
	<path class="st0" d="M181.4,45.2c-0.8,0.4-2.4,0.8-4.4,0.8c-4.5,0-7.9-3.1-7.9-7.9c0-4.7,3-8.3,8.5-8.3c1.5,0,3,0.4,3.8,0.8
		l-0.7,2.7c-0.7-0.3-1.6-0.5-3.1-0.5c-3.2,0-4.7,2.1-4.7,5.1c0,3.3,1.8,5.2,4.7,5.2c1.4,0,2.5-0.3,3.2-0.7L181.4,45.2"/>
	<path class="st0" d="M192.8,36.2c0-1.5-0.4-3.6-3.3-3.6c-2.6,0-3.4,1.9-3.5,3.6H192.8 M185.9,38.9c0.1,3.2,2,4.3,4.7,4.3
		c1.9,0,3.2-0.3,4.3-0.7l0.6,2.6c-1.2,0.5-3,1.1-5.3,1.1c-4.9,0-7.8-3.2-7.8-7.9c0-4.4,2.7-8.3,7.5-8.3c5,0,6.6,4.3,6.6,7.4
		c0,0.7,0,1.2-0.1,1.5L185.9,38.9z"/>
	<path class="st0" d="M39.2,17.1c0-2-1.7-3.7-3.7-3.7H16.7c-2,0-3.7,1.7-3.7,3.7v35.3c0,2,1.7,3.7,3.7,3.7h18.8c2,0,3.7-1.7,3.7-3.7
		V17.1 M14.3,17.1c0-1.3,1.1-2.4,2.4-2.4h18.8c1.4,0,2.5,1.1,2.5,2.4v35.3c0,1.3-1.1,2.4-2.5,2.4H16.7c-1.3,0-2.4-1.1-2.4-2.4V17.1z
		"/>
	<g>
		<path class="st0" d="M18.8,17.2h-0.9v1.1h0.9c0.5,0,0.8-0.1,0.8-0.5C19.6,17.4,19.3,17.2,18.8,17.2z"/>
		<path class="st0" d="M23,17.2c-0.3,0-0.6,0.1-0.8,0.3c-0.2,0.2-0.3,0.6-0.3,1c0,0.5,0.1,0.8,0.3,1c0.2,0.2,0.5,0.3,0.8,0.3
			c0.3,0,0.6-0.1,0.8-0.3c0.2-0.2,0.4-0.5,0.4-1c0-0.4-0.1-0.8-0.4-1C23.6,17.3,23.3,17.2,23,17.2z"/>
		<path class="st0" d="M35.5,15.7H16.7c-0.8,0-1.4,0.6-1.4,1.4v4.2h21.6v-4.2C36.9,16.3,36.3,15.7,35.5,15.7z M19.7,20.3
			c-0.2-0.4-0.4-0.8-0.6-1.1c-0.1-0.2-0.3-0.3-0.6-0.3h-0.6v0.7c0,0.3,0.1,0.7,0.3,0.8h-1.4c0.2-0.1,0.3-0.5,0.3-0.8v-2.1
			c0-0.3-0.1-0.7-0.3-0.8h1.9c0.5,0,0.8,0,1,0.1c0.4,0.1,0.6,0.5,0.6,1c0,0.5-0.3,0.8-0.9,0.9c0.3,0.1,0.4,0.4,0.6,0.7
			c0.2,0.4,0.3,0.7,0.7,0.9H19.7z M24.3,20c-0.3,0.3-0.8,0.4-1.3,0.4c-0.5,0-0.9-0.1-1.3-0.4c-0.4-0.3-0.7-0.8-0.7-1.5
			c0-0.7,0.3-1.2,0.7-1.5c0.3-0.3,0.8-0.4,1.3-0.4c0.5,0,0.9,0.1,1.3,0.4c0.4,0.3,0.7,0.8,0.7,1.5C24.9,19.2,24.7,19.7,24.3,20z
			 M28.2,20.3h-2.8c0.2-0.1,0.3-0.5,0.3-0.8v-2.1c0-0.3-0.1-0.7-0.3-0.8h1.3c-0.2,0.1-0.3,0.5-0.3,0.8v2.3h0.7
			c0.5,0,0.9-0.1,1.1-0.4L28.2,20.3z M31.6,20.4h-2.8c0.2-0.1,0.3-0.5,0.3-0.8v-2.1c0-0.3-0.1-0.7-0.3-0.8h1.3
			c-0.2,0.1-0.3,0.5-0.3,0.8v2.3h0.7c0.5,0,0.9-0.1,1.1-0.4L31.6,20.4z M33.8,20.4c-0.5,0-1-0.1-1.4-0.3v-0.9
			c0.1,0.1,0.3,0.3,0.4,0.3c0.4,0.2,0.7,0.2,1,0.2c0.5,0,0.8-0.2,0.8-0.6c0-0.4-0.4-0.5-1-0.5c-0.8-0.1-1.2-0.5-1.2-1.1
			c0-0.6,0.6-1.1,1.4-1.1c0.6,0,1,0.1,1.2,0.2v0.8c-0.1-0.1-0.3-0.2-0.5-0.3c-0.2-0.1-0.5-0.1-0.8-0.1c-0.4,0-0.7,0.2-0.7,0.4
			c0,0.4,0.3,0.4,1.1,0.5c0.7,0.1,1.2,0.5,1.1,1.1C35.4,19.9,34.8,20.4,33.8,20.4z"/>
	</g>
	<g>
		<path class="st0" d="M15.3,22.3v25h21.6v-25H15.3z M25.8,45.8H21c0.5-0.3,1.3-0.8,1.3-2.5v-7.6c0.8-0.1,1.6-0.2,2.3-0.4v1.2
			c0.3,0,0.7,0,1-0.1c0.2,0.4,0.4,0.8,0.6,1.3c-0.5,0-1,0.1-1.6,0.1v5.6C24.6,45,25.4,45.4,25.8,45.8z M26.7,43.2
			c0.4-0.4,0.9-1.2,0.7-2.7c-0.3-2.1-1.2-4.4-2.4-5.8c-1.3,0.4-2.9,0.6-4.6,0.6v5.6c0,1.7,0.8,2.1,1.3,2.5h-4.8
			c0.5-0.3,1.3-0.7,1.3-2.5V26.5c0-1.7-0.8-2.1-1.3-2.5h7c1.8,0,3.3,0.3,4.4,1c1.4,0.9,2.1,2.5,2.1,4c0,2.1-1.3,3.9-3.3,5
			c-0.1,0-0.1,0.1-0.2,0.1c1.8,2.1,2.7,5,3.2,7.1c0.2,1.1,0.7,1.7,1.1,2.1H26.7z M31.5,45.7c0.4-0.4,0.9-1.2,0.7-2.7
			c-0.3-2.2-1.3-4.5-2.6-6c-0.1,0-0.3,0.1-0.4,0.1c-0.2-0.4-0.4-0.9-0.6-1.3c2.7-0.9,3.5-2.7,3.5-4.3c0-1.2-0.5-2.2-1.3-2.9
			c0-0.7-0.2-1.3-0.5-1.9c0.8,0.2,1.5,0.4,2.1,0.8c1.4,0.9,2.1,2.5,2.1,4c0,2.1-1.2,3.8-3.2,4.9c2,2.2,3,5.2,3.4,7.3
			c0.2,1.1,0.7,1.7,1.1,2.1H31.5z"/>
		<path class="st0" d="M27.9,29c0-1.3-0.5-2.3-1.4-3c-0.7-0.5-1.6-0.7-2.8-0.8h-3.3v8.7C26.4,33.8,27.9,31.1,27.9,29z M24.6,32.7
			c-0.7,0.3-1.4,0.5-2.3,0.6V29c0-1.7-0.8-2.1-1.3-2.5h5.2c0.5,0.3,0.8,0.8,1,1.3h-2.6V32.7z"/>
	</g>
	<g>
		<path class="st0" d="M22.7,49.9c-0.3,0-0.6,0.1-0.8,0.3c-0.2,0.2-0.3,0.5-0.3,0.9c0,0.4,0.1,0.7,0.3,0.9c0.2,0.2,0.4,0.3,0.8,0.3
			c0.3,0,0.6-0.1,0.7-0.3c0.2-0.2,0.3-0.5,0.3-0.9c0-0.4-0.1-0.7-0.3-0.9C23.3,50,23,49.9,22.7,49.9z"/>
		<path class="st0" d="M18.7,49.9h-0.8v1h0.8c0.5,0,0.7-0.1,0.7-0.5C19.4,50,19.1,49.9,18.7,49.9z"/>
		<path class="st0" d="M15.3,48.3v4.2c0,0.8,0.6,1.4,1.4,1.4h18.8c0.8,0,1.4-0.6,1.4-1.4v-4.2H15.3z M19.5,52.8
			c-0.2-0.3-0.4-0.8-0.6-1.1c-0.1-0.2-0.3-0.3-0.6-0.3h-0.5v0.6c0,0.3,0.1,0.7,0.3,0.8h-1.3c0.2-0.1,0.3-0.5,0.3-0.8v-2
			c0-0.3-0.1-0.7-0.3-0.8h1.8c0.5,0,0.8,0,1,0.1c0.4,0.1,0.6,0.5,0.6,1c0,0.5-0.3,0.8-0.8,0.9c0.2,0.1,0.4,0.4,0.6,0.7
			c0.2,0.4,0.3,0.7,0.6,0.9L19.5,52.8z M23.9,52.5c-0.3,0.3-0.7,0.4-1.2,0.4c-0.5,0-0.9-0.1-1.2-0.4c-0.4-0.3-0.6-0.8-0.6-1.4
			c0-0.7,0.3-1.1,0.6-1.5c0.3-0.2,0.7-0.4,1.2-0.4c0.5,0,0.9,0.1,1.2,0.4c0.4,0.3,0.6,0.8,0.6,1.5C24.6,51.8,24.3,52.2,23.9,52.5z
			 M28,50l-1.1,1.5v0.6c0,0.3,0.1,0.7,0.3,0.8h-1.3c0.2-0.1,0.3-0.5,0.3-0.8v-0.6L25,49.9c-0.2-0.3-0.3-0.5-0.6-0.6h1.4
			c-0.1,0-0.1,0.1-0.1,0.2c0,0.1,0.1,0.2,0.1,0.4l0.7,1l0.7-1c0.1-0.1,0.1-0.2,0.1-0.3c0-0.1,0-0.1-0.1-0.2h1.3
			C28.4,49.4,28.1,49.8,28,50z M31.5,52.7c-0.2,0.1-0.5,0.2-1.1,0.2c-1.2,0-2-0.7-2-1.8c0-0.6,0.2-1.1,0.6-1.4
			c0.3-0.3,0.8-0.5,1.3-0.5c0.5,0,0.9,0.1,1.1,0.2v0.8c-0.2-0.2-0.6-0.4-1.1-0.4c-0.7,0-1.1,0.5-1.1,1.3c0,0.7,0.4,1.2,1.1,1.2
			c0.5,0,1-0.1,1.2-0.4L31.5,52.7z M35.1,52.9h-2.8c0.2-0.1,0.3-0.5,0.3-0.8v-2c0-0.3-0.1-0.7-0.3-0.8h2.8v0.8
			c-0.2-0.2-0.6-0.2-1-0.2h-0.8v0.9h1.4l-0.1,0.5h-1.4v1h0.9c0.5,0,0.8,0,1.1-0.3L35.1,52.9z"/>
	</g>
	<path class="st0" d="M196.3,87.7v-4.5h-1.8v3.3c-0.4,0.1-0.8,0.2-1.2,0.2c-2,0-3-1.2-3-3.2c0-1.8,0.9-3.3,3.2-3.3
		c0.9,0,1.7,0.2,2.4,0.4l0.4-1.7c-0.8-0.2-1.7-0.4-2.7-0.4c-3.4,0-5.3,2.1-5.3,5.2c0,2.8,1.7,4.6,4.8,4.6
		C194.2,88.3,195.3,88.1,196.3,87.7 M184.8,84.8h-2.7l1-2.8c0.1-0.5,0.3-0.9,0.4-1.3h0c0.1,0.4,0.2,0.8,0.4,1.3L184.8,84.8z
		 M188,88.2l-3.3-9.5h-2.1l-3.3,9.5h1.8l0.7-1.9h3.6l0.6,1.9H188z M175.6,86c0-2.3-2.9-1.7-2.9-2.9c0-0.4,0.3-0.7,1-0.7
		c0.4,0,0.9,0.1,1.3,0.2l0.1-1.4c-0.4-0.1-0.9-0.1-1.3-0.1c-2,0-3,1-3,2.2c0,2.4,2.8,1.6,2.8,2.9c0,0.5-0.4,0.8-1.1,0.8
		c-0.5,0-1.1-0.1-1.5-0.3l-0.1,1.5c0.4,0.1,1,0.2,1.6,0.2C174.4,88.3,175.6,87.4,175.6,86 M169.3,88.2v-4.8c0-1.6-0.7-2.3-2.1-2.3
		c-1.2,0-1.9,0.7-2.3,1.4c-0.2-0.7-0.7-1.4-1.9-1.4c-1,0-1.9,0.5-2.3,1.4l0,0c0.1-0.4,0.1-0.9,0.1-1.2c-0.9,0-2,0-2.9,0.1v1.1
		c0.4,0,0.9,0.1,1.2,0.1v5.6h1.8v-3.3c0-1.3,0.8-2.3,1.6-2.3c0.7,0,0.8,0.5,0.8,1.2v4.4h1.8v-3.3c0-1.4,0.8-2.3,1.6-2.3
		c0.7,0,0.8,0.5,0.8,1.2v4.4H169.3z M155.4,83.8h-2.6c0.1-0.9,0.6-1.4,1.4-1.4C155,82.4,155.4,82.9,155.4,83.8 M157.2,84
		c0-1.7-0.9-3-2.9-3c-2.1,0-3.3,1.6-3.3,3.7c0,2.5,1.2,3.6,3.4,3.6c0.9,0,1.8-0.2,2.5-0.4l-0.2-1.4c-0.7,0.3-1.4,0.4-2,0.4
		c-1.3,0-1.9-0.6-1.9-1.9h4.3C157.2,84.7,157.2,84.3,157.2,84 M150.1,88.1l-0.1-1.4c-0.2,0.1-0.5,0.1-0.8,0.1
		c-0.6,0-0.8-0.3-0.8-1.1v-3.1h1.7v-1.4h-1.7v-2.6l-1.8,0.5v2.1h-1.2v1.4h1.2v3.5c0,1.6,0.5,2.2,2,2.2
		C149.1,88.3,149.6,88.2,150.1,88.1 M144.7,86c0-2.3-2.9-1.7-2.9-2.9c0-0.4,0.3-0.7,1-0.7c0.4,0,0.9,0.1,1.3,0.2l0.1-1.4
		c-0.4-0.1-0.9-0.1-1.3-0.1c-2,0-3,1-3,2.2c0,2.4,2.8,1.6,2.8,2.9c0,0.5-0.4,0.8-1.1,0.8c-0.5,0-1.1-0.1-1.5-0.3l-0.1,1.5
		c0.4,0.1,1,0.2,1.6,0.2C143.5,88.3,144.7,87.4,144.7,86 M139.5,81.2h-1.9l-0.8,2.4c-0.2,0.6-0.5,1.6-0.7,2.2h0
		c-0.2-0.6-0.4-1.3-0.5-1.9l-0.9-2.7h-2l2.6,7l-0.2,0.6c-0.4,1.1-1,1.4-1.6,1.4c-0.3,0-0.6-0.1-0.9-0.1l-0.2,1.5
		c0.3,0.1,0.7,0.1,1,0.1c1.6,0,2.6-0.7,3.5-3.1L139.5,81.2z M132.3,85.3c0-3-4.1-2.4-4.1-4.1c0-0.7,0.5-1.1,1.6-1.1
		c0.6,0,1.1,0.1,1.6,0.3l0.2-1.6c-0.5-0.1-1.2-0.2-1.7-0.2c-2.3,0-3.6,1.2-3.6,2.8c0,3.1,4,2.3,4,4.1c0,0.9-0.7,1.2-1.6,1.2
		c-0.8,0-1.5-0.2-2.1-0.4l-0.2,1.8c0.6,0.2,1.3,0.2,2.2,0.2C130.8,88.3,132.3,87,132.3,85.3 M122.5,81.1c-1.2-0.1-1.9,0.7-2.3,1.5h0
		c0.1-0.5,0.1-1,0.1-1.4c-0.9,0-2,0-2.9,0.1v1.1c0.4,0,0.9,0.1,1.2,0.1v5.6h1.8v-2.8c0-1.9,0.6-2.8,2-2.5L122.5,81.1z M114.9,83.8
		h-2.6c0.1-0.9,0.6-1.4,1.4-1.4C114.4,82.4,114.9,82.9,114.9,83.8 M116.7,84c0-1.7-0.9-3-2.9-3c-2.1,0-3.3,1.6-3.3,3.7
		c0,2.5,1.2,3.6,3.4,3.6c0.9,0,1.8-0.2,2.5-0.4l-0.2-1.4c-0.7,0.3-1.4,0.4-2,0.4c-1.3,0-1.9-0.6-1.9-1.9h4.3
		C116.7,84.7,116.7,84.3,116.7,84 M110,81.2h-1.8l-0.8,2.7c-0.2,0.7-0.3,1.3-0.5,2h0c-0.1-0.7-0.3-1.3-0.6-2.1l-0.9-2.6h-1.7
		l-0.8,2.7c-0.2,0.6-0.4,1.2-0.5,2h0c-0.2-0.7-0.4-1.4-0.5-2.1l-0.7-2.6h-2l2.1,7h1.9l0.9-2.9c0.2-0.6,0.3-1.1,0.5-1.8h0
		c0.1,0.6,0.3,1.1,0.4,1.6l1,3.1h1.9L110,81.2z M96.7,84.6c0,1.4-0.7,2.1-1.6,2.1c-1,0-1.6-0.7-1.6-2.2c0-1.4,0.8-2,1.6-2
		C96.2,82.6,96.7,83.3,96.7,84.6 M98.6,84.5c0-2.4-1.3-3.5-3.3-3.5c-2.1,0-3.6,1.6-3.6,3.7c0,2.5,1.3,3.5,3.2,3.5
		C97.1,88.3,98.6,86.7,98.6,84.5 M89.3,81.7c0,1-0.8,1.6-1.9,1.7c-0.2,0-0.4,0-0.5,0v-3.2c0.2,0,0.4,0,0.6,0
		C88.8,80.1,89.3,80.7,89.3,81.7 M91.2,81.6c0-1.9-1.3-2.9-3.6-2.9c-0.9,0-1.8,0-2.5,0.1v9.5h1.8v-3.3c0.2,0,0.4,0,0.6,0
		C89.8,84.9,91.2,83.4,91.2,81.6 M78.7,83.8h-2.6c0.1-0.9,0.6-1.4,1.4-1.4C78.3,82.4,78.7,82.9,78.7,83.8 M80.5,84
		c0-1.7-0.9-3-2.9-3c-2.1,0-3.3,1.6-3.3,3.7c0,2.5,1.2,3.6,3.4,3.6c0.9,0,1.8-0.2,2.5-0.4l-0.2-1.4c-0.7,0.3-1.4,0.4-2,0.4
		c-1.3,0-1.9-0.6-1.9-1.9h4.3C80.5,84.7,80.5,84.3,80.5,84 M73.5,88l-0.2-1.5c-0.4,0.2-0.9,0.3-1.4,0.3c-1.2,0-1.6-0.8-1.6-2
		c0-1.3,0.5-2.1,1.6-2.1c0.5,0,0.9,0.1,1.3,0.3l0.3-1.5c-0.4-0.2-1-0.2-1.5-0.2c-2.4,0-3.5,1.7-3.5,3.8c0,2.4,1.2,3.4,3.1,3.4
		C72.2,88.3,72.9,88.2,73.5,88 M68.1,81.2h-1.9l-0.8,2.4c-0.2,0.6-0.5,1.6-0.7,2.2h0c-0.2-0.6-0.4-1.3-0.5-1.9l-0.9-2.7h-2l2.6,7
		l-0.2,0.6c-0.4,1.1-1,1.4-1.6,1.4c-0.3,0-0.6-0.1-0.9-0.1l-0.2,1.5c0.3,0.1,0.7,0.1,1,0.1c1.6,0,2.6-0.7,3.5-3.1L68.1,81.2z
		 M58.8,84.6c0,1.4-0.7,2.1-1.6,2.1c-1,0-1.6-0.7-1.6-2.2c0-1.4,0.8-2,1.6-2C58.3,82.6,58.8,83.3,58.8,84.6 M60.7,84.5
		c0-2.4-1.3-3.5-3.3-3.5c-2.1,0-3.6,1.6-3.6,3.7c0,2.5,1.3,3.5,3.3,3.5C59.2,88.3,60.7,86.7,60.7,84.5 M50.9,81.5
		c0,0.9-0.7,1.4-1.8,1.4c-0.3,0-0.5,0-0.7,0v-2.7c0.2,0,0.4,0,0.7,0C50.4,80.1,50.9,80.6,50.9,81.5 M53.5,88.2L51.3,85
		c-0.2-0.3-0.5-0.7-0.8-1c1.3-0.2,2.3-1.2,2.3-2.6c0-1.9-1.3-2.7-3.4-2.7c-1.1,0-2,0-2.7,0.1v9.5h1.8v-3.9h0.2l2.6,3.9H53.5z
		 M45.1,83.6h-3.4V85h3.4V83.6z M40.5,86c0-2.3-2.9-1.7-2.9-2.9c0-0.4,0.3-0.7,1-0.7c0.4,0,0.9,0.1,1.3,0.2l0.1-1.4
		c-0.4-0.1-0.9-0.1-1.3-0.1c-2,0-3,1-3,2.2c0,2.4,2.8,1.6,2.8,2.9c0,0.5-0.4,0.8-1.1,0.8c-0.5,0-1.1-0.1-1.5-0.3l-0.1,1.5
		c0.4,0.1,1,0.2,1.6,0.2C39.3,88.3,40.5,87.4,40.5,86 M34.2,88.2V77.9c-1,0-2.1,0-3,0.1v1.1c0.4,0,0.9,0.1,1.2,0.1v8.8H34.2z
		 M30.3,88.2V77.9c-1,0-2.1,0-3,0.1v1.1c0.4,0,0.9,0.1,1.2,0.1v8.8H30.3z M25.2,84.6c0,1.4-0.7,2.1-1.6,2.1c-1,0-1.6-0.7-1.6-2.2
		c0-1.4,0.8-2,1.6-2C24.7,82.6,25.2,83.3,25.2,84.6 M27,84.5c0-2.4-1.3-3.5-3.3-3.5c-2.1,0-3.6,1.6-3.6,3.7c0,2.5,1.3,3.5,3.3,3.5
		C25.6,88.3,27,86.7,27,84.5 M17.3,81.5c0,0.9-0.7,1.4-1.8,1.4c-0.3,0-0.5,0-0.7,0v-2.7c0.2,0,0.4,0,0.7,0
		C16.7,80.1,17.3,80.6,17.3,81.5 M19.8,88.2L17.6,85c-0.2-0.3-0.5-0.7-0.8-1c1.3-0.2,2.3-1.2,2.3-2.6c0-1.9-1.3-2.7-3.4-2.7
		c-1.1,0-2,0-2.7,0.1v9.5h1.8v-3.9H15l2.6,3.9H19.8z"/>
</g>
</svg>
