<?xml version="1.0" encoding="utf-8"?>
<!-- Generator: Adobe Illustrator 23.0.1, SVG Export Plug-In . SVG Version: 6.00 Build 0)  -->
<svg version="1.1" id="Layer_1" xmlns="http://www.w3.org/2000/svg" xmlns:xlink="http://www.w3.org/1999/xlink" x="0px" y="0px"
	 viewBox="0 0 250 53.2" style="enable-background:new 0 0 250 53.2;" xml:space="preserve">
<style type="text/css">
	.st0{fill:#FFFFFF;}
</style>
<g>
	<g>
		<path class="st0" d="M26.6,25.2c-0.8,0-1.4,0.6-1.4,1.4c0,0.8,0.6,1.4,1.4,1.4c0.8,0,1.4-0.6,1.4-1.4C28,25.8,27.4,25.2,26.6,25.2
			"/>
		<path class="st0" d="M30.2,24.4c0-0.8-0.6-1.4-1.4-1.4c-0.8,0-1.4,0.6-1.4,1.4c0,0.8,0.6,1.4,1.4,1.4
			C29.6,25.8,30.2,25.2,30.2,24.4"/>
		<path class="st0" d="M30.2,28.9c0-0.8-0.6-1.4-1.4-1.4c-0.8,0-1.4,0.6-1.4,1.4c0,0.8,0.6,1.4,1.4,1.4
			C29.6,30.3,30.2,29.7,30.2,28.9"/>
		<path class="st0" d="M31.3,25.1c-0.8,0-1.4,0.6-1.4,1.4c0,0.8,0.6,1.4,1.4,1.4c0.8,0,1.4-0.6,1.4-1.4
			C32.7,25.8,32.1,25.1,31.3,25.1"/>
		<path class="st0" d="M34,22.9c-0.8,0-1.4,0.6-1.4,1.4c0,0.8,0.6,1.4,1.4,1.4c0.8,0,1.4-0.6,1.4-1.4C35.4,23.5,34.8,22.9,34,22.9"
			/>
		<path class="st0" d="M33.9,27.5c-0.8,0-1.4,0.6-1.4,1.4c0,0.8,0.6,1.4,1.4,1.4c0.8,0,1.4-0.6,1.4-1.4
			C35.4,28.1,34.7,27.5,33.9,27.5"/>
		<path class="st0" d="M31.2,32.6c0.8,0,1.4-0.6,1.4-1.4c0-0.8-0.6-1.4-1.4-1.4c-0.8,0-1.4,0.6-1.4,1.4C29.7,32,30.4,32.6,31.2,32.6
			"/>
		<path class="st0" d="M30.4,34c0-0.8-0.6-1.4-1.4-1.4c-0.8,0-1.4,0.6-1.4,1.4c0,0.8,0.6,1.4,1.4,1.4C29.7,35.4,30.4,34.8,30.4,34"
			/>
		<path class="st0" d="M26.7,38.5c0.8,0,1.4-0.6,1.4-1.4c0-0.8-0.6-1.4-1.4-1.4c-0.8,0-1.4,0.6-1.4,1.4
			C25.2,37.8,25.9,38.5,26.7,38.5"/>
		<path class="st0" d="M37,25.1c-0.8,0-1.4,0.6-1.4,1.4c0,0.8,0.6,1.4,1.4,1.4c0.8,0,1.4-0.6,1.4-1.4C38.5,25.8,37.8,25.1,37,25.1"
			/>
		<path class="st0" d="M36.9,29.9c-0.8,0-1.4,0.6-1.4,1.4c0,0.8,0.6,1.4,1.4,1.4c0.8,0,1.4-0.6,1.4-1.4
			C38.3,30.6,37.7,29.9,36.9,29.9"/>
		<path class="st0" d="M40.2,27.8c-0.8,0-1.4,0.6-1.4,1.4c0,0.8,0.6,1.4,1.4,1.4c0.8,0,1.4-0.6,1.4-1.4C41.7,28.4,41,27.8,40.2,27.8
			"/>
		<path class="st0" d="M41.3,34.1c0-0.8-0.6-1.4-1.4-1.4c-0.8,0-1.4,0.6-1.4,1.4c0,0.8,0.6,1.4,1.4,1.4
			C40.6,35.5,41.3,34.9,41.3,34.1"/>
		<path class="st0" d="M37.8,36.3c0-0.8-0.6-1.4-1.4-1.4s-1.4,0.6-1.4,1.4c0,0.8,0.6,1.4,1.4,1.4S37.8,37.1,37.8,36.3"/>
		<path class="st0" d="M31.4,38.3c0.8,0,1.4-0.6,1.4-1.4c0-0.8-0.6-1.4-1.4-1.4c-0.8,0-1.4,0.6-1.4,1.4
			C29.9,37.6,30.6,38.3,31.4,38.3"/>
		<path class="st0" d="M29.1,41.7c0.8,0,1.4-0.6,1.4-1.4c0-0.8-0.6-1.4-1.4-1.4c-0.8,0-1.4,0.6-1.4,1.4C27.7,41,28.3,41.7,29.1,41.7
			"/>
		<path class="st0" d="M26.6,45.2c0.8,0,1.4-0.6,1.4-1.4s-0.6-1.4-1.4-1.4c-0.8,0-1.4,0.6-1.4,1.4S25.9,45.2,26.6,45.2"/>
		<path class="st0" d="M35.1,33.6c0-0.8-0.6-1.4-1.4-1.4c-0.8,0-1.4,0.6-1.4,1.4c0,0.8,0.6,1.4,1.4,1.4
			C34.4,35.1,35.1,34.4,35.1,33.6"/>
		<path class="st0" d="M43.6,30.4c-0.8,0-1.4,0.6-1.4,1.4c0,0.8,0.6,1.4,1.4,1.4c0.8,0,1.4-0.6,1.4-1.4C45,31.1,44.4,30.4,43.6,30.4
			"/>
		<path class="st0" d="M43.1,35.6c-0.8,0-1.4,0.6-1.4,1.4c0,0.8,0.6,1.4,1.4,1.4c0.8,0,1.4-0.6,1.4-1.4
			C44.5,36.3,43.9,35.6,43.1,35.6"/>
		<path class="st0" d="M46.6,38.7c-0.8,0-1.4,0.6-1.4,1.4c0,0.8,0.6,1.4,1.4,1.4c0.8,0,1.4-0.6,1.4-1.4
			C48.1,39.4,47.4,38.7,46.6,38.7"/>
		<path class="st0" d="M42.2,40.7c-0.8,0-1.4,0.6-1.4,1.4c0,0.8,0.6,1.4,1.4,1.4c0.8,0,1.4-0.6,1.4-1.4C43.7,41.4,43,40.7,42.2,40.7
			"/>
		<path class="st0" d="M40.7,39.2c0-0.8-0.6-1.4-1.4-1.4c-0.8,0-1.4,0.6-1.4,1.4c0,0.8,0.6,1.4,1.4,1.4C40,40.7,40.7,40,40.7,39.2"
			/>
		<path class="st0" d="M37.1,44.5c0.8,0,1.4-0.6,1.4-1.4s-0.6-1.4-1.4-1.4c-0.8,0-1.4,0.6-1.4,1.4S36.3,44.5,37.1,44.5"/>
		<path class="st0" d="M31.9,45c0.8,0,1.4-0.6,1.4-1.4c0-0.8-0.6-1.4-1.4-1.4c-0.8,0-1.4,0.6-1.4,1.4C30.4,44.4,31.1,45,31.9,45"/>
		<path class="st0" d="M35.5,39.8c0-0.8-0.6-1.4-1.4-1.4c-0.8,0-1.4,0.6-1.4,1.4c0,0.8,0.6,1.4,1.4,1.4
			C34.9,41.3,35.5,40.6,35.5,39.8"/>
		<path class="st0" d="M45.6,44.1c-0.8,0-1.4,0.6-1.4,1.4c0,0.8,0.6,1.4,1.4,1.4c0.8,0,1.4-0.6,1.4-1.4C47,44.8,46.4,44.1,45.6,44.1
			"/>
		<path class="st0" d="M40.1,45.1c-0.8,0-1.4,0.6-1.4,1.4c0,0.8,0.6,1.4,1.4,1.4c0.8,0,1.4-0.6,1.4-1.4
			C41.6,45.8,40.9,45.1,40.1,45.1"/>
		<path class="st0" d="M37.8,49.3c-0.8,0-1.4,0.6-1.4,1.4c0,0.8,0.6,1.4,1.4,1.4c0.8,0,1.4-0.6,1.4-1.4C39.2,50,38.6,49.3,37.8,49.3
			"/>
		<path class="st0" d="M34.7,45.7c-0.8,0-1.4,0.6-1.4,1.4c0,0.8,0.6,1.4,1.4,1.4c0.8,0,1.4-0.6,1.4-1.4
			C36.1,46.4,35.5,45.7,34.7,45.7"/>
		<path class="st0" d="M32.2,50.1c-0.8,0-1.4,0.6-1.4,1.4c0,0.8,0.6,1.4,1.4,1.4c0.8,0,1.4-0.6,1.4-1.4C33.6,50.7,33,50.1,32.2,50.1
			"/>
		<path class="st0" d="M29.3,46.1c-0.8,0-1.4,0.6-1.4,1.4c0,0.8,0.6,1.4,1.4,1.4c0.8,0,1.4-0.6,1.4-1.4
			C30.7,46.7,30.1,46.1,29.3,46.1"/>
		<path class="st0" d="M26.7,50.3c-0.8,0-1.4,0.6-1.4,1.4c0,0.8,0.6,1.4,1.4,1.4c0.8,0,1.4-0.6,1.4-1.4C28.1,51,27.5,50.3,26.7,50.3
			"/>
		<path class="st0" d="M23.9,46.1c-0.8,0-1.4,0.6-1.4,1.4c0,0.8,0.6,1.4,1.4,1.4c0.8,0,1.4-0.6,1.4-1.4
			C25.4,46.7,24.7,46.1,23.9,46.1"/>
		<path class="st0" d="M21,50.1c-0.8,0-1.4,0.6-1.4,1.4c0,0.8,0.6,1.4,1.4,1.4c0.8,0,1.4-0.6,1.4-1.4C22.5,50.7,21.8,50.1,21,50.1"
			/>
		<path class="st0" d="M15.6,49.3c-0.8,0-1.4,0.6-1.4,1.4c0,0.8,0.6,1.4,1.4,1.4c0.8,0,1.4-0.6,1.4-1.4C17,50,16.4,49.3,15.6,49.3"
			/>
		<path class="st0" d="M47.2,33.2c-0.8,0-1.4,0.6-1.4,1.4c0,0.8,0.6,1.4,1.4,1.4c0.8,0,1.4-0.6,1.4-1.4C48.7,33.9,48,33.2,47.2,33.2
			"/>
		<path class="st0" d="M50.8,36.2c-0.8,0-1.4,0.6-1.4,1.4c0,0.8,0.6,1.4,1.4,1.4c0.8,0,1.4-0.6,1.4-1.4
			C52.3,36.9,51.6,36.2,50.8,36.2"/>
		<path class="st0" d="M51.5,30.7c-0.8,0-1.4,0.6-1.4,1.4c0,0.8,0.6,1.4,1.4,1.4c0.8,0,1.4-0.6,1.4-1.4C53,31.4,52.3,30.7,51.5,30.7
			"/>
		<path class="st0" d="M47.5,27.9c-0.8,0-1.4,0.6-1.4,1.4c0,0.8,0.6,1.4,1.4,1.4c0.8,0,1.4-0.6,1.4-1.4C49,28.5,48.3,27.9,47.5,27.9
			"/>
		<path class="st0" d="M51.8,25.1c-0.8,0-1.4,0.6-1.4,1.4c0,0.8,0.6,1.4,1.4,1.4c0.8,0,1.4-0.6,1.4-1.4
			C53.2,25.8,52.6,25.1,51.8,25.1"/>
		<path class="st0" d="M47.5,22.5c-0.8,0-1.4,0.6-1.4,1.4c0,0.8,0.6,1.4,1.4,1.4c0.8,0,1.4-0.6,1.4-1.4C49,23.2,48.3,22.5,47.5,22.5
			"/>
		<path class="st0" d="M50.1,21c0,0.8,0.6,1.4,1.4,1.4c0.8,0,1.4-0.6,1.4-1.4c0-0.8-0.6-1.4-1.4-1.4C50.7,19.6,50.1,20.2,50.1,21"/>
		<path class="st0" d="M45.7,18.5c0,0.8,0.6,1.4,1.4,1.4c0.8,0,1.4-0.6,1.4-1.4c0-0.8-0.6-1.4-1.4-1.4
			C46.4,17.1,45.7,17.7,45.7,18.5"/>
		<path class="st0" d="M50.8,16.9c0.8,0,1.4-0.6,1.4-1.4c0-0.8-0.6-1.4-1.4-1.4c-0.8,0-1.4,0.6-1.4,1.4C49.4,16.3,50,16.9,50.8,16.9
			"/>
		<path class="st0" d="M45.2,13.1c0,0.8,0.6,1.4,1.4,1.4c0.8,0,1.4-0.6,1.4-1.4c0-0.8-0.6-1.4-1.4-1.4
			C45.8,11.7,45.2,12.3,45.2,13.1"/>
		<path class="st0" d="M45.6,9.2c0.8,0,1.4-0.6,1.4-1.4c0-0.8-0.6-1.4-1.4-1.4c-0.8,0-1.4,0.6-1.4,1.4C44.1,8.5,44.8,9.2,45.6,9.2"
			/>
		<path class="st0" d="M40.8,11.1c0,0.8,0.6,1.4,1.4,1.4c0.8,0,1.4-0.6,1.4-1.4s-0.6-1.4-1.4-1.4C41.5,9.6,40.8,10.3,40.8,11.1"/>
		<path class="st0" d="M39.2,12.6c-0.8,0-1.4,0.6-1.4,1.4c0,0.8,0.6,1.4,1.4,1.4c0.8,0,1.4-0.6,1.4-1.4C40.6,13.2,40,12.6,39.2,12.6
			"/>
		<path class="st0" d="M34.9,17c0,0.8,0.6,1.4,1.4,1.4c0.8,0,1.4-0.6,1.4-1.4c0-0.8-0.6-1.4-1.4-1.4C35.5,15.5,34.9,16.2,34.9,17"/>
		<path class="st0" d="M34.1,12c-0.8,0-1.4,0.6-1.4,1.4c0,0.8,0.6,1.4,1.4,1.4c0.8,0,1.4-0.6,1.4-1.4C35.6,12.6,34.9,12,34.1,12"/>
		<path class="st0" d="M31.8,8.2c-0.8,0-1.4,0.6-1.4,1.4c0,0.8,0.6,1.4,1.4,1.4c0.8,0,1.4-0.6,1.4-1.4C33.3,8.9,32.6,8.2,31.8,8.2"
			/>
		<path class="st0" d="M29.1,11.6c-0.8,0-1.4,0.6-1.4,1.4c0,0.8,0.6,1.4,1.4,1.4c0.8,0,1.4-0.6,1.4-1.4
			C30.6,12.2,29.9,11.6,29.1,11.6"/>
		<path class="st0" d="M24,11.6c-0.8,0-1.4,0.6-1.4,1.4c0,0.8,0.6,1.4,1.4,1.4c0.8,0,1.4-0.6,1.4-1.4C25.5,12.2,24.8,11.6,24,11.6"
			/>
		<path class="st0" d="M21.9,15c-0.8,0-1.4,0.6-1.4,1.4c0,0.8,0.6,1.4,1.4,1.4c0.8,0,1.4-0.6,1.4-1.4C23.3,15.6,22.6,15,21.9,15"/>
		<path class="st0" d="M22.8,19.3c0,0.8,0.6,1.4,1.4,1.4c0.8,0,1.4-0.6,1.4-1.4c0-0.8-0.6-1.4-1.4-1.4
			C23.5,17.9,22.8,18.5,22.8,19.3"/>
		<path class="st0" d="M18.2,19.6c0,0.8,0.6,1.4,1.4,1.4c0.8,0,1.4-0.6,1.4-1.4c0-0.8-0.6-1.4-1.4-1.4
			C18.8,18.2,18.2,18.8,18.2,19.6"/>
		<path class="st0" d="M16.4,20.4c-0.8,0-1.4,0.6-1.4,1.4c0,0.8,0.6,1.4,1.4,1.4c0.8,0,1.4-0.6,1.4-1.4
			C17.8,21.1,17.2,20.4,16.4,20.4"/>
		<path class="st0" d="M13,25.5c0.8,0,1.4-0.6,1.4-1.4c0-0.8-0.6-1.4-1.4-1.4c-0.8,0-1.4,0.7-1.4,1.4C11.6,24.9,12.2,25.5,13,25.5"
			/>
		<path class="st0" d="M11.9,19.1c0,0.8,0.6,1.4,1.4,1.4c0.8,0,1.4-0.6,1.4-1.4c0-0.8-0.6-1.4-1.4-1.4
			C12.6,17.7,11.9,18.3,11.9,19.1"/>
		<path class="st0" d="M8.2,21.4c0,0.8,0.6,1.4,1.4,1.4c0.8,0,1.4-0.6,1.4-1.4c0-0.8-0.6-1.4-1.4-1.4C8.8,19.9,8.2,20.6,8.2,21.4"/>
		<path class="st0" d="M5.7,25.4c0.8,0,1.4-0.6,1.4-1.4c0-0.8-0.6-1.4-1.4-1.4c-0.8,0-1.4,0.6-1.4,1.4C4.2,24.8,4.9,25.4,5.7,25.4"
			/>
		<path class="st0" d="M1.7,22.5c0.8,0,1.4-0.6,1.4-1.4c0-0.8-0.6-1.4-1.4-1.4S0.2,20.2,0.2,21C0.2,21.8,0.9,22.5,1.7,22.5"/>
		<path class="st0" d="M6,20c0.8,0,1.4-0.6,1.4-1.4c0-0.8-0.6-1.4-1.4-1.4c-0.8,0-1.4,0.6-1.4,1.4C4.6,19.3,5.2,20,6,20"/>
		<path class="st0" d="M2.4,14C1.6,14,1,14.7,1,15.5c0,0.8,0.6,1.4,1.4,1.4c0.8,0,1.4-0.6,1.4-1.4C3.9,14.7,3.2,14,2.4,14"/>
		<path class="st0" d="M6.7,14.6c0.8,0,1.4-0.6,1.4-1.4c0-0.8-0.6-1.4-1.4-1.4c-0.8,0-1.4,0.6-1.4,1.4C5.2,13.9,5.9,14.6,6.7,14.6"
			/>
		<path class="st0" d="M10.2,14.7c-0.8,0-1.4,0.6-1.4,1.4c0,0.8,0.6,1.4,1.4,1.4c0.8,0,1.4-0.6,1.4-1.4C11.6,15.4,11,14.7,10.2,14.7
			"/>
		<path class="st0" d="M12.6,14c0,0.8,0.6,1.4,1.4,1.4c0.8,0,1.4-0.6,1.4-1.4c0-0.8-0.6-1.4-1.4-1.4C13.3,12.6,12.6,13.2,12.6,14"/>
		<path class="st0" d="M15.4,17c0,0.8,0.6,1.4,1.4,1.4c0.8,0,1.4-0.6,1.4-1.4c0-0.8-0.6-1.4-1.4-1.4C16.1,15.5,15.4,16.2,15.4,17"/>
		<path class="st0" d="M9.4,28c0.8,0,1.4-0.6,1.4-1.4c0-0.8-0.6-1.4-1.4-1.4c-0.8,0-1.4,0.6-1.4,1.4C8,27.4,8.6,28,9.4,28"/>
		<path class="st0" d="M26.7,14.8c-0.8,0-1.4,0.6-1.4,1.4c0,0.8,0.6,1.4,1.4,1.4c0.8,0,1.4-0.6,1.4-1.4
			C28.1,15.5,27.5,14.8,26.7,14.8"/>
		<path class="st0" d="M37.1,8.7c-0.8,0-1.4,0.6-1.4,1.4c0,0.8,0.6,1.4,1.4,1.4c0.8,0,1.4-0.6,1.4-1.4C38.5,9.4,37.9,8.7,37.1,8.7"
			/>
		<path class="st0" d="M38.7,6.6c0,0.8,0.6,1.4,1.4,1.4c0.8,0,1.4-0.6,1.4-1.4c0-0.8-0.6-1.4-1.4-1.4C39.3,5.2,38.7,5.8,38.7,6.6"/>
		<path class="st0" d="M34.7,7.5c0.8,0,1.4-0.6,1.4-1.4s-0.6-1.4-1.4-1.4c-0.8,0-1.4,0.6-1.4,1.4S33.9,7.5,34.7,7.5"/>
		<path class="st0" d="M37.8,3.9c0.8,0,1.4-0.6,1.4-1.4c0-0.8-0.6-1.4-1.4-1.4c-0.8,0-1.4,0.6-1.4,1.4C36.3,3.2,37,3.9,37.8,3.9"/>
		<path class="st0" d="M32.2,3.2c0.8,0,1.4-0.6,1.4-1.4c0-0.8-0.6-1.4-1.4-1.4c-0.8,0-1.4,0.6-1.4,1.4C30.8,2.5,31.4,3.2,32.2,3.2"
			/>
		<path class="st0" d="M26.7,2.9c0.8,0,1.4-0.6,1.4-1.4c0-0.8-0.6-1.4-1.4-1.4c-0.8,0-1.4,0.6-1.4,1.4C25.2,2.2,25.9,2.9,26.7,2.9"
			/>
		<path class="st0" d="M21,3.2c0.8,0,1.4-0.6,1.4-1.4c0-0.8-0.6-1.4-1.4-1.4c-0.8,0-1.4,0.6-1.4,1.4C19.6,2.5,20.2,3.2,21,3.2"/>
		<path class="st0" d="M15.6,3.9c0.8,0,1.4-0.6,1.4-1.4S16.4,1,15.6,1c-0.8,0-1.4,0.6-1.4,1.4S14.8,3.9,15.6,3.9"/>
		<path class="st0" d="M23.9,7.1c0.8,0,1.4-0.6,1.4-1.4c0-0.8-0.6-1.4-1.4-1.4c-0.8,0-1.4,0.6-1.4,1.4C22.4,6.5,23.1,7.1,23.9,7.1"
			/>
		<path class="st0" d="M18.5,7.5c0.8,0,1.4-0.6,1.4-1.4c0-0.8-0.6-1.4-1.4-1.4c-0.8,0-1.4,0.6-1.4,1.4C17.1,6.9,17.7,7.5,18.5,7.5"
			/>
		<path class="st0" d="M16.2,8.7c-0.8,0-1.4,0.6-1.4,1.4c0,0.8,0.6,1.4,1.4,1.4c0.8,0,1.4-0.6,1.4-1.4C17.6,9.4,17,8.7,16.2,8.7"/>
		<path class="st0" d="M11,12.5c0.8,0,1.4-0.6,1.4-1.4c0-0.8-0.6-1.4-1.4-1.4c-0.8,0-1.4,0.6-1.4,1.4C9.5,11.9,10.2,12.5,11,12.5"/>
		<path class="st0" d="M7.9,9.1c0.8,0,1.4-0.6,1.4-1.4S8.7,6.3,7.9,6.3c-0.8,0-1.4,0.6-1.4,1.4S7.1,9.1,7.9,9.1"/>
		<path class="st0" d="M13.1,8.1c0.8,0,1.4-0.6,1.4-1.4c0-0.8-0.6-1.4-1.4-1.4c-0.8,0-1.4,0.6-1.4,1.4C11.7,7.4,12.3,8.1,13.1,8.1"
			/>
		<path class="st0" d="M17.7,13.4c0,0.8,0.6,1.4,1.4,1.4c0.8,0,1.4-0.6,1.4-1.4c0-0.8-0.6-1.4-1.4-1.4
			C18.3,11.9,17.7,12.6,17.7,13.4"/>
		<path class="st0" d="M21.4,8.2c-0.8,0-1.4,0.6-1.4,1.4c0,0.8,0.6,1.4,1.4,1.4c0.8,0,1.4-0.6,1.4-1.4C22.8,8.9,22.1,8.2,21.4,8.2"
			/>
		<path class="st0" d="M29.3,7.1c0.8,0,1.4-0.6,1.4-1.4c0-0.8-0.6-1.4-1.4-1.4c-0.8,0-1.4,0.6-1.4,1.4C27.8,6.5,28.5,7.1,29.3,7.1"
			/>
		<path class="st0" d="M26.7,8c-0.8,0-1.4,0.6-1.4,1.4c0,0.8,0.6,1.4,1.4,1.4c0.8,0,1.4-0.6,1.4-1.4C28.1,8.6,27.5,8,26.7,8"/>
		<path class="st0" d="M35,19.6c0-0.8-0.6-1.4-1.4-1.4s-1.4,0.6-1.4,1.4c0,0.8,0.6,1.4,1.4,1.4S35,20.4,35,19.6"/>
		<path class="st0" d="M31.2,20.6c-0.8,0-1.4,0.6-1.4,1.4c0,0.8,0.6,1.4,1.4,1.4c0.8,0,1.4-0.6,1.4-1.4C32.6,21.3,32,20.6,31.2,20.6
			"/>
		<path class="st0" d="M27.5,19.3c0,0.8,0.6,1.4,1.4,1.4c0.8,0,1.4-0.6,1.4-1.4c0-0.8-0.6-1.4-1.4-1.4
			C28.1,17.8,27.5,18.5,27.5,19.3"/>
		<path class="st0" d="M26.7,20.5c-0.8,0-1.4,0.6-1.4,1.4c0,0.8,0.6,1.4,1.4,1.4c0.8,0,1.4-0.6,1.4-1.4
			C28.1,21.2,27.4,20.5,26.7,20.5"/>
		<path class="st0" d="M22.9,24.4c0,0.8,0.6,1.4,1.4,1.4c0.8,0,1.4-0.6,1.4-1.4c0-0.8-0.6-1.4-1.4-1.4C23.6,23,22.9,23.6,22.9,24.4"
			/>
		<path class="st0" d="M22.1,20.7c-0.8,0-1.4,0.6-1.4,1.4c0,0.8,0.6,1.4,1.4,1.4c0.8,0,1.4-0.6,1.4-1.4
			C23.5,21.3,22.9,20.7,22.1,20.7"/>
		<path class="st0" d="M22,28c0.8,0,1.4-0.6,1.4-1.4c0-0.8-0.7-1.4-1.4-1.4c-0.8,0-1.4,0.6-1.4,1.4C20.5,27.4,21.2,28,22,28"/>
		<path class="st0" d="M19.3,25.8c0.8,0,1.4-0.6,1.4-1.4c0-0.8-0.6-1.4-1.4-1.4c-0.8,0-1.4,0.6-1.4,1.4
			C17.8,25.1,18.5,25.8,19.3,25.8"/>
		<path class="st0" d="M19.3,30.4c0.8,0,1.4-0.6,1.4-1.4c0-0.8-0.6-1.4-1.4-1.4c-0.8,0-1.4,0.6-1.4,1.4
			C17.8,29.8,18.5,30.4,19.3,30.4"/>
		<path class="st0" d="M16.2,28c0.8,0,1.4-0.6,1.4-1.4c0-0.8-0.6-1.4-1.4-1.4c-0.8,0-1.4,0.6-1.4,1.4C14.8,27.4,15.4,28,16.2,28"/>
		<path class="st0" d="M16.5,32.9c0.8,0,1.4-0.6,1.4-1.4c0-0.8-0.6-1.4-1.4-1.4c-0.8,0-1.4,0.6-1.4,1.4C15,32.2,15.7,32.9,16.5,32.9
			"/>
		<path class="st0" d="M13,30.7c0.8,0,1.4-0.6,1.4-1.4c0-0.8-0.6-1.4-1.4-1.4c-0.8,0-1.4,0.6-1.4,1.4C11.6,30,12.2,30.7,13,30.7"/>
		<path class="st0" d="M13.4,35.6c0.8,0,1.4-0.6,1.4-1.4c0-0.8-0.6-1.4-1.4-1.4c-0.8,0-1.4,0.6-1.4,1.4C12,34.9,12.6,35.6,13.4,35.6
			"/>
		<path class="st0" d="M10.2,38.5c0.8,0,1.4-0.6,1.4-1.4c0-0.8-0.6-1.4-1.4-1.4c-0.8,0-1.4,0.6-1.4,1.4C8.7,37.9,9.4,38.5,10.2,38.5
			"/>
		<path class="st0" d="M7.5,34.7c0-0.8-0.6-1.4-1.4-1.4c-0.8,0-1.4,0.6-1.4,1.4c0,0.8,0.6,1.4,1.4,1.4C6.8,36.1,7.5,35.5,7.5,34.7"
			/>
		<path class="st0" d="M3.1,32.2c0-0.8-0.6-1.4-1.4-1.4c-0.8,0-1.4,0.6-1.4,1.4c0,0.8,0.6,1.4,1.4,1.4C2.5,33.6,3.1,33,3.1,32.2"/>
		<path class="st0" d="M5.7,30.8c0.8,0,1.4-0.6,1.4-1.4c0-0.8-0.6-1.4-1.4-1.4c-0.8,0-1.4,0.6-1.4,1.4C4.2,30.1,4.9,30.8,5.7,30.8"
			/>
		<path class="st0" d="M1.4,28c0.8,0,1.4-0.6,1.4-1.4c0-0.8-0.6-1.4-1.4-1.4c-0.8,0-1.4,0.6-1.4,1.4C0,27.4,0.6,28,1.4,28"/>
		<path class="st0" d="M9.6,33.3c0.8,0,1.4-0.6,1.4-1.4c0-0.8-0.6-1.4-1.4-1.4c-0.8,0-1.4,0.6-1.4,1.4C8.2,32.6,8.8,33.3,9.6,33.3"
			/>
		<path class="st0" d="M2.4,36.2c-0.8,0-1.4,0.6-1.4,1.4c0,0.8,0.6,1.4,1.4,1.4c0.8,0,1.4-0.6,1.4-1.4C3.9,36.9,3.2,36.2,2.4,36.2"
			/>
		<path class="st0" d="M8.1,40.2c0-0.8-0.6-1.4-1.4-1.4c-0.8,0-1.4,0.6-1.4,1.4s0.6,1.4,1.4,1.4C7.4,41.6,8.1,41,8.1,40.2"/>
		<path class="st0" d="M25.8,28.9c0-0.8-0.6-1.4-1.4-1.4c-0.8,0-1.4,0.6-1.4,1.4c0,0.8,0.6,1.4,1.4,1.4
			C25.2,30.3,25.8,29.7,25.8,28.9"/>
		<path class="st0" d="M26.6,32.7c0.8,0,1.4-0.6,1.4-1.4c0-0.8-0.6-1.4-1.4-1.4c-0.8,0-1.4,0.6-1.4,1.4C25.2,32,25.9,32.7,26.6,32.7
			"/>
		<path class="st0" d="M25.7,34c0-0.8-0.6-1.4-1.4-1.4c-0.8,0-1.4,0.6-1.4,1.4c0,0.8,0.6,1.4,1.4,1.4C25.1,35.4,25.7,34.8,25.7,34"
			/>
		<path class="st0" d="M21.9,38.3c0.8,0,1.4-0.6,1.4-1.4c0-0.8-0.6-1.4-1.4-1.4c-0.8,0-1.4,0.6-1.4,1.4
			C20.4,37.6,21.1,38.3,21.9,38.3"/>
		<path class="st0" d="M24,41.7c0.8,0,1.4-0.6,1.4-1.4c0-0.8-0.6-1.4-1.4-1.4c-0.8,0-1.4,0.6-1.4,1.4C22.6,41,23.3,41.7,24,41.7"/>
		<path class="st0" d="M21.4,45c0.8,0,1.4-0.6,1.4-1.4c0-0.8-0.6-1.4-1.4-1.4c-0.8,0-1.4,0.6-1.4,1.4C19.9,44.4,20.6,45,21.4,45"/>
		<path class="st0" d="M16.1,44.5c0.8,0,1.4-0.6,1.4-1.4c0-0.8-0.6-1.4-1.4-1.4c-0.8,0-1.4,0.6-1.4,1.4
			C14.7,43.8,15.3,44.5,16.1,44.5"/>
		<path class="st0" d="M14.1,40.6c0.8,0,1.4-0.6,1.4-1.4c0-0.8-0.6-1.4-1.4-1.4c-0.8,0-1.4,0.6-1.4,1.4C12.6,40,13.3,40.6,14.1,40.6
			"/>
		<path class="st0" d="M19.1,41.3c0.8,0,1.4-0.6,1.4-1.4c0-0.8-0.6-1.4-1.4-1.4c-0.8,0-1.4,0.6-1.4,1.4
			C17.7,40.6,18.3,41.3,19.1,41.3"/>
		<path class="st0" d="M18.3,36.2c0-0.8-0.6-1.4-1.4-1.4c-0.8,0-1.4,0.6-1.4,1.4c0,0.8,0.6,1.4,1.4,1.4C17.7,37.7,18.3,37,18.3,36.2
			"/>
		<path class="st0" d="M19.6,35.1c0.8,0,1.4-0.6,1.4-1.4c0-0.8-0.6-1.4-1.4-1.4c-0.8,0-1.4,0.6-1.4,1.4
			C18.1,34.4,18.8,35.1,19.6,35.1"/>
		<path class="st0" d="M22.1,32.6c0.8,0,1.4-0.6,1.4-1.4c0-0.8-0.6-1.4-1.4-1.4c-0.8,0-1.4,0.6-1.4,1.4
			C20.6,31.9,21.3,32.6,22.1,32.6"/>
		<path class="st0" d="M12.4,42.2c0-0.8-0.6-1.4-1.4-1.4c-0.8,0-1.4,0.6-1.4,1.4c0,0.8,0.6,1.4,1.4,1.4C11.7,43.6,12.4,43,12.4,42.2
			"/>
		<path class="st0" d="M13.1,45.1c-0.8,0-1.4,0.6-1.4,1.4c0,0.8,0.6,1.4,1.4,1.4c0.8,0,1.4-0.6,1.4-1.4
			C14.5,45.8,13.9,45.1,13.1,45.1"/>
		<path class="st0" d="M7.9,44.1c-0.8,0-1.4,0.6-1.4,1.4c0,0.8,0.6,1.4,1.4,1.4c0.8,0,1.4-0.6,1.4-1.4C9.3,44.7,8.7,44.1,7.9,44.1"
			/>
		<path class="st0" d="M18.5,45.7c-0.8,0-1.4,0.6-1.4,1.4c0,0.8,0.6,1.4,1.4,1.4c0.8,0,1.4-0.6,1.4-1.4C20,46.4,19.3,45.7,18.5,45.7
			"/>
		<path class="st0" d="M31.4,15c-0.8,0-1.4,0.6-1.4,1.4c0,0.8,0.6,1.4,1.4,1.4c0.8,0,1.4-0.6,1.4-1.4C32.8,15.6,32.2,15,31.4,15"/>
		<path class="st0" d="M41.6,16.2c0,0.8,0.6,1.4,1.4,1.4c0.8,0,1.4-0.6,1.4-1.4c0-0.8-0.6-1.4-1.4-1.4
			C42.2,14.8,41.6,15.4,41.6,16.2"/>
		<path class="st0" d="M39.8,17.7c-0.8,0-1.4,0.6-1.4,1.4c0,0.8,0.6,1.4,1.4,1.4c0.8,0,1.4-0.6,1.4-1.4
			C41.3,18.4,40.6,17.7,39.8,17.7"/>
		<path class="st0" d="M43.6,22.8c0.8,0,1.4-0.6,1.4-1.4c0-0.8-0.6-1.4-1.4-1.4c-0.8,0-1.4,0.6-1.4,1.4
			C42.1,22.2,42.8,22.8,43.6,22.8"/>
		<path class="st0" d="M43.8,25.1c-0.8,0-1.4,0.7-1.4,1.4S43,28,43.8,28c0.8,0,1.4-0.6,1.4-1.4S44.6,25.1,43.8,25.1"/>
		<path class="st0" d="M38.7,24.1c0,0.8,0.6,1.4,1.4,1.4c0.8,0,1.4-0.6,1.4-1.4c0-0.8-0.6-1.4-1.4-1.4
			C39.4,22.6,38.7,23.3,38.7,24.1"/>
		<path class="st0" d="M36.8,23.3c0.8,0,1.4-0.6,1.4-1.4c0-0.8-0.6-1.4-1.4-1.4c-0.8,0-1.4,0.6-1.4,1.4
			C35.4,22.6,36.1,23.3,36.8,23.3"/>
	</g>
	<g>
		<path class="st0" d="M76.6,27.9c0,1.4-0.1,1.9-0.4,2.3c-0.7,1.2-2.2,1.2-2.6,1.2c-2.8,0-2.9-1.9-2.9-3.3v-8.5h-2.9v8.4
			c0,1.3,0,2.3,0.7,3.3c1.3,2.1,3.8,2.3,5.1,2.3c2.7,0,5.9-1.3,5.9-5.3v-8.7h-2.8V27.9z"/>
		<path class="st0" d="M87.2,23.4c-2.1,0-2.8,1.2-3.1,1.7l-0.1-1.4h-2.7c0.1,0.7,0.1,1.7,0.1,1.7v7.8h2.8v-5.6
			c0-0.7,0.2-1.2,0.3-1.4c0.3-0.5,0.8-0.7,1.4-0.7c0.7,0,1.1,0.4,1.4,0.8c0.1,0.3,0.1,0.6,0.1,1v5.9h2.8V28c0-1.8-0.1-2.3-0.3-2.8
			C89.9,24.5,89.1,23.4,87.2,23.4z"/>
		<rect x="92.5" y="23.7" class="st0" width="2.8" height="9.5"/>
		<polygon class="st0" points="101.7,30.1 99.6,23.7 96.6,23.7 100.1,33.2 103.1,33.2 106.6,23.7 103.9,23.7 		"/>
		<path class="st0" d="M111.7,23.4c-1,0-1.9,0.3-2.7,0.8c-1.6,1.1-2,2.9-2,4.5c0,1.5,0.4,2.8,1.2,3.7c1,1,2.5,1.2,3.3,1.2
			c1.4,0,2.6-0.4,3.3-1.1c0.8-0.8,0.9-1.6,0.9-2.1h-2.5c-0.3,1.1-1,1.3-1.7,1.3c-1.9,0-1.9-1.9-1.9-2.5h6.4c0-0.8,0.1-2.2-0.6-3.5
			C114.7,23.9,113.1,23.4,111.7,23.4z M109.8,27.4c0.1-1.1,0.6-2.1,1.8-2.1c1.6,0,1.7,1.7,1.7,2.1H109.8z"/>
		<path class="st0" d="M120.4,25.5l-0.1-1.8h-2.6c0.1,0.5,0.1,1.9,0.1,2.4v7.2h2.8v-4.7c0-1.2,0.2-2.6,3-2.4v-2.5
			C121.4,23.5,120.8,24.7,120.4,25.5z"/>
		<path class="st0" d="M130.3,27.5l-1.7-0.5c-0.8-0.2-1.3-0.4-1.3-1c0-0.6,0.6-0.9,1.3-0.9c0.4,0,1.3,0.1,1.4,1.1h2.5
			c-0.1-1.9-1.7-2.8-3.6-2.8c-2.5,0-4.1,1.1-4.1,3c0,1.9,1.6,2.4,2.4,2.6l1.7,0.5c1.1,0.3,1.3,0.6,1.3,1.1c0,0.6-0.5,1.1-1.5,1.1
			c-1.2,0-1.5-0.7-1.6-1.3h-2.6c0,0.5,0.1,1.2,0.7,1.9c0.9,0.9,2,1.2,3.2,1.2c2.9,0,4.4-1.6,4.4-3.3C132.8,28.9,132,28,130.3,27.5z"
			/>
		<rect x="134.6" y="23.7" class="st0" width="2.8" height="9.5"/>
		<path class="st0" d="M143.5,20.4l-2.8,0.5v2.9h-1.8v1.8h1.8v5.2c0,0.8,0,2.6,2.8,2.6c0.5,0,1.3-0.1,2.2-0.3v-1.8
			c-0.3,0-0.5,0.1-0.9,0.1c-1.2,0-1.2-0.5-1.3-1.4v-4.3h2.3v-1.8h-2.3V20.4z"/>
		<path class="st0" d="M155.6,27c0-0.4,0-1.6-0.7-2.3c-0.9-1.1-2.6-1.2-3.4-1.2c-0.9,0-2,0.2-2.9,0.8c-1,0.7-1,1.7-1.1,2.2h2.7
			c0-0.2,0-0.5,0.2-0.8c0.2-0.4,0.7-0.5,1.1-0.5c0.3,0,1,0.1,1.2,0.8c0.1,0.3,0.1,0.6,0.1,1.3c-0.9,0-2.6,0-3.8,0.5
			c-1.7,0.8-2,2.2-2,2.9c0,0.7,0.3,1.5,0.8,2.1c0.4,0.4,1,0.7,2.4,0.7c0.5,0,1.8,0,2.8-1.5c0,0.3,0,0.7,0.1,1.3h2.5
			c-0.2-0.8-0.2-1.6-0.2-2.4L155.6,27z M152.5,31c-0.3,0.3-0.7,0.5-1.2,0.5c-0.9,0-1.4-0.7-1.4-1.4c0-1.1,1.3-1.7,3.1-1.5
			C153,29.7,153,30.4,152.5,31z"/>
		<path class="st0" d="M161.6,20.9l-2.8,1v1.9H157v1.8h1.8v5.2c0,0.8,0,2.6,2.8,2.6c0.5,0,1.3-0.1,2.2-0.3v-1.8
			c-0.3,0-0.5,0.1-0.9,0.1c-1.2,0-1.2-0.5-1.3-1.4v-4.3h2.3v-1.8h-2.3V20.9z"/>
		<path class="st0" d="M177.1,25.2c-2-0.5-2.9-0.7-2.9-2c0-1.1,0.9-1.8,2.2-1.8c2,0,2.2,1.6,2.2,2.1h2.8c0-0.5,0-1.5-0.8-2.5
			c-1-1.3-2.7-1.6-4.1-1.6c-3.8,0-5.4,2-5.4,4.2c0,2.3,1.8,3.3,5,4.1c1.7,0.4,2.6,0.6,2.6,1.8c0,1.1-1,1.9-2.6,1.9
			c-2.5,0-2.5-1.9-2.5-2.6h-3c0,1.3,0.1,4.7,5.3,4.7c3.8,0,5.8-2,5.8-4.4C181.8,26.4,179.4,25.8,177.1,25.2z"/>
		<path class="st0" d="M187.3,20.9l-2.8,1v1.9h-1.8v1.8h1.8v5.2c0,0.8,0,2.6,2.8,2.6c0.4,0,1.3-0.1,2.2-0.3v-1.8
			c-0.3,0-0.5,0.1-0.9,0.1c-1.2,0-1.2-0.5-1.3-1.4v-4.3h2.3v-1.8h-2.3V20.9z"/>
		<path class="st0" d="M199.9,29.9v-6.3h-2.9v4.8c0,1.6,0,2.9-1.8,2.9c-1.5,0-1.5-1.3-1.5-2.1v-5.7H191v5.9c0,0.5,0,1.8,0.6,2.6
			c0.5,0.7,1.6,1.3,2.9,1.3c1.8,0,2.5-1.1,2.8-1.5l0.1,1.3h2.7c0-0.3-0.1-0.4-0.1-0.7C200,32.2,200,32,199.9,29.9z"/>
		<path class="st0" d="M212.9,20.9l-2.8,1v1.9H206v-2.9l-2.8,1v1.9h-1.8v1.8h1.8v5.2c0,0.8,0,2.6,2.8,2.6c0.4,0,1.3-0.1,2.2-0.3
			v-1.8c-0.3,0-0.5,0.1-0.9,0.1c-1.2,0-1.2-0.5-1.3-1.4v-4.3h4.1v5.2c0,0.8,0,2.6,2.8,2.6c0.5,0,1.3-0.1,2.2-0.3v-1.8
			c-0.3,0-0.5,0.1-0.9,0.1c-1.2,0-1.2-0.5-1.3-1.4v-4.3h2.3v-1.8h-2.3V20.9z"/>
		<path class="st0" d="M223.1,25c-0.3-0.4-0.9-1.4-2.6-1.4c-2.7,0-4.1,2.3-4.1,4.7c0,2.3,1.3,4.7,4,4.7c0.7,0,1.7-0.1,2.6-1.3
			c0,1.4,0,1.8-0.1,2.3c-0.2,0.8-0.9,1.2-1.7,1.2c-1.5,0-1.6-1-1.6-1.3h-2.7c0.2,2.9,2.8,3,4.2,3c1.8,0,4.7-0.3,4.7-3.8v-7
			c0-1,0.1-1.6,0.1-2.3h-2.6L223.1,25z M221,31.1c-1.9,0-1.9-2.3-1.9-2.8c0-2,0.9-2.8,1.9-2.8c1.7,0,1.9,1.8,1.9,2.9
			C223,28.8,223,31.1,221,31.1z"/>
		<path class="st0" d="M235.7,27c0-0.4,0-1.6-0.7-2.3c-0.9-1.1-2.6-1.2-3.4-1.2c-0.9,0-2,0.2-2.9,0.8c-1,0.7-1.1,1.7-1.1,2.2h2.7
			c0-0.2,0-0.5,0.2-0.8c0.2-0.4,0.7-0.5,1.1-0.5c0.3,0,1,0.1,1.2,0.8c0.1,0.3,0.1,0.6,0.1,1.3c-0.9,0-2.6,0-3.8,0.5
			c-1.8,0.8-2,2.2-2,2.9c0,0.7,0.3,1.5,0.8,2.1c0.4,0.4,1,0.7,2.4,0.7c0.5,0,1.8,0,2.8-1.5c0,0.3,0,0.7,0.1,1.3h2.5
			c-0.2-0.8-0.2-1.6-0.2-2.4L235.7,27z M232.6,31c-0.3,0.3-0.7,0.5-1.2,0.5c-0.9,0-1.3-0.7-1.3-1.4c0-1.1,1.3-1.7,3.1-1.5
			C233.1,29.7,233,30.4,232.6,31z"/>
		<path class="st0" d="M250,25.6v-1.8h-2.3v-2.9l-2.8,1v1.9h-1.8l0,0c-1.8,0.1-2.4,1-2.7,1.7l-0.1-1.8h-2.6c0.1,0.5,0.1,1.9,0.1,2.4
			v7.2h2.8v-4.7c0-1.2,0-2.9,3-2.9h1.3v5.2c0,0.8,0,2.6,2.8,2.6c0.4,0,1.3-0.1,2.2-0.3v-1.8c-0.3,0-0.5,0.1-0.9,0.1
			c-1.2,0-1.2-0.5-1.3-1.4v-4.3H250z"/>
		<path class="st0" d="M149.8,22.3c0.8,0,1.4-0.6,1.4-1.4c0-0.8-0.6-1.4-1.4-1.4c-0.8,0-1.4,0.6-1.4,1.4
			C148.5,21.7,149.1,22.3,149.8,22.3z"/>
		<path class="st0" d="M153.5,22.3c0.8,0,1.4-0.6,1.4-1.4c0-0.8-0.6-1.4-1.4-1.4c-0.8,0-1.4,0.6-1.4,1.4
			C152.1,21.7,152.7,22.3,153.5,22.3z"/>
		<path class="st0" d="M136,19.5c-0.8,0-1.5,0.7-1.5,1.5c0,0.8,0.7,1.5,1.5,1.5c0.8,0,1.5-0.7,1.5-1.5
			C137.5,20.1,136.8,19.5,136,19.5z"/>
		<path class="st0" d="M93.9,19.5c-0.8,0-1.5,0.7-1.5,1.5c0,0.8,0.7,1.5,1.5,1.5c0.8,0,1.5-0.7,1.5-1.5
			C95.4,20.1,94.7,19.5,93.9,19.5z"/>
	</g>
</g>
</svg>
