<?xml version="1.0" encoding="utf-8"?>
<!-- Generator: Adobe Illustrator 23.0.1, SVG Export Plug-In . SVG Version: 6.00 Build 0)  -->
<svg version="1.1" id="Ebene_1" xmlns="http://www.w3.org/2000/svg" xmlns:xlink="http://www.w3.org/1999/xlink" x="0px" y="0px"
	 viewBox="0 0 170.1 34.4" style="enable-background:new 0 0 170.1 34.4;" xml:space="preserve">
<style type="text/css">
	.st0{fill:#FFFFFF;}
	.st1{fill-rule:evenodd;clip-rule:evenodd;fill:#FFFFFF;}
</style>
<path class="st0" d="M36.7,16.6c-0.2-0.2-0.5-0.4-0.7-0.5c-0.5-0.4-1.1-0.8-1.6-1.1c-1.1-0.7-2.2-1.2-3.4-1.7
	c-2.4-0.9-5-1.4-7.6-1.4c-2.6,0-5.2,0.4-7.6,1.4c-1.2,0.4-2.3,1-3.4,1.7c-0.6,0.3-1.1,0.7-1.6,1.1c-0.2,0.2-0.5,0.4-0.7,0.5
	c-0.1,0.1-0.2,0.2-0.3,0.3c0,0.2,0.1,0.3,0.1,0.5c0.7,2.6,1.8,5.1,3.4,7.3c2.7-2.7,6.3-4.3,10.2-4.3h0c3.8,0,7.5,1.6,10.2,4.3
	c1.6-2.2,2.7-4.7,3.4-7.3c0-0.2,0.1-0.3,0.1-0.5C36.9,16.8,36.8,16.7,36.7,16.6z"/>
<path class="st1" d="M118.6,29.4c2.6,1,5.5,1.2,8.3,1.1c2.2-0.1,4.6-0.9,6.1-2.7c1.5-1.8,2-4.6,1.2-6.8c-0.8-2.2-3.4-3.4-5.6-3.8
	c-1.1-0.2-2.3-0.2-3.2-0.9c-1-0.8-0.5-2.4,0.6-2.9c1.4-0.6,3.2-0.3,4.6,0c1.8,0.4,3,0.7,3,0.7v-3.6V9.3c0,0-2.4-0.6-4.4-0.8
	c-2.5-0.2-5.2-0.2-7.4,0.8c-2.1,1-3.3,3-3.5,5.3c-0.2,2.5,0.5,4.8,2.7,6c1.1,0.6,2.3,0.9,3.5,1.1c1,0.2,2.4,0.3,3.1,1.2
	c0.7,0.8,0.3,1.9-0.6,2.4c-0.8,0.5-1.7,0.4-2.6,0.4c-1,0-2.1-0.1-3.1-0.3c-0.9-0.1-1.9-0.3-2.6-0.8
	C118.6,26.2,118.6,27.8,118.6,29.4z"/>
<path class="st1" d="M148.9,16.5c-0.7,2.7-0.5,5.7,0.7,8.2c1.1,2.3,3.1,4.1,5.4,5c4.6,1.8,10.4,0.5,13.2-3.8c3-4.5,2.2-11.4-2-14.8
	c-4-3.2-10.4-3.1-14.3,0.3C150.4,12.7,149.4,14.6,148.9,16.5 M155.6,16.4c1.3-2,4.1-2.6,6.1-1.3c2.2,1.5,2.7,4.8,1.6,7.1
	c-1.1,2.3-4.2,3.2-6.4,1.8c-2.3-1.4-2.7-4.9-1.5-7.1C155.4,16.7,155.5,16.5,155.6,16.4"/>
<path class="st1" d="M3.3,26.7c1.3,2.8,3.1,5.5,5.3,7.7c0.2-1.2,0.4-2.4,0.8-3.5c0.4-1.3,1-2.5,1.7-3.7c0.3-0.5,0.7-1,1.1-1.5
	l0.1-0.1c-0.1-0.1-0.4-0.6-0.5-0.7c-0.2-0.3-0.4-0.6-0.6-0.9c-0.7-1.2-1.3-2.4-1.8-3.7c-2-5.4-2.1-11.6-0.3-17C9.5,2.1,10,1,10.5,0
	C8.1,0,5.7,0,3.3,0C2.8,0,1.8,0,1.8,0S1.7,0.3,1.7,0.3C1.5,1.1,1.3,1.8,1.1,2.5C0.4,5.4,0,8.4,0,11.3C0,16.6,1.1,21.9,3.3,26.7"/>
<path class="st1" d="M43.4,26.7c-1.3,2.8-3.1,5.5-5.3,7.7c-0.2-1.2-0.4-2.4-0.8-3.5c-0.4-1.3-1-2.5-1.7-3.7c-0.3-0.5-0.7-1-1.1-1.5
	l-0.1-0.1c0.1-0.1,0.4-0.6,0.5-0.7c0.2-0.3,0.4-0.6,0.6-0.9c0.7-1.2,1.3-2.4,1.8-3.7c2-5.4,2.1-11.6,0.3-17C37.2,2.1,36.7,1,36.2,0
	c2.4,0,4.8,0,7.2,0c0.4,0,1.4,0,1.4,0S45,0.3,45,0.3c0.2,0.7,0.4,1.5,0.6,2.2c0.7,2.9,1.1,5.8,1.1,8.8
	C46.7,16.6,45.6,21.9,43.4,26.7"/>
<path class="st1" d="M55.9,14.1c2.5-2,6.3-0.4,6.8,2.7c-2.8,0-5.6,0-8.3,0C54.5,15.7,55.1,14.7,55.9,14.1 M62.1,23.7L62,23.8
	c-0.3,0.4-0.6,0.8-1,1.1c-0.9,0.7-1.9,0.8-3,0.7c-1-0.1-2-0.4-2.7-1.1c-0.7-0.7-1-1.7-1.1-2.7v0c0-0.3,0-0.5,0-0.8
	c4.7,0,9.5,0,14.2,0c0.2,0,0.5,0,0.8,0c0-0.5,0.1-1,0.1-1.5c0-4.2-1.8-8.4-6-10.2c-0.7-0.3-1.4-0.5-2.1-0.7c0,0-0.1,0-0.1,0
	c0,0,0,0-0.1,0c-0.8-0.2-1.6-0.3-2.5-0.3c0,0-0.1,0-0.1,0c0,0-0.1,0-0.1,0c-0.8,0-1.7,0.1-2.5,0.3c0,0,0,0-0.1,0c0,0-0.1,0-0.1,0
	c-0.7,0.2-1.4,0.4-2.1,0.7c-4.1,1.8-6,6-6,10.2c0,4.2,1.8,8.4,6,10.2c0.7,0.3,1.4,0.5,2.1,0.7c0,0,0.1,0,0.1,0c0,0,0,0,0.1,0
	c0.8,0.2,1.6,0.3,2.5,0.3c0,0,0.1,0,0.1,0c0,0,0.1,0,0.1,0c0.8,0,1.7-0.1,2.5-0.3c0,0,0,0,0.1,0c0,0,0.1,0,0.1,0
	c0.7-0.2,1.4-0.4,2.1-0.7c2.8-1.2,4.5-3.5,5.4-6.1H62.1z"/>
<path class="st1" d="M79.8,24.3c-2.4-0.9-3.3-3.8-2.8-6.1c0.5-2.4,2.5-4,5-3.8c5.4,0.5,5.7,9.4,0.4,10.2
	C81.5,24.7,80.6,24.6,79.8,24.3 M90.8,12.8c-1.5-2.4-4-4-6.9-4.2c-1.4-0.1-2.8,0.1-4.1,0.7c-1.1,0.5-1.8,1.2-2.5,2.1V1.6h-6.4v28.2
	h6.4v-2.1c1.2,1.9,3.6,2.8,5.8,2.8c2.4,0,4.7-1,6.3-2.7C93.2,24,93.7,17.3,90.8,12.8z"/>
<path class="st1" d="M103.4,24.3c-2.4-0.9-3.3-3.8-2.8-6.1c0.5-2.4,2.5-4,5-3.8c5.4,0.5,5.7,9.4,0.4,10.2
	C105.1,24.7,104.2,24.6,103.4,24.3 M109.4,9.3v2.2c-0.5-0.7-1.1-1.3-1.8-1.8c-1-0.6-2.1-0.9-3.2-1c-2.3-0.2-4.7,0.2-6.6,1.6
	c-1.9,1.4-3,3.7-3.4,6c-0.5,2.6-0.4,5.4,0.5,7.9c1.3,3.5,4.2,6,7.9,6.2c2.5,0.1,5-0.9,6.6-2.8v2.3h6.3V9.3H109.4z"/>
<path class="st1" d="M148.4,25.1c-1.5,0-3.8,0.3-4.4-1.5c-0.3-0.9-0.3-2-0.3-2.9h0v-6.5h4.3V9.3h-4.3V1.7h-6.3v7.6h-2.2v4.9h2.2v7.4
	l0,0c0,3,0,6.9,3.2,8.3c1.2,0.5,2.4,0.6,3.7,0.7c0.8,0,1.7,0,2.5-0.1c0.5,0,1-0.1,1.5-0.1l0.2,0C148.4,30.3,148.4,26.8,148.4,25.1z"
	/>
</svg>
