<?xml version="1.0" encoding="utf-8"?>
<!-- Generator: Adobe Illustrator 23.0.1, SVG Export Plug-In . SVG Version: 6.00 Build 0)  -->
<svg version="1.1" id="Ebene_1" xmlns="http://www.w3.org/2000/svg" xmlns:xlink="http://www.w3.org/1999/xlink" x="0px" y="0px"
	 viewBox="0 0 141.7 40.8" style="enable-background:new 0 0 141.7 40.8;" xml:space="preserve">
<style type="text/css">
	.st0{fill:#FFFFFF;}
</style>
<g>
	<path class="st0" d="M127.9,35.1c0,4.4,3.6,5.7,7.1,5.7c3.1,0,6.6-1.2,6.6-5.2c0-3.3-3.4-3.9-4.7-4.1l-3.8-0.7
		c-1.9-0.3-2.5-1.1-2.5-2.1c0-1.9,1.9-2.6,3.6-2.6c3.7,0,4.4,1.7,4.6,3h2.3c-0.2-3.8-3.5-5-6.6-5c-4,0-6.2,1.9-6.2,4.9
		c0,3.1,2.7,3.9,4.6,4.2l3.5,0.6c1.8,0.3,2.9,0.9,2.9,2.4c0,1.7-1.8,2.7-4.2,2.7c-2.4,0-4.9-0.7-5-3.6H127.9z"/>
	<polygon class="st0" points="111.9,40.4 124.6,40.4 124.6,38.3 114.2,38.3 114.2,33.2 124.1,33.2 124.1,31.1 114.2,31.1 
		114.2,26.5 124.4,26.5 124.4,24.4 111.9,24.4 	"/>
	<path class="st0" d="M106.7,36.1c-0.1-1.9-0.9-3.2-2.3-3.4v0c1.7-0.6,2.6-2,2.6-3.9c0-2-1.1-4.2-4.2-4.2h-9.6v16h2.3v-6.8h6
		c1.9,0,2.8,0.9,3,3.7c0.1,1.9,0.1,2.6,0.5,3h2.4C106.9,39.8,106.8,39,106.7,36.1z M101.9,31.6h-6.4v-5.1h6.5c1.8,0,2.7,1,2.7,2.6
		C104.7,30.2,104.2,31.6,101.9,31.6z"/>
	<path class="st0" d="M73.8,34.4c0,4.3,2.3,6.4,7,6.4c4.7,0,7-2.1,7-6.4v-9.9h-2.3v10.2c0,2.9-1.9,4.1-4.7,4.1
		c-2.8,0-4.7-1.2-4.7-4.1V24.4h-2.3V34.4z"/>
	<polygon class="st0" points="61.8,40.4 64.1,40.4 64.1,26.5 70,26.5 70,24.4 56,24.4 56,26.5 61.8,26.5 	"/>
	<polygon class="st0" points="49.4,40.4 52.1,40.4 52.1,24.4 49.8,24.4 49.8,37.1 49.8,37.1 39.8,24.4 37.2,24.4 37.2,40.4 
		39.4,40.4 39.4,27.7 39.5,27.7 	"/>
	<polygon class="st0" points="19.8,40.4 32.5,40.4 32.5,38.3 22.1,38.3 22.1,33.2 31.9,33.2 31.9,31.1 22.1,31.1 22.1,26.5 
		32.2,26.5 32.2,24.4 19.8,24.4 	"/>
	<polygon class="st0" points="8.2,37.9 2.6,24.4 0,24.4 6.9,40.4 9.3,40.4 16.1,24.4 13.6,24.4 	"/>
	<g>
		<path class="st0" d="M134,0h-9v18.4h9.2c5.4,0,7.6-4.3,7.6-9.4C141.7,3.6,139.3,0,134,0z M134,16h-6.4V2.4h5.9
			c4.6,0,5.6,3.4,5.6,6.6C139.1,12.2,138.3,16,134,16z"/>
		<polygon class="st0" points="115.5,18.4 118.6,18.4 118.6,0 116,0 116,14.6 115.9,14.6 104.5,0 101.4,0 101.4,18.4 104.1,18.4 
			104.1,3.8 104.1,3.8 		"/>
		<path class="st0" d="M89,0h-3l-8,18.4h2.8L83,13h8.7l2.3,5.3h3L89,0z M84,10.6l3.3-8.1l3.4,8.1H84z"/>
		<polygon class="st0" points="61,18.4 74.4,18.4 74.4,16 63.6,16 63.6,0 61,0 		"/>
		<polygon class="st0" points="41.1,18.4 55.6,18.4 55.6,16 43.7,16 43.7,10 55,10 55,7.7 43.7,7.7 43.7,2.4 55.4,2.4 55.4,0 
			41.1,0 		"/>
		<rect x="32.1" class="st0" width="2.6" height="18.4"/>
		<polygon class="st0" points="18.7,18.4 21.6,18.4 27.6,0 24.9,0 20.4,14.9 20.3,14.9 15.4,0 12.3,0 7.5,14.9 7.5,14.9 2.9,0 
			0.1,0 5.9,18.4 8.8,18.4 13.7,3.1 13.8,3.1 		"/>
	</g>
</g>
</svg>
