<?xml version="1.0" encoding="utf-8"?>
<!-- Generator: Adobe Illustrator 23.0.1, SVG Export Plug-In . SVG Version: 6.00 Build 0)  -->
<svg version="1.1" id="Layer_1" xmlns="http://www.w3.org/2000/svg" xmlns:xlink="http://www.w3.org/1999/xlink" x="0px" y="0px"
	 viewBox="0 0 283.4 283.4" style="enable-background:new 0 0 283.4 283.4;" xml:space="preserve">
<style type="text/css">
	.st0{fill:#FFFFFF;}
</style>
<path class="st0" d="M283.4,141.7C283.4,63.4,219.9,0,141.7,0C63.4,0,0,63.5,0,141.7C0,220,63.5,283.4,141.7,283.4
	S283.4,219.9,283.4,141.7 M29.5,80h69L41.6,220.7h200.7c-23.4,29.8-59.8,48.9-100.7,48.9c-70.7,0-128-57.3-128-128
	C13.7,119.3,19.4,98.3,29.5,80 M223.7,141.2v-17.3H189V80.1h64.7c10.1,18.3,15.8,39.3,15.8,61.7s-5.7,43.4-15.8,61.7H89.9
	l56.8-140.7H41C64.4,33,100.8,13.9,141.7,13.9c40.8,0,77.2,19.1,100.7,48.9h-91.5v128h38.2v-49.6H223.7z"/>
</svg>
