<?xml version="1.0" encoding="utf-8"?>
<!-- Generator: Adobe Illustrator 23.0.1, SVG Export Plug-In . SVG Version: 6.00 Build 0)  -->
<svg version="1.1" id="Ebene_1" xmlns="http://www.w3.org/2000/svg" xmlns:xlink="http://www.w3.org/1999/xlink" x="0px" y="0px"
	 viewBox="0 0 841.9 381.9" style="enable-background:new 0 0 841.9 381.9;" xml:space="preserve">
<g>
	<path d="M69.3,137H3.5v-3.5l20.3-3.8V14.1L3.5,10.6V7h60.4c28.4,0,43,13,43,29.2c0,13.5-8.9,26.3-29.2,30.3v0.8
		c26,2.7,38.2,17.1,38.2,32.2C115.6,119.7,98.5,137,69.3,137z M61.2,66.3c15.4,0,24.9-10,24.9-27.9C85.8,19,72.8,12.2,59.8,12.2
		c-5.7,0-11.6,0.3-15.4,1.4v52.8L61.2,66.3L61.2,66.3z M60.4,72h-16v58.2c3.8,0.8,10.8,1.4,16.8,1.4c21.7,0,31.1-11.6,31.1-30.3
		C92.3,83.9,82.8,72,60.4,72z"/>
	<path d="M219,131v2.2l-28.7,7l-0.8-0.3l0.3-16l-0.8-0.3c-12.2,11.1-23.8,16.8-34.9,16.8c-18.4,0-25.2-14.1-25.2-28.4V58.5
		l-13.3-7.3v-1.9l29.8-7.3l0.8,0.8v60.4c0,15.7,5.7,23,18.9,23c8.7,0,14.6-1.9,23-6.5V58.5l-13.5-7v-1.9l29.8-7.3l0.8,0.8v82.8
		L219,131z"/>
	<path d="M249.6,140.2c-10.3,0-18.4-1.4-27.9-5.7v-25.7l4.3-0.3c6.8,18.9,16,26.5,27.3,26.5c10.8,0,17.9-6.2,17.9-17.1
		c0-11.1-10.8-15.4-22.5-20c-12.5-5.1-25.4-11.1-25.4-27.3S235.8,42,255.5,42c8.1,0,18.4,1.9,24.1,3.8l0.8,23l-3.8,1.1
		c-8.1-16.5-15.7-23-24.9-23c-9.2,0-15.4,5.1-15.4,14.1c0,11.1,11.1,15.4,22.7,20.3c12.7,5.1,26.3,11.1,26.3,27.9
		C285.1,128,269.6,140.2,249.6,140.2z"/>
	<path d="M291.3,51.2v-1.9l29.8-7.3l0.8,0.8v88l13.5,3.8v2.7h-45.2v-2.7l14.3-3.8v-71L291.3,51.2z M314,0c6.2,0,11.1,4.6,11.1,11.1
		s-5.1,12.5-12.2,12.5c-6.2,0-10.8-4.6-10.8-11.1C301.8,6,307.2,0,314,0z"/>
	<path d="M428.8,130.8l13.5,3.8v2.7h-43.6v-2.7l13-3.8V79.3c0-15.4-5.7-23-19.2-23c-8.7,0-14.6,1.6-23,6.2v67.7l12.7,3.8v2.7h-43.6
		v-2.4l13.5-3.8V59.8l-13.3-8.7v-1.9l28.7-7.3l0.8,0.8L368,59.2l0.8,0.3c12.2-11.6,23.8-17.1,34.9-17.1c18.4,0,25.2,14.1,25.2,28.4
		v59.8h-0.1V130.8z"/>
	<path d="M462.1,81.8c0,27.3,9.2,45.7,32.2,45.7c10,0,18.4-2.2,30-8.1l1.4,2.4c-12.7,12.2-24.1,18.4-37.4,18.4
		c-26.3,0-44.7-19.2-44.7-47.6c0-28.7,19.8-50.4,45.2-50.4c25.4,0,38.2,17.1,38.2,39.5L462.1,81.8L462.1,81.8z M507,76.1
		c-1.4-17.6-7-29.2-19.8-29.2c-13,0-23.8,12.2-24.9,30.9L507,76.1z"/>
	<path d="M561.7,140.2c-10.3,0-18.4-1.4-27.9-5.7v-25.7l4.3-0.3c6.8,18.9,16,26.5,27.3,26.5c10.8,0,17.9-6.2,17.9-17.1
		c0-11.1-10.8-15.4-22.5-20c-12.5-5.1-25.4-11.1-25.4-27.3S547.9,42,567.7,42c8.1,0,18.4,1.9,24.1,3.8l0.8,23l-3.8,1.1
		c-8.1-16.5-15.7-23-24.9-23S548.5,52,548.5,61c0,11.1,11.1,15.4,22.7,20.3c12.7,5.1,26.3,11.1,26.3,27.9
		C597.2,128,581.7,140.2,561.7,140.2z"/>
	<path d="M632.4,140.2c-10,0-18.4-1.4-27.9-5.7v-25.7l4.3-0.3c6.8,18.9,16,26.5,27.3,26.5c10.8,0,17.9-6.2,17.9-17.1
		c0-11.1-10.8-15.4-22.5-20c-12.5-5.1-25.4-11.1-25.4-27.3S618.6,42,638.3,42c8.1,0,18.4,1.9,24.1,3.8l0.5,23l-3.8,1.1
		c-8.1-16.5-15.7-23-24.9-23S618.8,52,618.8,61c0,11.1,11.1,15.4,22.7,20.3c12.7,5.1,26.3,11.1,26.3,27.9
		C667.6,128,652.4,140.2,632.4,140.2z"/>
	<path d="M65.8,242.8c-6.8,0-14.9-0.8-21.4-1.9v51.4l20.3,3.8v3.5H3.8v-3.5l20.3-3.8V176.5l-20.3-3.8v-3.5h59
		c31.1,0,46.8,15.7,46.8,35.7C109.4,223.3,95.3,242.8,65.8,242.8z M58.5,174.6c-5.1,0-10,0.3-14.1,1.4v60.4
		c3.8,0.8,7.6,1.1,13.5,1.1c18.9,0,28.7-10.3,28.7-31.4C86.6,186.2,76.6,174.6,58.5,174.6z"/>
	<path d="M216.3,293.4v2.2l-28.7,7l-0.8-0.3l0.3-16l-0.8-0.3c-12.2,11.6-23.8,17.1-34.9,17.1c-18.4,0-25.2-14.1-25.2-28.4v-53.9
		l-13.3-7.3v-1.9l29.8-7.3l0.8,0.8v60.4c0,15.7,5.7,23,18.9,23c8.7,0,14.6-1.9,23-6.5v-61.2l-13.5-7V212l29.8-7.3l0.8,0.8v82.8
		L216.3,293.4z"/>
	<path d="M307,293.2l13.5,3.8v2.7h-43.6V297l13-3.8v-51.4c0-15.4-5.7-23-19.2-23c-8.7,0-14.6,1.6-23,6.2v67.7l12.7,3.8v2.7h-43.3
		v-2.4l13.5-3.8v-70.7l-13.5-8.7v-1.9l28.7-7.3l0.8,0.8l-0.3,16.2l0.8,0.3c12.2-11.6,23.8-17.1,34.9-17.1
		c18.4,0,25.2,14.1,25.2,28.4v59.8H307V293.2z"/>
	<path d="M407.7,292.4l11.6,4.3v2.7H379v-2.7l8.1-4.3l-26.8-37.6h-8.1V293l11.6,3.8v2.7h-43v-2.7l14.3-3.8V167l-14.9-8.7v-2.2
		l31.4-8.1l0.8,0.3v100.2h9.2l26.8-31.7l-10.8-7v-2.2h37.6v2.7l-13.5,5.1l-29.2,29.8L407.7,292.4z"/>
</g>
<g>
	<g>
		<g>
			<defs>
				<rect y="317" width="841.9" height="64.9"/>
			</defs>
			<clipPath>
				<use xlink:href="#SVGID_1_"  style="overflow:visible;"/>
			</clipPath>
			<g class="st0">
				<path d="M151.3,338h-5.7v8.7h5.7c4.3,0,6.8-1.5,6.8-4.3C158.1,339.5,155.3,338,151.3,338z"/>
				<path d="M393.3,332.6h-10.2v33.9v0.1h9.9c12.5,0,19.8-5.9,19.8-17C412.8,338.2,405.2,332.6,393.3,332.6z"/>
				<polygon points="693.1,354.9 712,354.9 702.5,333.3 				"/>
				<polygon points="546.4,353 555.7,353 551,340.1 				"/>
				<path d="M467.4,338h-6v9.8l6-0.1c4.4,0,7-1.8,7-4.9C474.4,339.7,471.8,338,467.4,338z"/>
				<polygon points="296.4,354.9 315.3,354.9 305.8,333.3 				"/>
				<path d="M363.2,341.2c0-5.7-4.9-8.6-12.2-8.6h-10.9v17.1l10.9,0.1C358.7,349.8,363.2,346.7,363.2,341.2z"/>
				<ellipse cx="103" cy="349.6" rx="11.9" ry="11.7"/>
				<path d="M790,332.6h-10.2v33.9v0.1h9.9c12.5,0,19.8-5.9,19.8-17C809.5,338.2,801.9,332.6,790,332.6z"/>
				<path d="M0,317v64.9h841.9V317H0z M62.7,370.6H52.4l-7.5-18.1l-7.2,18.1H27.6l-15.3-42.2h12.9l7.8,24.9l7.3-19.3h10.2l7.6,19.5
					l7.7-25.1h12.4L62.7,370.6z M103,371.2c-13.6,0-23.9-9-23.8-21.7c0-12.8,10.4-21.7,23.9-21.7s23.9,8.9,23.9,21.7
					C127,362.2,116.6,371.2,103,371.2z M158.6,370.7l-9.1-14.3h-4v14.3h-11.7l0.1-42.2h18.2c11.1,0,17.9,5.6,17.9,13.9
					c0,5.6-3.3,10-8.6,12.3l11.2,16H158.6z M206.3,370.6l-14.2-17.2h-2.4v17.2h-12v-42.2h12v14.9h2.4l12.6-14.9h13.7L202,348
					l18.7,22.6H206.3z M276.7,370.7h-4.9v-19.3h-27.7v19.3h-4.9v-42.2h4.9v18.9h27.7v-18.9h4.9V370.7z M322.2,370.7l-5.1-11.7h-22.4
					l-5.1,11.7h-5l18.5-42.2h5.7l18.7,42.2H322.2z M363,370.7l-11.5-16.8h-11.4v16.8h-4.8h-0.1v-42.3h17c10,0,15.9,5.5,15.9,12.7
					c0,6.2-4.3,11-11.4,12.4l12,17.2H363z M394.4,370.7h-16.3v-42.2h16.3c15.2,0,23.3,9.3,23.3,21.1
					C417.7,361.6,409.3,370.7,394.4,370.7z M426.9,371.2c-1.9,0-3.5-1.4-3.4-3.3c0-1.8,1.5-3.3,3.4-3.3c1.9,0,3.4,1.5,3.4,3.3
					S428.8,371.2,426.9,371.2z M468.2,357.4h-6.8h-0.1v13.3h-11.7v-42.2h18.5c11.5,0,18.1,5.8,18.1,14.3
					C486.2,351.5,479.2,357.4,468.2,357.4z M523.9,370.7h-31.7v-42.2H504v32.4h19.9V370.7z M562.2,370.7l-3.1-8.4H543l-3,8.4h-12.3
					l16.8-42.2h13.6l17,42.2H562.2z M598.7,353.2v17.4h-11.8v-17.2l-17.6-25h13.8L593,343l10.6-14.6h12.9L598.7,353.2z M673.4,370.7
					h-4.9v-19.3h-27.7v19.3h-4.9v-42.2h4.9v18.9h27.7v-18.9h4.9V370.7z M719,370.7l-5.1-11.7h-22.4l-5.1,11.7h-5l18.5-42.2h5.7
					l18.7,42.2H719z M759.7,370.7l-11.5-16.8h-11.4v16.8H732h-0.1v-42.3h17c10,0,15.9,5.5,15.9,12.7c0,6.2-4.3,11-11.4,12.4l12,17.2
					H759.7z M791.1,370.7h-16.3v-42.2h16.3c15.2,0,23.3,9.3,23.3,21.1C814.4,361.6,806,370.7,791.1,370.7z M823.6,371.2
					c-1.9,0-3.4-1.4-3.4-3.3c0-1.8,1.5-3.3,3.4-3.3s3.4,1.5,3.4,3.3S825.5,371.2,823.6,371.2z"/>
				<path d="M759.9,341.2c0-5.7-4.9-8.6-12.2-8.6h-10.9v17.1l10.9,0.1C755.4,349.8,759.9,346.7,759.9,341.2z"/>
			</g>
		</g>
	</g>
</g>
</svg>
