<?xml version="1.0" encoding="utf-8"?>
<!-- Generator: Adobe Illustrator 23.0.0, SVG Export Plug-In . SVG Version: 6.00 Build 0)  -->
<svg version="1.1" id="Layer_1" xmlns="http://www.w3.org/2000/svg" xmlns:xlink="http://www.w3.org/1999/xlink" x="0px" y="0px"
	 viewBox="0 0 208.1 48.8" style="enable-background:new 0 0 208.1 48.8;" xml:space="preserve">
<style type="text/css">
	.dot{fill:#E72A54;}
</style>
<g>
	<path d="M35.5,30.5V23c0-9.4-4.2-15-14-15c-9.5,0-14.1,5.8-14.1,15v12.1c0,0.2,0,0.4,0,0.6c3.2,0.4,5.7,3.2,5.7,6.5
		c0,1.4-0.4,2.7-1.2,3.7c2.4,1.8,5.7,2.8,9.9,2.8c4.7,0,9.7-1.7,12.6-4.3l-2.4-4.4c-1.8,1.2-5.7,3.4-10.2,3.4
		c-6.4,0-8.7-3.2-8.7-7.1v-5.9H35.5z M13.2,23.5c0-6.8,2.3-10.1,8.4-10.1c6,0,8.4,3.3,8.4,10.1v2.2H13.2V23.5z"/>
	<path d="M105.9,30.5H83.6v5.9c0,3.9,2.3,7.1,8.7,7.1c4.5,0,8.4-2.2,10.2-3.4l2.4,4.4c-2.9,2.6-7.9,4.3-12.6,4.3
		c-9.6,0-14.5-5.1-14.5-13.7V23c0-9.1,4.6-15,14.1-15c9.7,0,14,5.6,14,15V30.5z M100.3,25.7v-2.2c0-6.8-2.3-10.1-8.4-10.1
		c-6,0-8.4,3.3-8.4,10.1v2.2H100.3z"/>
	<path d="M53,48.2L40.8,8.6h6.3l9.2,32.8h0.3l9.2-32.8h6.3L60,48.2H53z"/>
	<path d="M121,48.2h-5.8V8.6h4.6l0.6,4.9c1.6-1.7,5.8-5.5,11.6-5.5c8.6,0,12,6,12,13.5v26.6h-5.8V23c0-6.8-3-9.2-8.1-9.2
		c-3.7,0-7.1,2.3-9.1,4.2V48.2z"/>
	<path d="M164.2,36.9c0,4.2,1.2,6.3,6,6.3c1.9,0,4.2-0.6,5.4-0.9l1.1,4.7c-2.4,1.2-4.8,1.6-7.2,1.6c-8.3,0-11-3.7-11-12.3V13.7h-7
		c0,0,0-0.5,0-4.5l7.1-0.5V0.7l5.6-0.7v8.6h10.9v5h-10.9V36.9z"/>
	<path d="M202.7,36.8c0-4.5-3.2-5.5-8.1-6.8c-5.8-1.5-11.8-3.2-11.8-10.7c0-7.7,5.4-11.2,12.7-11.2c4,0,8,1.2,11.2,3.1l-1.9,4.5
		c-2.4-1.3-6-2.5-9.3-2.5c-4.2,0-7.1,1.4-7.1,5.7c0,4,3.8,5,8.4,6.3c6.2,1.7,11.4,3.5,11.4,11.2c0,7.8-4.4,12.5-13.5,12.5
		c-5.5,0-10.7-2.4-12.8-3.8l2.1-4.3c2.7,1.3,7.2,3,10.7,3C200.8,43.7,202.7,40.8,202.7,36.8z"/>
</g>
<circle class="dot" cx="6" cy="42.5" r="6"/>
</svg>
