<?xml version="1.0" encoding="utf-8"?>
<!-- Generator: Adobe Illustrator 23.0.1, SVG Export Plug-In . SVG Version: 6.00 Build 0)  -->
<svg version="1.1" id="src--GS--GlobalBundle--Resources--public--images--new_layout--sprites--gs_xing_white"
	 xmlns="http://www.w3.org/2000/svg" xmlns:xlink="http://www.w3.org/1999/xlink" x="0px" y="0px" viewBox="0 0 169.8 20"
	 style="enable-background:new 0 0 169.8 20;" xml:space="preserve">
<path class="st0" d="M104.6,16.5h-7.3V3.6h7.3v2.2h-4.7v2.8h4.4v2.3h-4.4v3.3h4.7V16.5z M137,16.5h-9.6v-1.8l6.2-8.9h-6V3.6h9.2v1.7
	l-6.2,8.9h6.4V16.5z M146.8,16.5h-7.5V3.6h7.5v2.2H142v2.8h4.4v2.3H142v3.3h4.8V16.5z M162.4,3.6v12.9h7.4v-2.3h-4.7v-3.3h4.4V8.6
	h-4.4V5.8h4.7V3.6H162.4z M65.5,3.6h2.7v2.7h-2.7V3.6z M61.7,3.6h2.7v2.7h-2.7V3.6z M25.5,0l-4.2,20H24l4.3-20L25.5,0z M29.6,0
	l-4.2,20h2.7l4.3-20L29.6,0z M0,0v20h20l4.2-20L0,0z M39.2,9.2h5.1v6.7c-0.8,0.2-1.5,0.4-2.3,0.6c-0.8,0.1-1.5,0.2-2.3,0.1
	c-1.7,0.1-3.3-0.5-4.5-1.7c-1.1-1.4-1.6-3.2-1.5-4.9c-0.1-1.8,0.6-3.6,1.8-4.9c1.4-1.2,3.1-1.8,4.9-1.7c1.3,0,2.6,0.3,3.8,0.8
	l-0.9,2.2c-0.9-0.5-1.9-0.7-2.9-0.7c-1.1,0-2.1,0.4-2.9,1.2c-0.8,0.9-1.1,2-1.1,3.2c-0.1,1.1,0.2,2.3,0.9,3.2
	c0.6,0.8,1.5,1.2,2.5,1.1c0.6,0,1.2-0.1,1.7-0.2v-2.7H39V9.2H39.2z M49.5,9.3h0.9c0.7,0,1.3-0.1,1.9-0.4c0.4-0.3,0.6-0.8,0.6-1.3
	s-0.2-1-0.6-1.3C51.7,6,51,5.9,50.4,5.9h-0.8C49.6,5.9,49.5,9.3,49.5,9.3z M49.5,11.5v4.9h-2.7V3.6h3.7c1.4-0.1,2.7,0.2,3.9,0.9
	c0.9,0.7,1.3,1.8,1.3,2.9c0,0.7-0.2,1.4-0.6,2c-0.4,0.6-1.1,1.1-1.8,1.4c1.9,2.9,3.2,4.7,3.8,5.6h-3L51,11.5
	C51,11.5,49.5,11.5,49.5,11.5z M82.2,16.5h-3.5l-5.6-9.7H73c0.1,1.7,0.2,2.9,0.2,3.7v6.1h-2.4v-13h3.5l5.6,9.7H80
	c-0.1-1.7-0.1-2.9-0.1-3.5V3.6h2.5L82.2,16.5z M92.5,9.9c0-2.7-1.2-4.1-3.7-4.1h-1.5v8.4h1.2C91.2,14.2,92.5,12.8,92.5,9.9
	 M95.3,9.9c0.1,1.8-0.5,3.6-1.8,4.9c-1.5,1.2-3.3,1.8-5.2,1.7h-3.7V3.6h4.1c1.8-0.1,3.5,0.5,4.9,1.7C94.8,6.5,95.4,8.1,95.3,9.9
	 M109.5,9.3h0.9c0.7,0,1.3-0.1,1.9-0.4c0.4-0.3,0.6-0.8,0.6-1.3s-0.2-1-0.6-1.3c-0.6-0.3-1.3-0.4-1.9-0.4h-0.8L109.5,9.3z
	 M109.5,11.5v4.9h-2.7V3.6h3.7c1.4-0.1,2.7,0.2,3.9,0.9c0.9,0.7,1.3,1.8,1.3,2.9c0,0.7-0.2,1.4-0.6,2s-1.1,1.1-1.8,1.4
	c1.9,2.9,3.2,4.7,3.8,5.6h-3l-3.1-4.9C111,11.5,109.5,11.5,109.5,11.5z M126.2,12.9c0.1,1.1-0.4,2.1-1.2,2.7c-1,0.7-2.2,1.1-3.5,1
	c-1.3,0-2.5-0.2-3.7-0.8v-2.5c0.7,0.3,1.4,0.6,2.2,0.8c0.5,0.1,1.1,0.2,1.7,0.3c0.5,0,1-0.1,1.4-0.3c0.3-0.2,0.5-0.6,0.5-1
	c0-0.2-0.1-0.5-0.2-0.7l-0.6-0.6c-0.5-0.3-1.1-0.6-1.7-0.9c-0.6-0.3-1.2-0.6-1.8-1.1c-0.4-0.3-0.7-0.7-0.9-1.2
	c-0.3-0.5-0.4-1-0.3-1.6c0-1,0.4-2,1.1-2.7c0.9-0.7,2-1.1,3.2-1c0.7,0,1.3,0.1,1.9,0.3c0.7,0.2,1.3,0.4,1.9,0.7l-0.9,2.1
	c-0.6-0.2-1.1-0.4-1.7-0.6c-0.4-0.1-0.9-0.2-1.3-0.2s-0.8,0.1-1.2,0.3c-0.3,0.2-0.4,0.6-0.4,0.9c0,0.2,0.1,0.4,0.2,0.6
	s0.3,0.4,0.5,0.5c0.6,0.3,1.1,0.7,1.7,0.9c0.9,0.4,1.8,1,2.5,1.7C126.1,11.3,126.3,12.1,126.2,12.9"/>
<path class="st0" d="M65.5,7.5v4c0.1,0.8-0.1,1.6-0.6,2.2c-0.5,0.5-1.2,0.7-1.9,0.7c-0.7,0.1-1.5-0.2-2-0.7
	c-0.5-0.6-0.7-1.4-0.6-2.2V3.6h-2.7v8.3c-0.1,1.3,0.4,2.6,1.4,3.5c1.1,0.9,2.5,1.4,3.9,1.3c1,0,2-0.2,2.9-0.6
	c0.8-0.4,1.4-0.9,1.9-1.7c0.4-0.8,0.7-1.6,0.7-2.5V7.4L65.5,7.5z M160.2,16.5h-3.5l-5.6-9.7H151c0.1,1.7,0.2,2.9,0.2,3.7v6.1h-2.5
	v-13h3.5l5.6,9.7h0.1c-0.1-1.7-0.1-2.9-0.1-3.5V3.6h2.5L160.2,16.5L160.2,16.5z"/>
</svg>
