<?xml version="1.0" encoding="utf-8"?>
<!-- Generator: Adobe Illustrator 23.0.1, SVG Export Plug-In . SVG Version: 6.00 Build 0)  -->
<svg version="1.1" id="Layer_1" xmlns="http://www.w3.org/2000/svg" xmlns:xlink="http://www.w3.org/1999/xlink" x="0px" y="0px"
	 viewBox="0 0 250 77.5" style="enable-background:new 0 0 250 77.5;" xml:space="preserve">
<path d="M165.5,32.4h-3.3V31c-0.4,0.5-0.9,0.9-1.5,1.1c-0.7,0.3-1.5,0.5-2.2,0.4c-1.6,0.1-3.2-0.6-4.3-1.8c-1.1-1.2-1.7-2.8-1.7-4.8
	s0.6-3.6,1.7-4.8c1.1-1.2,2.7-1.9,4.3-1.8c1.6,0,2.8,0.5,3.5,1.4v-7.5h3.5L165.5,32.4z M159,22.4c-0.8,0-1.6,0.3-2.2,0.9
	c-0.6,0.7-0.9,1.7-0.8,2.6c-0.1,0.9,0.2,1.9,0.8,2.6c1.2,1.2,3.1,1.2,4.3,0.1c0.6-0.7,0.9-1.5,0.8-2.4v-0.6c0.1-0.9-0.2-1.7-0.8-2.4
	C160.6,22.7,159.8,22.4,159,22.4z M170.4,13.2c0.6,0,1.1,0.2,1.5,0.6c0.4,0.4,0.6,1,0.6,1.5c0,0.6-0.2,1.1-0.6,1.5
	c-0.4,0.4-0.9,0.6-1.5,0.6c-0.6,0-1.1-0.2-1.5-0.6c-0.8-0.9-0.8-2.2,0-3.1C169.3,13.5,169.8,13.2,170.4,13.2z M172.2,32.4h-3.5V19.6
	h3.5L172.2,32.4z M180.7,19.3c1.7,0,3,0.5,3.7,1.6v-1.3h3.3v13.2c0,1.8-0.6,3.3-1.7,4.4c-1.1,1.1-2.7,1.6-4.6,1.6
	c-1.9,0-3.4-0.4-4.5-1.3c-1.1-0.9-1.8-2.2-2-3.6l3.5-0.1c0.1,0.6,0.4,1.1,0.9,1.5c0.6,0.4,1.3,0.5,1.9,0.5c0.8,0,1.5-0.2,2.1-0.7
	c0.6-0.5,0.9-1.3,0.8-2v-1.8c-0.8,0.9-2,1.4-3.5,1.4c-1.6,0.1-3.2-0.6-4.4-1.8c-1.1-1.2-1.7-2.8-1.7-4.8s0.6-3.6,1.7-4.8
	C177.4,19.9,179,19.3,180.7,19.3z M181.2,22.4c-0.8,0-1.6,0.3-2.2,0.9c-1.1,1.6-1.1,3.7,0,5.2c0.6,0.6,1.3,0.9,2.2,0.9
	c0.8,0,1.6-0.3,2.2-0.9c0.6-0.7,0.9-1.5,0.8-2.4v-0.6c0.1-0.9-0.2-1.7-0.8-2.4C182.8,22.7,182,22.4,181.2,22.4z M192.5,13.2
	c0.6,0,1.1,0.2,1.5,0.6c0.4,0.4,0.6,1,0.6,1.5c0,0.6-0.2,1.1-0.6,1.5c-0.4,0.4-0.9,0.6-1.5,0.6c-0.6,0-1.1-0.2-1.5-0.6
	c-0.8-0.9-0.8-2.2,0-3.1C191.5,13.5,192,13.2,192.5,13.2z M194.3,32.4h-3.5V19.6h3.5V32.4z M202.4,22.7l0,4.7c0,0.5,0.1,1.1,0.5,1.5
	c0.4,0.3,0.9,0.5,1.4,0.5c0.4,0,0.7,0,1.1-0.1v3.2c-0.7,0.1-1.3,0.1-2,0.1c-1.4,0-2.5-0.4-3.4-1.1c-0.8-0.7-1.2-1.8-1.2-3.2l0-5.6
	h-2.3v-3.1h2.3l0-4.2h3.5l0,4.2h2.9v3.1L202.4,22.7z M212.7,19.3c1.7,0,3,0.4,3.9,1.3c0.9,0.9,1.3,2.1,1.3,3.8v7.9h-3.4v-1
	c-0.8,0.9-2,1.4-3.2,1.3c-1.1,0.1-2.2-0.3-3.1-1c-0.8-0.7-1.2-1.8-1.1-2.8c0-2.4,1.7-3.7,5-3.9l2.2-0.1v-0.5c0-1.3-0.5-2-1.6-2
	c-0.5,0-1,0.1-1.3,0.5c-0.3,0.3-0.5,0.8-0.4,1.2l-3.5-0.1c0-1.2,0.5-2.4,1.5-3.2C209.9,19.8,211.3,19.3,212.7,19.3L212.7,19.3z
	 M214.3,27.2l-1.9,0.1c-1.2,0-1.8,0.5-1.8,1.3c0,0.8,0.5,1.2,1.5,1.2c0.6,0,1.2-0.2,1.6-0.5c0.4-0.4,0.7-1,0.6-1.5L214.3,27.2z
	 M224,32.4h-3.5V13.2h3.5V32.4z M160.1,44.9c1.7-0.1,3.3,0.6,4.4,1.8c1.1,1.2,1.7,2.8,1.7,4.8c0,2-0.6,3.6-1.7,4.8
	c-1.1,1.2-2.7,1.9-4.4,1.8c-1.5,0-2.7-0.5-3.5-1.4v7.4h-3.5V45.1h3.3v1.3C157.2,45.4,158.4,44.9,160.1,44.9z M159.6,48
	c-0.8,0-1.6,0.3-2.1,0.9c-0.6,0.7-0.9,1.5-0.8,2.4v0.6c0,0.9,0.2,1.7,0.8,2.4c0.6,0.6,1.4,0.9,2.2,0.9c0.8,0,1.6-0.4,2.2-0.9
	c1.1-1.6,1.1-3.7,0-5.2C161.2,48.3,160.4,47.9,159.6,48L159.6,48z M170.1,38.8c0.6,0,1.1,0.2,1.5,0.6c0.8,0.9,0.8,2.2,0,3.1
	c-0.4,0.4-0.9,0.6-1.5,0.6c-0.6,0-1.1-0.2-1.5-0.6c-0.8-0.9-0.8-2.2,0-3.1C169,39,169.6,38.8,170.1,38.8L170.1,38.8z M171.9,57.9
	h-3.5V45.1h3.5V57.9z M175.9,46.7c2.7-2.4,6.8-2.4,9.6,0c1.3,1.2,1.9,2.8,1.9,4.8c0.1,1.8-0.6,3.5-1.9,4.8c-2.7,2.5-6.9,2.5-9.6,0
	c-1.3-1.3-2-3-1.9-4.8C174,49.5,174.6,47.9,175.9,46.7L175.9,46.7z M182.9,48.9c-0.6-0.6-1.4-1-2.2-1c-0.8,0-1.6,0.3-2.2,1
	c-0.6,0.7-0.9,1.7-0.8,2.6c-0.1,0.9,0.2,1.9,0.8,2.6c0.6,0.6,1.4,0.9,2.2,0.9c0.8,0,1.6-0.3,2.2-0.9c0.6-0.7,0.9-1.7,0.8-2.6
	C183.8,50.6,183.5,49.6,182.9,48.9L182.9,48.9z M196.2,44.9c1.3-0.1,2.6,0.4,3.6,1.4c0.9,0.9,1.3,2.2,1.3,3.8v7.8h-3.5v-7.1
	c0-0.7-0.2-1.3-0.6-1.9c-0.4-0.5-1-0.7-1.6-0.7c-0.6,0-1.3,0.2-1.7,0.7c-0.4,0.5-0.7,1.2-0.6,1.9v7.1h-3.5V45.1h3.3v1.3
	C193.5,45.4,194.6,44.9,196.2,44.9L196.2,44.9z M215.5,52.7h-8.6c0,0.7,0.3,1.4,0.7,1.9c0.5,0.5,1.2,0.7,1.9,0.7
	c1.3,0,2-0.5,2.3-1.4l3.6,0.2c-0.2,1.2-0.9,2.3-2,3c-1.1,0.8-2.4,1.2-3.8,1.2c-1.9,0-3.5-0.6-4.7-1.8c-1.2-1.2-1.8-2.8-1.8-4.8
	c0-2,0.6-3.7,1.8-4.9c1.2-1.2,2.9-1.9,4.6-1.8c1.8,0,3.3,0.6,4.4,1.7c1.1,1.1,1.6,2.7,1.6,4.7L215.5,52.7z M209.5,47.7
	c-0.7,0-1.3,0.2-1.8,0.7c-0.5,0.5-0.8,1.2-0.8,1.9h5c0-0.7-0.2-1.4-0.7-1.9C210.8,47.9,210.2,47.6,209.5,47.7z M229.4,52.7h-8.6
	c0,0.7,0.3,1.4,0.7,1.9c0.5,0.5,1.2,0.7,1.9,0.7c1.3,0,2-0.5,2.3-1.4l3.6,0.2c-0.2,1.2-0.9,2.3-2,3c-1.1,0.8-2.4,1.2-3.8,1.2
	c-1.9,0-3.5-0.6-4.7-1.8c-1.2-1.2-1.8-2.8-1.8-4.8c0-2,0.6-3.7,1.8-4.9c1.2-1.2,2.9-1.9,4.6-1.8c1.8,0,3.3,0.6,4.4,1.7
	c1.1,1.1,1.6,2.7,1.6,4.7L229.4,52.7z M223.4,47.7c-0.7,0-1.3,0.2-1.8,0.7c-0.5,0.5-0.8,1.2-0.8,1.9h5c0-0.7-0.2-1.4-0.7-1.9
	C224.7,47.9,224.1,47.6,223.4,47.7z M238.5,45v3.5c-0.9,0-1.7,0.2-2.4,0.8c-0.6,0.5-0.9,1.3-0.9,2.1v6.5h-3.5V45.1h3.4v1.5
	C235.8,45.5,236.9,45,238.5,45z M244.8,44.9c1.5,0,2.7,0.4,3.6,1.1c0.9,0.8,1.4,1.8,1.5,3l-3.5,0.2c0-1-0.6-1.6-1.6-1.6
	c-1,0-1.4,0.4-1.4,1.1c0,0.1,0,0.2,0,0.3c0,0.1,0.1,0.2,0.1,0.2c0.1,0.1,0.1,0.1,0.2,0.2c0.1,0.1,0.2,0.1,0.2,0.1l0.3,0.1
	c0.1,0,0.2,0.1,0.3,0.1l0.4,0.1l0.4,0.1c0.2,0,0.4,0.1,0.5,0.1c1.1,0.3,2.2,0.7,3.2,1.4c0.7,0.6,1.1,1.5,1.1,2.4
	c0.1,1.2-0.4,2.3-1.4,3.1c-0.9,0.8-2.2,1.1-3.8,1.1s-2.9-0.4-3.8-1.1c-0.9-0.8-1.5-1.9-1.6-3.1l3.5-0.2c0,1.1,0.7,1.6,1.8,1.6
	c0.4,0,0.8-0.1,1.2-0.3c0.3-0.2,0.4-0.5,0.4-0.9c0-0.3-0.2-0.7-0.5-0.8c-0.6-0.3-1.2-0.5-1.8-0.6c-0.6-0.2-1.2-0.3-1.5-0.4
	c-0.4-0.1-0.8-0.3-1.2-0.5c-0.4-0.2-0.7-0.4-1-0.7c-0.2-0.3-0.4-0.6-0.5-1c-0.5-1.5-0.1-3.2,1.1-4.3C242,45.2,243.2,44.9,244.8,44.9
	L244.8,44.9z M106.3,0.4c-4.4,0.8-8.7,2.5-12.4,5c-0.2-1.7-0.5-3.4-1-5.1H76.5c4.2,8.6,3.1,18.8-2.7,26.3
	c8.3,8.2,10.3,20.8,4.9,31.2H97V23.1c2.1-2.2,5.3-5,9.3-5.7c5.2-0.8,9.3,2.7,9.3,8v32.5h18.7V24.4C134.4,8.5,121.8-2.2,106.3,0.4z
	 M55,19.6c3.3,0.1,6.4-1.9,7.7-4.9c1.3-3.1,0.7-6.6-1.6-9c-2.3-2.4-5.9-3.1-9-1.9C49,5,47,8,47,11.3v8.2H55z M56.3,36H47v9.6
	c0,5.3,4.2,9.6,9.3,9.6s9.3-4.3,9.3-9.6S61.5,36,56.3,36z M47,36V19.6H31V0.4H12.3v19.2H0V36h12.3v9.6c0,11.9,4.6,23.4,12.9,31.9
	l13.2-13.5C33.6,59,30.9,52.4,31,45.6V36H47z"/>
</svg>
